 <svg  version="1.0" xmlns="http://www.w3.org/2000/svg"  width="300.000000pt" height="300.000000pt" viewBox="0 0 300.000000 300.000000"  preserveAspectRatio="xMidYMid meet">  <g transform="translate(0.000000,300.000000) scale(0.100000,-0.100000)" fill="#c20505" stroke="none"> <path d="M813 2493 c-7 -3 -14 -19 -14 -36 -1 -18 -3 -24 -6 -14 -6 21 -23 23 -23 1 0 -10 -6 -14 -15 -10 -10 4 -15 -1 -15 -15 0 -11 -4 -18 -9 -14 -5 3 -12 1 -16 -4 -3 -6 -12 -8 -20 -4 -11 4 -15 -2 -15 -24 l0 -29 -132 -17 c-147 -19 -232 -22 -224 -8 4 5 40 12 81 16 41 4 75 11 75 15 0 13 -40 14 -154 5 -53 -5 -91 -4 -95 2 -3 5 -17 6 -31 2 -14 -4 -19 -7 -12 -8 19 -1 4 -21 -16 -21 -22 0 -66 -66 -51 -76 8 -5 6 -10 -5 -16 -30 -17 -14 -108 19 -108 7 0 21 -7 30 -16 9 -9 25 -14 35 -11 11 3 18 1 14 -4 -3 -5 -2 -9 3 -9 10 0 124 37 188 62 42 16 147 36 277 52 l36 4 7 -106 c3 -59 11 -143 16 -187 42 -366 37 -1217 -8 -1312 -8 -18 -12 -40 -9 -50 4 -9 2 -20 -5 -23 -17 -11 7 -49 36 -56 24 -6 97 -1 168 12 50 8 61 35 41 99 -39 130 -45 217 -43 596 1 203 6 369 10 369 5 0 9 10 9 22 0 41 14 7 18 -44 2 -35 -1 -54 -10 -60 -10 -7 -10 -11 0 -15 6 -2 12 -19 11 -36 -1 -31 -1 -31 -9 -7 -9 28 -5 -109 11 -330 18 -251 27 -239 23 30 -4 307 -3 878 2 975 2 39 4 91 5 118 0 37 4 47 17 47 9 1 82 9 162 19 93 11 147 14 151 8 4 -5 12 -6 19 -2 9 5 11 4 6 -4 -5 -7 -20 -10 -37 -7 -16 2 -29 1 -29 -2 0 -4 -21 -8 -47 -10 -26 -2 -50 -6 -53 -10 -3 -4 -9 -7 -15 -7 -70 -3 -138 -26 -122 -42 3 -3 79 9 169 27 90 18 202 35 251 37 56 4 87 10 87 17 0 7 5 17 12 24 18 18 20 82 3 88 -8 3 -11 12 -8 21 5 13 -7 14 -78 12 -46 -2 -95 -9 -109 -15 -31 -15 -309 -47 -369 -42 -37 2 -47 8 -62 33 -10 17 -18 38 -18 48 -1 10 -9 20 -18 24 -10 3 -25 12 -33 18 -15 13 -35 15 -57 8z m62 -56 c10 -8 25 -29 34 -48 25 -53 50 -61 176 -54 145 8 184 13 283 36 127 29 172 22 172 -26 0 -35 -35 -52 -105 -54 -34 -1 -62 -7 -67 -14 -5 -8 -8 -7 -8 5 0 9 -8 17 -17 17 -10 0 -44 2 -75 4 -80 5 -269 -21 -289 -39 -22 -19 -29 -117 -32 -424 -2 -208 -4 -228 -24 -270 -26 -55 -27 -69 -28 -495 0 -296 2 -350 19 -420 10 -44 20 -90 23 -101 4 -18 -3 -24 -43 -38 -95 -32 -141 -16 -131 46 35 216 44 410 36 803 -6 287 -16 513 -24 525 -2 3 -6 55 -10 115 -8 143 -15 197 -27 213 -13 15 -111 16 -192 1 -34 -6 -115 -29 -181 -50 -66 -22 -129 -39 -140 -39 -11 0 -35 9 -54 21 -32 19 -33 23 -28 65 7 64 46 104 102 104 22 0 51 -7 64 -16 19 -14 43 -16 155 -11 72 3 140 8 151 11 11 2 28 5 38 5 10 1 30 13 45 29 35 36 134 110 148 111 5 1 18 -5 29 -12z"/> <path d="M2227 2474 c-16 -9 -35 -13 -42 -10 -7 2 -16 -1 -18 -8 -6 -16 -47 -28 -47 -15 0 5 -34 -13 -75 -41 -45 -30 -73 -55 -69 -62 4 -7 2 -8 -5 -4 -6 4 -18 2 -26 -4 -18 -15 -20 -34 -2 -24 6 4 -6 -12 -28 -37 -73 -80 -191 -275 -225 -373 -10 -28 -32 -91 -49 -141 -55 -157 -73 -248 -74 -380 0 -124 16 -250 39 -296 7 -15 16 -40 19 -57 3 -17 10 -44 16 -59 12 -34 147 -173 209 -216 25 -17 55 -42 66 -54 12 -13 25 -23 30 -23 5 0 25 -13 44 -28 60 -49 116 -80 171 -96 86 -23 115 -28 104 -18 -5 5 -36 15 -69 22 -32 8 -82 28 -111 45 -81 49 -195 144 -195 163 0 15 -2 15 -11 2 -9 -13 -10 -13 -6 0 5 21 32 19 31 -2 -1 -10 1 -18 5 -18 4 0 23 -14 42 -31 98 -89 231 -153 347 -168 82 -10 145 -9 154 3 3 5 18 10 32 12 24 2 146 90 146 105 0 3 10 17 21 30 37 41 82 150 87 206 5 55 -10 109 -36 130 -8 7 -17 32 -19 57 -6 48 -32 66 -34 24 0 -13 -3 -17 -6 -10 -7 19 -20 14 -27 -10 l-6 -23 -14 24 c-13 23 -13 23 -36 -24 -13 -26 -25 -71 -27 -99 -2 -28 -14 -85 -26 -126 -17 -59 -31 -84 -64 -117 -23 -24 -49 -43 -57 -43 -8 0 -16 -6 -19 -12 -2 -9 -25 -13 -68 -12 -51 0 -76 6 -124 31 -71 37 -168 122 -231 204 -161 209 -253 588 -199 818 19 79 88 214 157 305 50 66 146 148 198 168 14 6 34 15 45 21 25 13 80 19 169 19 60 0 78 -5 145 -39 54 -27 84 -50 106 -80 37 -51 95 -81 128 -66 26 12 54 108 37 128 -5 7 -7 15 -4 18 17 16 -9 97 -42 133 -27 31 -34 34 -29 17 5 -18 2 -23 -13 -23 -21 0 -46 23 -36 33 3 3 -3 19 -15 36 -26 37 -148 86 -236 96 -33 3 -69 8 -80 10 -11 2 -33 -3 -48 -11z m210 -50 c29 -9 55 -20 59 -25 3 -5 10 -6 16 -3 8 5 9 1 5 -10 -5 -13 -3 -17 7 -13 9 4 13 1 11 -6 -9 -24 49 -73 95 -80 16 -3 26 -11 28 -25 2 -11 10 -23 19 -26 13 -5 14 -4 3 9 -14 17 -8 31 9 21 5 -4 8 -15 6 -25 -2 -11 3 -22 11 -25 8 -3 14 -13 14 -23 0 -10 -4 -14 -8 -8 -4 6 -18 19 -31 30 l-23 20 16 -39 c21 -50 21 -112 0 -120 -21 -8 -41 5 -93 58 -26 27 -75 61 -118 83 -73 36 -75 37 -198 36 -69 0 -122 3 -119 8 3 5 11 9 18 9 7 0 21 9 31 20 10 11 15 20 11 20 -12 0 -130 -60 -170 -86 -21 -14 -35 -20 -31 -13 5 8 4 10 -3 5 -7 -4 -12 -14 -12 -21 0 -8 -12 -22 -26 -31 -16 -11 -21 -20 -14 -24 8 -5 8 -11 -2 -21 -96 -100 -175 -227 -219 -351 -33 -93 -40 -278 -16 -399 32 -162 94 -328 160 -431 114 -179 273 -302 408 -315 65 -6 104 8 169 64 57 49 110 167 110 248 0 60 19 102 51 115 17 8 34 9 39 4 25 -27 60 -107 60 -139 0 -50 -67 -190 -116 -241 -84 -88 -159 -116 -282 -104 -139 14 -278 85 -386 196 -12 12 -37 24 -57 28 -40 7 -65 29 -54 46 3 5 -2 10 -12 10 -31 0 -121 97 -134 143 -6 23 -17 58 -25 77 -21 52 -26 88 -14 110 8 15 8 20 -1 18 -8 -2 -13 10 -15 29 -1 18 -4 39 -8 48 -3 8 -1 15 5 15 6 0 6 7 -1 20 -8 15 -8 20 2 20 10 0 10 2 0 9 -11 7 -11 9 1 14 18 7 24 47 32 195 4 78 2 102 -7 102 -9 0 -10 2 -2 8 7 4 17 27 24 52 40 142 170 411 237 490 12 14 44 53 73 87 53 65 128 115 190 128 19 4 46 14 60 21 30 17 136 11 217 -12z m-805 -884 c-4 -3 -7 -14 -6 -25 0 -11 -4 -33 -8 -50 -5 -17 -4 -33 2 -39 14 -14 13 -29 -1 -20 -9 5 -10 -1 -5 -20 3 -14 2 -26 -2 -26 -5 0 -10 34 -11 75 -1 46 2 75 8 75 6 0 8 7 5 15 -4 8 -3 23 0 32 6 15 8 15 16 3 5 -8 6 -17 2 -20z"/> <path d="M2075 2300 c-33 -15 -71 -39 -85 -52 -29 -26 -64 -78 -57 -84 6 -6 49 33 46 43 -3 12 121 82 191 108 l35 14 -35 0 c-19 0 -62 -13 -95 -29z"/> <path d="M1726 981 c-4 -6 -2 -11 3 -11 6 0 11 -11 11 -23 0 -13 10 -32 22 -43 16 -13 19 -14 10 -3 -7 10 -15 26 -17 38 -6 34 -21 55 -29 42z"/> <path d="M610 2391 c0 -8 -6 -11 -16 -7 -8 3 -12 2 -9 -4 3 -6 -4 -10 -17 -11 -13 0 -18 -3 -11 -5 6 -3 25 -1 42 3 24 6 28 11 21 23 -8 12 -10 12 -10 1z"/> </g> </svg> 