<?xml version="1.0" standalone="no"?>
<!DOCTYPE svg PUBLIC "-//W3C//DTD SVG 20010904//EN"
 "http://www.w3.org/TR/2001/REC-SVG-20010904/DTD/svg10.dtd">
<svg version="1.0" xmlns="http://www.w3.org/2000/svg"
 width="2835.000000pt" height="2835.000000pt" viewBox="0 0 2835.000000 2835.000000"
 preserveAspectRatio="xMidYMid meet">

<g transform="translate(0.000000,2835.000000) scale(0.100000,-0.100000)"
fill="#000000" stroke="none">
<path d="M7996 23570 c-70 -62 -97 -64 -156 -15 -23 19 -45 35 -50 35 -10 0
-20 -26 -20 -51 0 -16 -7 -19 -40 -19 -27 0 -43 -5 -46 -15 -4 -8 3 -62 13
-120 11 -58 18 -105 16 -105 -1 0 -34 62 -73 138 -39 75 -68 124 -66 107 3
-16 10 -57 16 -90 20 -103 11 -132 -43 -149 -17 -5 -18 -13 -12 -69 11 -114 9
-164 -9 -191 -9 -14 -21 -26 -26 -26 -20 0 -39 33 -50 87 -28 139 -56 177
-127 171 -36 -3 -38 -5 -41 -41 -3 -32 2 -43 38 -79 43 -44 40 -58 -12 -58
-26 0 -28 -3 -28 -39 0 -57 -24 -71 -126 -71 -73 0 -85 3 -125 30 -24 16 -48
30 -53 30 -18 0 0 -212 23 -270 11 -30 21 -65 21 -76 0 -28 -23 -46 -52 -42
-19 2 -24 11 -29 47 -9 67 -45 85 -113 57 -31 -13 -57 -52 -80 -119 -9 -29
-35 -31 -148 -13 -59 10 -114 16 -121 13 -21 -8 -37 -86 -37 -184 0 -80 -11
-184 -26 -255 -7 -36 -21 -39 -320 -83 -274 -41 -451 -61 -614 -70 -63 -4
-146 -15 -185 -25 -92 -25 -233 -46 -435 -65 -178 -18 -297 -37 -330 -55 -29
-15 -704 -42 -1090 -44 -296 -1 -317 0 -355 19 -24 12 -41 28 -43 41 -6 40 21
48 187 55 179 8 218 15 234 40 16 26 31 24 94 -12 48 -28 54 -29 44 -11 -28
53 7 72 130 72 43 0 80 4 83 9 4 5 -12 24 -34 41 -48 38 -50 50 -11 50 18 0
47 -13 75 -35 28 -21 57 -35 75 -35 16 0 72 23 125 50 169 89 216 96 182 29
-9 -18 -16 -34 -16 -36 0 -10 107 0 173 16 89 23 132 44 141 67 13 34 -10 38
-116 21 -57 -9 -113 -14 -125 -11 -24 7 -31 28 -13 39 6 3 10 13 10 21 0 11
-4 12 -19 4 -30 -16 -59 -12 -70 9 -13 23 -74 38 -196 47 -80 6 -88 5 -77 -9
7 -8 26 -20 42 -27 17 -7 30 -16 30 -21 0 -6 -90 -7 -218 -3 l-218 7 -22 -23
c-21 -23 -24 -23 -156 -16 -157 8 -191 -1 -228 -58 -25 -39 -38 -45 -38 -18 0
10 -5 23 -12 30 -17 17 -116 15 -217 -4 -70 -13 -126 -15 -296 -10 -244 7
-390 18 -401 29 -4 4 -3 28 4 53 7 25 9 50 6 56 -12 19 -316 -18 -426 -52 -61
-19 -108 -52 -108 -77 0 -10 21 -13 94 -11 110 3 129 -5 102 -47 -48 -73 -281
-157 -361 -131 -32 11 -75 -28 -75 -68 0 -50 -28 -119 -57 -140 -14 -11 -54
-29 -87 -40 l-61 -21 -3 -52 c-3 -45 1 -55 29 -87 40 -47 34 -66 -24 -66 -24
0 -59 -5 -77 -11 -30 -11 -32 -14 -27 -48 3 -20 9 -46 13 -58 5 -18 2 -23 -13
-23 -11 0 -28 7 -39 15 -32 24 -36 17 -13 -24 28 -50 88 -85 133 -77 39 7 61
-12 51 -44 -8 -26 -28 -36 -88 -44 -63 -10 -113 -54 -154 -139 -69 -141 -87
-317 -26 -256 6 6 21 9 34 7 38 -5 33 -49 -9 -68 -41 -19 -47 -40 -47 -170 0
-101 2 -108 37 -183 46 -95 134 -192 217 -236 32 -17 97 -40 145 -51 101 -23
138 -40 184 -84 42 -39 64 -80 72 -131 l5 -40 95 2 c59 1 150 13 240 31 80 17
148 28 153 25 14 -8 7 -43 -13 -63 -22 -22 -69 -27 -88 -8 -8 8 -14 4 -23 -16
-16 -35 -5 -45 58 -53 65 -7 188 19 481 103 338 97 462 152 462 205 0 17 4 19
23 12 12 -4 60 -8 107 -7 149 2 481 106 549 173 35 35 39 36 112 36 74 1 79 2
240 82 276 136 576 216 916 244 61 5 228 27 370 48 142 22 463 70 713 105 250
36 485 73 522 82 82 21 93 14 102 -57 7 -54 20 -58 30 -7 9 48 33 78 60 78 41
0 56 -11 78 -54 23 -45 18 21 58 -836 35 -751 94 -1482 184 -2280 70 -622 80
-769 136 -2005 83 -1864 88 -2076 100 -4210 10 -1701 20 -2263 42 -2276 9 -6
9 -17 0 -46 -20 -68 -32 -182 -42 -402 -18 -389 -30 -584 -45 -721 -24 -221
-43 -471 -70 -910 -14 -228 -34 -487 -46 -575 -11 -88 -24 -227 -29 -310 -21
-352 -68 -505 -210 -689 -19 -25 -28 -46 -24 -55 12 -28 4 -73 -18 -109 -11
-18 -21 -51 -22 -72 0 -34 5 -45 41 -79 48 -46 70 -100 54 -130 -22 -40 -14
-69 23 -82 19 -7 33 -16 30 -21 -3 -5 -31 -21 -62 -37 -129 -64 -174 -63 -146
5 17 40 13 42 -27 13 -71 -50 -58 -87 44 -134 78 -36 123 -75 114 -99 -8 -20
-28 -20 -89 -1 -68 20 -62 4 30 -85 143 -138 339 -215 460 -181 40 12 59 6 68
-21 6 -19 13 -20 98 -17 100 4 100 4 80 -59 -7 -24 -6 -24 23 -9 48 26 156 40
246 33 241 -19 270 -19 279 -1 8 13 20 15 77 9 67 -6 68 -6 75 19 19 78 215
150 496 182 217 25 325 56 397 111 50 38 63 72 63 162 0 49 5 83 13 91 18 18
13 122 -12 226 -12 50 -48 176 -81 280 -117 373 -237 894 -260 1130 -17 169
-28 219 -53 231 -11 5 -24 22 -28 37 -16 60 -29 254 -39 562 -9 272 -14 332
-31 400 -21 78 -22 102 -26 1100 -3 561 0 1317 6 1680 6 363 15 1054 21 1535
11 945 22 1283 42 1345 9 29 19 41 36 43 46 7 22 52 -45 86 -42 21 -42 46 -2
97 54 68 72 130 77 266 4 121 -2 193 -17 193 -4 0 -17 -18 -30 -40 -23 -41
-35 -48 -46 -29 -9 13 14 354 29 427 10 51 14 57 38 60 42 5 51 -30 44 -167
-4 -78 -3 -118 5 -127 17 -21 63 -17 85 7 18 20 19 41 20 333 0 304 5 371 27
363 20 -6 34 -93 41 -253 4 -87 14 -298 22 -468 18 -351 17 -448 -7 -472 -15
-14 -21 -14 -67 6 -78 34 -87 28 -87 -57 0 -56 4 -75 19 -92 25 -28 40 -27
114 10 35 17 65 29 66 27 8 -9 26 -301 32 -509 5 -174 4 -241 -5 -257 -7 -13
-16 -20 -21 -17 -16 10 -50 182 -60 306 -21 258 -53 361 -88 284 -17 -37 -15
-151 13 -690 13 -264 31 -649 40 -855 38 -918 45 -1052 70 -1345 8 -88 24
-297 35 -465 22 -326 39 -521 71 -800 11 -96 22 -251 25 -345 6 -203 19 -296
44 -325 31 -36 41 -110 34 -259 -8 -155 -1 -220 25 -253 l19 -23 16 55 c40
133 38 635 -4 792 -20 77 -17 116 9 133 19 11 12 155 -15 300 -37 203 -43 410
-15 575 47 285 77 771 51 821 -9 15 -22 19 -70 19 -50 0 -61 4 -74 22 -27 38
-20 43 46 40 49 -2 70 2 96 17 41 26 41 51 -2 98 -48 54 -55 72 -49 126 4 29
-1 69 -11 107 -21 73 -23 185 -4 207 10 13 14 103 16 432 6 705 -35 1370 -86
1407 -15 11 -15 16 -4 48 23 63 32 700 26 1791 -4 735 -3 1066 5 1155 31 331
24 472 -25 557 -13 23 -24 53 -24 66 0 14 20 54 45 91 25 36 43 66 41 66 -3 0
-24 -10 -46 -21 -50 -26 -61 -19 -31 22 12 16 27 53 33 82 6 31 13 419 17 982
8 1072 2 1004 96 1032 44 13 43 41 -5 104 -54 72 -58 91 -30 153 13 28 25 71
28 94 4 42 2 46 -49 93 l-54 50 51 -7 c68 -8 94 6 94 50 0 41 -12 52 -69 59
-65 8 -69 18 -31 79 43 68 44 113 6 197 -15 35 -29 78 -30 95 -1 29 1 31 39
34 48 4 65 17 65 47 0 18 -7 25 -29 30 -38 8 -53 27 -49 62 3 26 6 28 45 25
33 -3 44 1 52 17 15 28 13 134 -4 211 -17 76 -20 263 -5 291 6 11 21 19 35 19
34 0 32 10 -15 58 -45 48 -55 86 -47 177 7 70 23 112 46 119 9 3 117 15 241
26 124 11 455 48 735 81 948 111 1366 156 1735 184 216 17 385 17 385 0 0 -18
-87 -52 -198 -79 -60 -14 -133 -36 -163 -50 -59 -27 -67 -47 -38 -91 19 -29
12 -55 -13 -55 -23 0 -117 44 -150 70 -14 11 -37 20 -51 20 -23 0 -24 -2 -19
-42 4 -32 1 -48 -14 -70 -29 -40 -68 -38 -118 7 -21 19 -45 35 -54 35 -15 0
-87 -68 -87 -82 0 -12 -59 -40 -70 -33 -6 3 -10 12 -10 19 0 30 -54 39 -176
27 -64 -7 -125 -16 -135 -22 -24 -12 -39 -41 -39 -73 0 -30 -9 -56 -20 -56 -4
0 -31 16 -60 35 -49 33 -89 42 -124 29 -11 -4 -16 -19 -16 -50 0 -31 -6 -50
-20 -64 -38 -38 -109 -17 -97 30 12 47 -52 50 -204 10 -111 -29 -163 -54 -218
-105 -26 -25 -51 -45 -55 -45 -3 0 -4 11 0 25 5 22 1 27 -31 41 -33 14 -44 13
-118 -2 -157 -31 -203 -51 -258 -105 -40 -40 -57 -50 -75 -46 -28 5 -30 -8
-10 -58 28 -65 78 -70 290 -26 77 16 206 39 286 51 185 27 727 128 1270 235
234 46 526 102 650 125 124 22 281 51 350 65 69 13 190 31 270 40 80 9 174 22
210 30 59 12 185 24 405 40 44 3 222 12 395 20 318 16 543 36 609 56 71 21 76
30 76 128 0 73 3 93 19 110 17 19 46 29 46 16 0 -3 -7 -22 -15 -42 l-15 -36
21 19 c58 52 189 291 189 346 0 25 -11 41 -57 83 -55 52 -56 53 -44 83 7 17
38 50 68 73 105 82 117 118 53 169 -45 36 -44 50 3 50 l32 0 -55 51 c-30 27
-78 64 -107 80 -29 17 -79 50 -112 74 -86 64 -92 104 -14 105 92 0 111 49 33
87 -100 49 -444 77 -858 70 -324 -6 -383 -13 -409 -54 -16 -24 -19 -25 -97
-19 -45 3 -99 8 -120 12 -38 6 -39 6 -32 -17 19 -61 19 -79 -2 -79 -11 0 -37
6 -58 14 -31 10 -46 11 -73 1 -19 -6 -37 -17 -39 -23 -19 -59 -354 -118 -1309
-231 -1299 -155 -2000 -209 -2359 -183 -203 15 -255 30 -310 89 -32 35 -47 45
-63 40 -33 -8 -48 26 -55 128 -8 109 -22 165 -41 165 -39 0 -153 205 -181 325
-9 39 -33 122 -53 185 -42 133 -51 140 -127 95 -61 -36 -85 -28 -156 47 -52
57 -58 60 -90 54 -29 -5 -38 -2 -63 24 -16 17 -45 61 -65 98 -45 86 -59 88
-134 22z m5783 -1481 c43 -15 39 -34 -11 -48 -65 -18 -354 -27 -373 -11 -8 7
-13 16 -10 20 8 13 96 31 192 39 132 12 167 12 202 0z m-842 -569 c13 -19 13
-24 2 -31 -37 -23 -99 3 -99 43 0 10 10 22 23 27 25 9 49 -4 74 -39z m-182 24
c82 -54 -60 -141 -245 -151 -47 -2 -91 0 -99 5 -21 15 -6 41 34 58 29 12 43
12 73 3 52 -15 114 2 137 39 18 28 54 61 68 62 4 0 19 -7 32 -16z m-437 -106
c8 -8 8 -17 0 -32 -19 -38 -51 -56 -100 -56 -40 0 -48 3 -48 18 0 47 116 102
148 70z"/>
<path d="M21305 23484 c-16 -8 -41 -21 -55 -29 -17 -10 -54 -15 -112 -15 -97
0 -99 -2 -76 -67 17 -47 -2 -62 -89 -73 -41 -5 -118 -28 -189 -56 -88 -34
-138 -48 -190 -51 -94 -7 -103 7 -41 60 32 26 47 47 47 63 0 34 -18 30 -61
-16 -36 -38 -46 -61 -66 -155 -11 -53 -48 -73 -159 -85 -146 -17 -194 -31
-263 -78 -34 -24 -65 -41 -67 -39 -2 2 10 21 27 43 42 53 62 93 55 111 -14 36
-145 -19 -253 -106 -98 -78 -398 -278 -593 -394 -369 -220 -563 -367 -810
-616 -158 -159 -230 -244 -217 -257 9 -9 82 36 197 122 56 41 103 74 105 72 4
-5 -201 -268 -266 -341 -33 -37 -77 -76 -98 -86 -53 -28 -107 -90 -296 -341
-92 -124 -207 -274 -255 -335 -186 -234 -330 -455 -345 -527 -3 -18 -17 -32
-42 -45 -41 -19 -61 -52 -129 -213 -60 -142 -223 -430 -347 -613 -59 -87 -76
-132 -77 -209 0 -42 -5 -45 -30 -23 -23 21 -34 6 -54 -75 -9 -36 -33 -99 -54
-140 -45 -91 -211 -342 -257 -390 -22 -23 -35 -49 -40 -78 -4 -27 -27 -73 -61
-124 -46 -69 -54 -89 -54 -128 0 -62 -33 -177 -76 -263 -32 -63 -37 -82 -42
-169 -4 -85 -8 -101 -26 -113 -11 -8 -31 -15 -43 -15 -27 0 -27 0 -27 -105
l-1 -80 -33 -14 c-36 -17 -49 -48 -33 -80 15 -28 -21 -114 -59 -141 -31 -22
-46 -65 -30 -85 7 -9 4 -22 -13 -46 -47 -69 -168 -414 -227 -649 -30 -119 -73
-249 -134 -405 -42 -110 -154 -477 -206 -680 -22 -82 -57 -247 -79 -365 -22
-119 -52 -260 -67 -315 -40 -153 -46 -194 -42 -272 3 -70 2 -73 -19 -73 -41 0
-55 -39 -64 -183 -44 -675 -91 -1032 -138 -1062 -18 -11 -12 -43 9 -50 11 -4
27 -19 35 -35 23 -44 38 -175 30 -265 -9 -99 -25 -142 -57 -147 -19 -2 -23 -9
-23 -38 0 -29 4 -36 23 -38 46 -7 54 -48 63 -297 5 -131 15 -262 23 -305 9
-41 27 -176 41 -300 33 -296 51 -394 80 -455 20 -42 24 -71 29 -175 4 -83 16
-174 36 -270 64 -305 82 -452 58 -490 -17 -27 -5 -34 36 -19 31 11 38 11 52
-3 34 -34 38 -129 8 -238 l-7 -25 26 24 c25 23 28 23 51 8 39 -26 125 -227
141 -333 6 -36 4 -41 -19 -52 -21 -9 -26 -19 -26 -47 0 -30 5 -39 35 -56 40
-24 55 -64 80 -213 21 -120 40 -178 70 -206 27 -25 33 -69 15 -115 -15 -39 -4
-47 37 -30 43 18 50 14 35 -20 -31 -67 -13 -94 243 -360 373 -388 399 -413
441 -421 46 -8 56 -19 42 -50 -19 -42 -2 -72 55 -98 58 -26 93 -55 361 -311
188 -179 342 -342 378 -400 10 -16 18 -40 18 -52 0 -20 5 -23 39 -23 48 0 124
-48 192 -120 25 -27 58 -51 72 -54 15 -3 39 -9 55 -12 15 -3 48 -28 73 -55 49
-52 67 -62 49 -29 -22 42 11 18 77 -56 87 -97 135 -126 199 -122 l48 3 13 -44
c15 -53 74 -131 160 -211 72 -68 285 -231 292 -224 3 2 -5 18 -17 34 -12 17
-32 43 -44 60 -12 16 -19 33 -15 36 13 13 202 -144 212 -177 4 -12 2 -26 -4
-32 -19 -19 -12 -29 17 -23 32 8 162 -56 281 -138 103 -70 237 -199 251 -240
10 -31 14 -34 63 -38 54 -4 92 -27 203 -122 22 -20 85 -58 140 -84 55 -27 145
-78 199 -114 142 -91 216 -131 341 -182 208 -85 476 -156 921 -245 138 -28
274 -60 303 -71 79 -31 205 -22 205 15 0 28 -49 52 -145 69 -47 9 -143 27
-215 39 -124 23 -686 167 -885 227 -280 85 -933 511 -1213 792 -81 81 -136
128 -149 128 -59 0 -394 248 -440 326 -12 21 -29 34 -51 38 -74 15 -239 138
-405 304 -85 84 -102 126 -99 235 2 81 1 87 -26 114 -27 29 -51 86 -39 97 3 3
15 6 27 6 44 0 205 -194 180 -218 -3 -3 -22 0 -41 7 -31 11 -38 11 -51 -2 -13
-13 -13 -18 1 -44 17 -34 106 -118 172 -164 72 -49 151 -82 189 -77 38 4 45
-4 45 -54 0 -37 79 -119 190 -197 97 -68 132 -83 182 -75 38 7 39 6 33 -19
-13 -51 64 -145 214 -260 58 -45 136 -111 174 -146 67 -63 68 -64 113 -57 56
7 78 -4 104 -53 21 -41 36 -51 79 -51 35 0 61 -28 61 -66 0 -29 0 -29 63 -29
73 -1 128 -26 175 -80 34 -38 39 -54 20 -73 -17 -17 -3 -26 20 -13 49 26 127
4 307 -86 120 -60 220 -97 335 -124 110 -26 133 -41 125 -80 -7 -32 3 -37 34
-17 26 16 101 -5 171 -47 62 -38 232 -91 416 -130 67 -14 147 -34 179 -45 113
-39 301 -63 580 -75 167 -7 270 -27 321 -61 l37 -25 29 21 c45 33 156 52 313
53 158 1 217 -11 241 -48 19 -29 34 -24 34 9 0 42 18 47 142 40 l115 -7 6 24
c4 13 7 49 7 79 0 30 5 62 10 70 11 16 12 14 81 -67 15 -18 29 -23 65 -23 38
0 61 9 130 50 113 69 199 106 261 114 45 6 58 13 111 64 33 31 103 89 157 127
231 165 307 227 428 348 97 98 141 134 184 154 48 22 61 24 86 15 49 -18 67
-1 67 61 0 63 11 77 62 77 l38 0 -6 53 c-8 67 3 89 60 117 53 25 71 50 79 109
3 24 12 50 20 59 18 17 59 10 85 -16 16 -16 17 -14 17 38 1 60 7 72 91 185 72
97 148 232 278 495 143 287 211 448 231 547 9 43 27 94 40 113 33 48 62 115
80 189 9 34 27 85 40 114 30 64 63 252 72 397 3 58 0 184 -6 280 -11 160 -15
184 -52 292 -26 79 -39 134 -39 171 0 61 -18 89 -44 68 -11 -9 -20 -9 -34 -2
-29 15 -33 34 -20 95 19 95 -3 146 -63 146 -44 0 -90 41 -120 106 -33 73 -44
83 -53 48 -14 -53 -57 3 -88 115 -58 203 -68 282 -66 483 3 168 1 198 -15 233
-30 67 -54 85 -110 85 -109 0 -150 -63 -155 -240 -2 -63 1 -149 7 -190 5 -41
9 -76 7 -77 -2 -2 -29 49 -60 113 -81 164 -162 245 -182 182 -3 -12 -10 -59
-13 -105 -8 -100 -20 -115 -94 -123 l-52 -5 -35 -69 c-19 -39 -41 -72 -48 -74
-16 -5 -37 47 -52 128 -6 36 -20 93 -32 128 -17 53 -25 66 -54 79 -40 20 -51
12 -36 -22 19 -41 15 -52 -25 -72 -97 -47 -312 -480 -359 -721 -7 -39 -25 -94
-39 -121 -39 -77 -45 -119 -55 -386 -5 -137 -16 -288 -24 -335 -8 -47 -20
-143 -26 -215 -19 -219 -37 -282 -84 -298 -8 -3 -7 -12 2 -31 15 -34 7 -66
-18 -66 -28 0 -52 -47 -61 -125 -13 -102 -71 -308 -120 -423 -49 -116 -119
-318 -119 -345 0 -11 -33 -54 -74 -96 -41 -42 -83 -96 -94 -121 -33 -75 -513
-535 -535 -513 -4 3 -41 -18 -83 -47 -78 -53 -219 -109 -278 -111 l-31 0 32
-16 c44 -22 48 -40 17 -81 -48 -62 -147 -92 -336 -102 -4 0 -21 -13 -37 -29
-27 -26 -39 -30 -118 -36 -221 -19 -550 32 -853 131 -167 54 -258 100 -285
142 -15 24 -27 31 -51 32 -98 1 -395 139 -619 287 -171 114 -277 194 -490 373
-167 140 -216 176 -272 195 -40 14 -41 15 -69 85 -25 60 -275 315 -319 325
-58 12 -73 23 -80 57 -9 38 -51 91 -184 233 -179 190 -393 466 -517 665 -38
61 -94 139 -124 173 -163 184 -504 808 -739 1351 -228 527 -426 1045 -481
1261 -15 61 -57 205 -93 320 -36 116 -79 282 -96 370 -18 88 -54 257 -82 375
-28 118 -61 267 -74 330 -13 63 -42 202 -64 309 -138 659 -161 1200 -95 2166
39 570 97 886 240 1295 242 697 752 1633 1275 2340 169 229 508 629 640 755
235 224 629 533 951 746 153 101 227 139 273 139 27 0 35 4 35 18 0 26 26 47
100 81 137 61 247 84 292 60 17 -9 19 -8 14 9 -14 43 57 91 243 162 62 24 96
44 129 77 45 46 61 46 62 1 0 -58 215 -71 251 -16 13 20 94 29 324 37 257 8
285 14 285 56 0 14 6 25 13 25 24 0 120 -31 205 -67 56 -23 96 -33 120 -31
l37 3 -50 34 c-27 19 -52 36 -55 38 -2 2 2 8 10 13 38 24 158 2 250 -45 75
-39 125 -44 89 -8 -16 16 -7 57 13 61 25 5 58 -34 58 -68 0 -33 11 -38 31 -14
11 14 27 16 94 11 186 -12 727 -211 816 -299 27 -27 32 -29 61 -19 51 18 69
14 81 -20 11 -28 15 -31 48 -26 43 6 69 -7 69 -33 0 -24 31 -42 50 -30 22 14
46 -6 64 -54 25 -65 65 -96 127 -96 131 0 314 -130 537 -380 116 -130 288
-361 316 -424 27 -59 112 -144 202 -203 70 -45 108 -61 227 -98 48 -15 120
-44 160 -65 97 -49 132 -53 263 -31 130 22 202 48 275 99 90 63 119 128 119
270 0 93 24 195 60 258 55 98 46 135 -88 355 -38 63 -84 143 -102 179 -39 76
-83 190 -74 190 9 0 22 -17 129 -177 53 -78 116 -164 141 -192 43 -48 149
-119 161 -108 3 3 -9 25 -26 49 -29 42 -61 138 -61 186 0 39 -68 157 -124 214
-28 30 -73 90 -98 134 -69 117 -73 121 -119 129 -92 16 -250 219 -217 278 5
10 14 15 19 11 16 -10 59 -82 59 -100 0 -26 53 -70 94 -78 49 -9 76 12 76 61
0 57 -14 72 -60 66 -38 -5 -40 -4 -40 21 0 18 7 30 24 38 52 23 84 -18 95
-121 9 -89 28 -112 100 -119 63 -6 82 -24 55 -53 -27 -30 -28 -156 -1 -173 27
-18 66 11 101 76 30 55 31 57 14 86 -9 15 -29 98 -43 183 -57 343 -165 649
-246 696 -20 12 -31 28 -35 53 -3 19 -8 48 -11 64 -6 34 -123 160 -233 251
-69 57 -222 165 -234 165 -3 0 31 -55 74 -123 44 -68 80 -133 80 -144 0 -11
-18 -37 -39 -56 -87 -78 -144 -87 -215 -32 -45 34 -61 29 -31 -11 24 -32 19
-54 -13 -54 -28 0 -89 45 -243 179 -138 121 -237 173 -288 152 -18 -8 -35 -9
-52 -2 -33 13 -105 89 -119 126 -15 39 -38 167 -32 183 7 22 31 13 47 -18 16
-32 62 -50 126 -50 75 0 189 -81 189 -136 0 -40 33 -64 90 -64 28 0 50 4 50 9
0 5 -25 40 -55 78 -30 37 -74 108 -99 158 -109 216 -343 416 -576 490 -30 10
-131 49 -224 87 -688 284 -1060 373 -1761 423 -240 17 -473 47 -538 70 -50 18
-45 18 -82 -1z m2475 -856 c40 -89 13 -133 -37 -59 -25 37 -29 71 -11 89 20
20 28 14 48 -30z m214 -143 c34 -32 33 -52 -4 -60 -49 -11 -94 39 -64 69 21
22 37 20 68 -9z m-5267 -357 c-31 -45 -156 -168 -171 -168 -25 0 18 65 96 145
51 52 71 66 79 58 9 -9 8 -18 -4 -35z m2717 -1 c17 -12 17 -18 7 -50 -29 -87
-121 -90 -121 -3 0 29 42 66 74 66 12 0 30 -6 40 -13z m-536 -244 c4 -28 -42
-39 -74 -18 -28 18 -32 60 -6 74 21 12 75 -26 80 -56z m-190 -19 c23 -16 23
-17 5 -36 -27 -30 -113 -71 -262 -123 -208 -73 -311 -126 -311 -162 0 -13 -12
-15 -75 -11 -67 4 -75 3 -75 -13 0 -10 5 -21 10 -24 14 -9 12 -45 -2 -45 -7 0
-34 7 -60 15 -52 15 -65 9 -43 -21 8 -10 15 -25 15 -31 0 -16 -34 -17 -61 -2
-29 15 -79 2 -79 -21 0 -10 -8 -28 -18 -40 -17 -21 -19 -21 -56 -6 -21 9 -45
16 -52 16 -17 0 -18 -35 -3 -79 6 -18 9 -34 7 -37 -3 -2 -29 14 -59 36 -29 22
-57 40 -61 40 -4 0 -4 -22 -1 -50 5 -42 2 -55 -20 -88 -48 -73 -293 -222 -365
-222 -28 0 -35 -5 -47 -34 -8 -19 -30 -43 -48 -55 -37 -23 -133 -48 -144 -38
-3 4 21 33 55 65 60 55 62 59 62 107 0 85 15 118 79 177 66 61 187 136 274
169 33 12 81 42 108 67 l49 44 78 -6 c83 -7 91 -4 109 34 25 56 204 136 285
127 56 -7 68 6 68 72 0 48 15 91 32 91 7 0 35 -16 62 -35 27 -19 53 -32 57
-29 5 3 9 21 9 39 l0 35 45 -6 c38 -6 51 -2 92 24 43 27 108 53 168 65 53 12
151 6 173 -9z m4639 -435 c6 -6 9 -28 6 -48 l-5 -38 42 -6 c24 -3 51 -14 61
-24 16 -15 17 -24 8 -56 -21 -77 -84 -68 -153 22 -71 92 -83 130 -48 150 23
14 75 14 89 0z m-6362 -370 c6 -17 -15 -43 -109 -139 -114 -116 -136 -150 -97
-150 67 0 15 -67 -192 -253 -217 -194 -255 -224 -296 -238 -29 -10 -36 -9 -54
9 -17 18 -18 23 -7 36 7 9 25 16 41 16 35 0 69 31 69 64 0 37 35 72 85 85 81
20 155 106 155 179 0 29 1 29 48 24 37 -3 52 0 66 13 27 28 12 47 -46 60 -16
3 -28 9 -28 14 0 49 285 301 341 301 10 0 21 -9 24 -21z m-3501 -5387 c41 -50
46 -75 15 -70 -30 4 -58 45 -66 93 -6 45 -5 44 51 -23z m-40 -214 c4 -13 9
-68 12 -123 5 -97 -2 -135 -24 -121 -15 9 -32 97 -32 161 0 85 28 137 44 83z
m-89 -338 c35 -36 39 -45 40 -92 0 -31 -5 -53 -12 -55 -15 -6 -80 82 -92 125
-11 37 -5 62 13 62 7 0 30 -18 51 -40z m4 -319 c11 -11 24 -37 30 -58 36 -141
37 -183 4 -183 -9 0 -38 14 -64 31 -53 34 -69 32 -69 -9 0 -54 20 -100 56
-127 43 -33 57 -66 44 -100 -13 -35 -70 -35 -98 0 -45 57 -54 267 -17 365 17
43 65 100 85 100 6 0 19 -9 29 -19z m-123 -542 c17 -18 19 -38 19 -177 0 -153
1 -158 28 -203 19 -32 27 -60 27 -91 0 -55 -21 -77 -80 -85 -50 -7 -70 -32
-70 -89 0 -38 5 -47 51 -88 75 -68 189 -230 189 -271 0 -34 -75 -4 -110 46
-31 43 -52 113 -37 128 8 8 7 11 -4 11 -9 0 -26 -11 -38 -24 -17 -18 -21 -33
-20 -65 3 -35 -2 -47 -29 -73 -23 -24 -35 -29 -43 -21 -21 21 -21 129 0 373
12 135 26 320 31 411 9 163 19 216 43 231 18 11 22 10 43 -13z m114 -125 c0
-93 -12 -124 -24 -63 -8 40 -8 117 0 146 13 47 24 8 24 -83z m-150 -979 c15
-18 8 -88 -10 -110 -32 -38 -98 1 -86 50 8 31 49 75 69 75 8 0 20 -7 27 -15z
m55 -191 c17 -7 50 -62 42 -71 -3 -2 -15 0 -27 7 -30 16 -60 3 -72 -31 -10
-29 -31 -38 -43 -19 -13 21 15 90 43 104 31 18 35 18 57 10z m95 -169 c0 -23
-35 -87 -56 -106 -29 -25 -80 -41 -104 -34 -26 8 -41 46 -34 83 5 26 9 28 58
28 38 -1 59 5 81 21 35 26 55 29 55 8z m58 -160 c6 -89 -20 -132 -32 -54 -8
50 2 111 18 106 6 -2 12 -25 14 -52z m-182 -73 c22 -14 34 -52 34 -104 0 -93
-20 -126 -41 -70 -44 116 -41 206 7 174z m67 -426 c23 -18 24 -86 0 -86 -23 0
-133 72 -133 88 0 17 109 16 133 -2z m2 -230 c8 -18 23 -66 33 -105 11 -39 32
-89 47 -111 27 -39 27 -41 9 -61 -58 -64 -115 33 -122 209 -5 110 6 132 33 68z
m264 -520 c13 -15 7 -71 -10 -97 -8 -12 -10 -12 -19 1 -17 27 -10 110 10 110
4 0 13 -6 19 -14z m15 -192 c14 -13 14 -19 1 -43 -19 -38 -72 -82 -90 -75 -8
3 -21 28 -30 55 -13 39 -14 53 -5 64 17 21 104 20 124 -1z m64 -177 c33 -35
63 -132 56 -179 -7 -43 -38 -88 -60 -88 -17 0 -19 16 -3 26 16 9 5 113 -19
189 -26 79 -16 97 26 52z m212 -685 c29 -36 25 -40 -25 -35 -40 5 -45 3 -56
-21 -22 -47 -52 -27 -42 28 7 32 55 66 84 59 11 -3 28 -17 39 -31z m152 -354
c34 -29 44 -67 24 -93 -18 -25 -35 -12 -45 37 -7 35 -19 38 -70 22 -22 -7 -23
-6 -11 17 33 63 44 65 102 17z m186 -406 c4 -44 -13 -64 -52 -60 -26 2 -31 7
-29 26 8 70 75 98 81 34z m87 -176 c59 -25 74 -96 21 -96 -33 0 -86 46 -86 74
0 40 12 44 65 22z m166 3 c50 -26 140 -211 120 -246 -22 -41 -135 120 -147
211 -7 49 -4 52 27 35z m219 -330 c19 -10 47 -29 61 -41 42 -36 129 -157 129
-179 0 -23 -1 -23 -47 -4 -62 26 -67 19 -60 -100 6 -115 5 -118 -48 -85 -45
28 -59 67 -52 147 6 59 5 65 -11 60 -56 -18 -62 -19 -62 -7 0 6 13 24 28 40
25 25 34 28 70 23 35 -5 42 -3 42 11 0 21 -57 56 -92 56 -31 0 -68 31 -68 57
0 9 8 25 17 35 18 20 35 18 93 -13z m-659 -136 c56 -58 89 -101 89 -115 0 -17
-31 -6 -55 20 -28 28 -105 137 -105 146 0 16 21 1 71 -51z m946 -414 c80 -38
123 -74 123 -104 0 -29 -22 -47 -52 -43 -17 2 -24 11 -26 33 -5 44 -14 50
-118 91 -52 20 -97 40 -100 45 -9 16 39 27 76 17 19 -6 63 -23 97 -39z m169
-360 c-1 -46 4 -50 73 -69 58 -15 37 -30 -42 -30 -53 0 -62 3 -88 32 -17 17
-29 38 -27 47 3 14 62 61 78 61 4 0 6 -19 6 -41z m193 -163 c15 -17 5 -40 -32
-75 -31 -28 -47 -21 -47 24 0 50 52 83 79 51z m130 -601 c37 -73 58 -90 107
-82 19 3 34 4 34 1 0 -3 -9 -23 -20 -44 -27 -52 -47 -51 -99 6 -47 51 -80 115
-81 157 0 46 25 30 59 -38z m285 -189 c44 -18 52 -33 31 -56 -24 -27 -61 -33
-95 -15 -44 23 -55 50 -28 69 28 20 49 20 92 2z m556 -691 c16 -20 6 -43 -25
-57 -23 -10 -29 -9 -51 14 -24 23 -24 26 -9 42 20 20 68 21 85 1z m5044 -1224
c22 -24 18 -75 -6 -79 -25 -5 -58 34 -58 68 0 25 4 30 23 30 13 0 32 -9 41
-19z"/>
<path d="M5737 22593 c-16 -15 -5 -23 32 -23 46 0 73 9 65 21 -6 10 -87 12
-97 2z"/>
<path d="M5488 22543 c-32 -8 -19 -23 21 -23 46 0 73 9 65 21 -5 9 -55 10 -86
2z"/>
<path d="M5655 22464 c-105 -53 -155 -84 -155 -94 0 -18 70 -11 111 11 64 32
153 120 122 119 -5 -1 -39 -17 -78 -36z"/>
<path d="M5810 22485 c-27 -32 19 -82 66 -71 31 8 30 21 -5 57 -33 33 -43 35
-61 14z"/>
<path d="M5350 22394 c-47 -20 -102 -63 -95 -75 4 -5 30 -9 59 -9 97 0 142 31
116 80 -13 24 -32 25 -80 4z"/>
<path d="M5056 22357 c-48 -31 -54 -32 -180 -37 -121 -5 -131 -7 -134 -25 -6
-32 -22 -45 -68 -56 -24 -6 -44 -15 -44 -20 0 -23 297 11 445 50 69 18 70 19
43 32 -30 13 -39 54 -16 77 18 18 8 13 -46 -21z"/>
<path d="M8902 14247 c-6 -7 -13 -49 -14 -93 -2 -89 14 -147 41 -142 25 5 37
118 20 187 -15 57 -28 71 -47 48z"/>
</g>
</svg>
