<svg id="svg" version="1.1" xmlns="http://www.w3.org/2000/svg" xmlns:xlink="http://www.w3.org/1999/xlink" width="400" height="400" viewBox="0, 0, 400,400"><g id="svgg"><path id="path0" d="M124.520 35.926 C 115.864 38.994,116.562 36.350,107.183 101.600 C 95.123 185.493,89.623 222.798,82.988 265.708 C 77.211 303.068,76.740 302.051,107.936 319.577 C 124.720 329.006,156.703 345.668,182.980 358.672 L 194.959 364.600 198.380 364.600 L 201.800 364.600 217.400 356.439 C 274.951 326.330,310.334 305.898,316.551 299.184 C 321.554 293.780,321.549 293.602,315.389 258.199 C 309.359 223.535,302.135 181.461,295.611 143.000 C 290.024 110.066,289.999 109.964,286.657 106.467 C 281.978 101.572,274.642 100.699,268.420 104.298 C 266.702 105.291,255.927 115.362,242.578 128.449 C 236.155 134.746,234.615 135.809,233.387 134.789 C 232.688 134.209,232.984 134.833,220.773 108.200 L 211.420 87.800 208.591 84.936 C 203.844 80.129,197.713 79.059,191.749 81.995 C 187.901 83.890,186.396 85.905,180.582 96.946 C 177.732 102.359,175.310 106.789,175.200 106.791 C 174.949 106.796,173.976 104.902,156.364 70.115 C 140.597 38.973,140.399 38.648,135.751 36.361 C 133.103 35.057,127.575 34.844,124.520 35.926 M131.881 47.001 C 132.353 47.332,134.704 51.427,137.105 56.101 C 139.506 60.776,147.575 76.300,155.035 90.600 L 168.600 116.600 168.600 119.209 C 168.600 121.771,168.530 121.941,164.745 128.609 C 155.180 145.460,148.046 159.149,128.272 198.600 C 120.663 213.780,112.175 230.430,109.410 235.600 C 106.645 240.770,104.271 245.450,104.135 246.000 C 103.669 247.884,102.713 249.402,100.671 251.500 C 97.401 254.860,97.392 254.806,99.617 244.957 C 100.898 239.285,102.103 231.079,105.425 205.400 C 115.516 127.413,117.387 113.361,123.011 73.325 C 124.655 61.623,126.000 51.305,126.000 50.394 C 126.000 47.271,129.436 45.289,131.881 47.001 M201.047 90.249 C 203.073 91.210,203.349 91.720,211.131 108.837 C 215.073 117.507,219.969 128.200,222.012 132.600 C 227.726 144.910,227.863 144.247,217.647 153.751 C 202.072 168.241,197.848 172.499,158.773 213.100 C 136.701 236.035,118.400 254.800,118.104 254.800 C 117.487 254.800,115.200 253.193,115.200 252.760 C 115.200 252.601,128.993 224.600,145.852 190.535 C 181.064 119.386,178.763 124.131,185.405 109.000 C 191.861 94.295,192.882 92.281,194.492 91.068 C 196.582 89.492,198.854 89.208,201.047 90.249 M278.132 111.346 C 281.907 112.923,281.690 112.064,287.982 150.400 C 290.852 167.890,297.080 205.750,301.822 234.532 C 311.724 294.640,311.249 289.672,307.454 293.439 C 302.083 298.770,264.167 319.873,216.344 344.148 C 197.029 353.953,198.647 353.562,191.909 350.048 C 189.429 348.755,180.200 343.962,171.400 339.397 C 135.856 320.958,116.916 310.444,99.865 299.686 C 95.371 296.851,91.600 292.822,91.600 290.858 C 91.600 290.674,110.635 272.347,133.900 250.131 C 229.510 158.832,235.546 152.906,253.421 132.800 C 274.417 109.183,273.943 109.595,278.132 111.346 " stroke="none" fill="#040404" fill-rule="evenodd"></path><path id="path1" d="M127.997 47.922 C 127.254 48.523,127.048 49.243,126.766 52.222 C 126.579 54.190,124.979 66.060,123.210 78.600 C 119.122 107.570,115.396 135.500,108.615 188.000 C 105.645 210.990,102.819 232.809,102.335 236.488 C 101.474 243.020,101.471 243.195,102.200 244.000 C 102.807 244.670,103.042 244.729,103.457 244.312 C 104.525 243.239,114.981 223.104,129.271 194.600 C 148.539 156.166,155.235 143.335,164.281 127.518 C 169.469 118.445,170.827 122.982,152.275 87.400 C 144.131 71.780,136.224 56.524,134.705 53.499 C 131.470 47.056,130.284 46.070,127.997 47.922 M197.165 90.782 C 194.058 91.724,193.858 92.066,185.951 110.000 C 179.620 124.359,179.572 124.548,181.006 129.479 C 181.717 131.926,199.809 168.400,200.312 168.400 C 200.482 168.400,204.487 164.773,209.211 160.341 C 213.935 155.908,219.114 151.099,220.720 149.655 C 226.026 144.883,226.193 143.949,222.984 137.000 C 221.765 134.360,216.879 123.650,212.127 113.200 C 203.046 93.231,202.305 91.854,200.160 90.958 C 198.682 90.340,198.634 90.337,197.165 90.782 " stroke="none" fill="#f3ab34" fill-rule="evenodd"></path><path id="path2" d="M148.111 187.705 L 116.022 252.600 116.911 253.291 C 117.400 253.671,117.902 253.986,118.027 253.991 C 118.152 253.996,135.792 235.787,157.227 213.527 C 178.662 191.266,197.819 171.421,199.797 169.427 C 201.776 167.432,202.757 166.385,201.978 167.100 C 201.199 167.815,200.436 168.400,200.282 168.400 C 199.800 168.400,181.691 131.835,181.006 129.479 C 180.648 128.249,180.321 126.243,180.278 125.022 C 180.235 123.801,180.200 122.803,180.200 122.806 C 180.200 122.808,165.760 152.013,148.111 187.705 M214.778 155.100 L 213.400 156.600 214.900 155.222 C 216.296 153.938,216.584 153.600,216.278 153.600 C 216.212 153.600,215.537 154.275,214.778 155.100 M208.181 161.300 L 206.600 163.000 208.300 161.419 C 209.881 159.948,210.184 159.600,209.881 159.600 C 209.816 159.600,209.051 160.365,208.181 161.300 M100.433 245.655 C 99.902 248.155,99.394 250.560,99.305 251.000 C 99.002 252.496,102.375 248.379,102.869 246.650 C 103.128 245.742,103.534 244.730,103.770 244.400 C 104.133 243.894,104.100 243.878,103.561 244.299 C 102.737 244.941,101.728 243.923,101.533 242.255 C 101.449 241.530,101.045 242.778,100.433 245.655 " stroke="none" fill="#eb8b33" fill-rule="evenodd"></path><path id="path3" d="M274.043 112.211 C 272.395 112.938,272.899 112.405,257.233 129.959 C 250.242 137.791,241.930 146.904,238.762 150.208 C 228.690 160.712,201.178 187.258,130.200 254.957 C 109.960 274.262,93.233 290.295,93.029 290.587 C 90.367 294.379,113.404 308.274,177.000 341.234 C 193.545 349.809,196.864 351.393,198.295 351.396 C 203.234 351.407,296.930 301.137,306.177 293.515 C 310.214 290.187,310.382 292.402,302.426 244.114 C 298.700 221.501,292.478 183.650,288.600 160.000 C 283.169 126.879,281.348 116.588,280.675 115.207 C 279.321 112.430,276.469 111.142,274.043 112.211 " stroke="none" fill="#fbc343" fill-rule="evenodd"></path><path id="path4" d="M270.975 113.700 L 269.800 115.000 271.100 113.825 C 271.815 113.179,272.400 112.594,272.400 112.525 C 272.400 112.216,272.070 112.488,270.975 113.700 M267.375 117.700 L 266.200 119.000 267.500 117.825 C 268.215 117.179,268.800 116.594,268.800 116.525 C 268.800 116.216,268.470 116.488,267.375 117.700 M263.775 121.700 L 262.600 123.000 263.900 121.825 C 264.615 121.179,265.200 120.594,265.200 120.525 C 265.200 120.216,264.870 120.488,263.775 121.700 M171.683 139.021 C 170.537 141.325,169.609 143.342,169.621 143.505 C 169.632 143.667,170.633 141.846,171.845 139.458 C 173.057 137.070,173.986 135.052,173.908 134.974 C 173.830 134.896,172.829 136.718,171.683 139.021 M247.178 140.300 L 245.800 141.800 247.300 140.422 C 248.696 139.138,248.984 138.800,248.678 138.800 C 248.612 138.800,247.937 139.475,247.178 140.300 M242.981 144.900 L 241.400 146.600 243.100 145.019 C 244.681 143.548,244.984 143.200,244.681 143.200 C 244.616 143.200,243.851 143.965,242.981 144.900 M222.975 148.100 L 221.800 149.400 223.100 148.225 C 223.815 147.579,224.400 146.994,224.400 146.925 C 224.400 146.616,224.070 146.888,222.975 148.100 M236.191 152.100 L 233.000 155.400 236.300 152.209 C 238.115 150.455,239.600 148.970,239.600 148.909 C 239.600 148.618,239.154 149.035,236.191 152.100 M218.181 152.500 L 216.600 154.200 218.300 152.619 C 219.881 151.148,220.184 150.800,219.881 150.800 C 219.816 150.800,219.051 151.565,218.181 152.500 M212.386 157.900 L 210.200 160.200 212.500 158.014 C 213.765 156.811,214.800 155.776,214.800 155.714 C 214.800 155.417,214.418 155.763,212.386 157.900 M227.592 160.700 L 223.800 164.600 227.700 160.808 C 229.845 158.722,231.600 156.967,231.600 156.908 C 231.600 156.618,231.114 157.078,227.592 160.700 M205.787 164.100 L 203.400 166.600 205.900 164.213 C 207.275 162.899,208.400 161.774,208.400 161.713 C 208.400 161.417,208.005 161.778,205.787 164.100 M198.000 171.400 C 196.361 173.050,195.110 174.400,195.220 174.400 C 195.330 174.400,196.761 173.050,198.400 171.400 C 200.039 169.750,201.290 168.400,201.180 168.400 C 201.070 168.400,199.639 169.750,198.000 171.400 M214.991 172.900 L 211.800 176.200 215.100 173.009 C 218.165 170.046,218.582 169.600,218.291 169.600 C 218.230 169.600,216.745 171.085,214.991 172.900 M153.084 176.621 C 151.828 179.144,150.809 181.342,150.821 181.504 C 150.832 181.667,151.923 179.666,153.245 177.058 C 154.567 174.450,155.585 172.252,155.508 172.175 C 155.430 172.097,154.339 174.098,153.084 176.621 M188.592 181.300 L 184.600 185.400 188.700 181.408 C 190.955 179.212,192.800 177.367,192.800 177.308 C 192.800 177.018,192.301 177.492,188.592 181.300 M203.600 183.800 C 201.961 185.450,200.710 186.800,200.820 186.800 C 200.930 186.800,202.361 185.450,204.000 183.800 C 205.639 182.150,206.890 180.800,206.780 180.800 C 206.670 180.800,205.239 182.150,203.600 183.800 M177.992 192.300 L 174.200 196.200 178.100 192.408 C 181.722 188.886,182.182 188.400,181.892 188.400 C 181.833 188.400,180.078 190.155,177.992 192.300 M192.989 194.100 L 190.200 197.000 193.100 194.211 C 195.794 191.620,196.183 191.200,195.889 191.200 C 195.828 191.200,194.523 192.505,192.989 194.100 M167.392 203.300 L 163.400 207.400 167.500 203.408 C 171.308 199.699,171.782 199.200,171.492 199.200 C 171.433 199.200,169.588 201.045,167.392 203.300 M182.989 203.700 L 180.200 206.600 183.100 203.811 C 185.794 201.220,186.183 200.800,185.889 200.800 C 185.828 200.800,184.523 202.105,182.989 203.700 M134.684 213.821 C 133.428 216.344,132.409 218.542,132.421 218.704 C 132.432 218.867,133.523 216.866,134.845 214.258 C 136.167 211.650,137.185 209.452,137.108 209.375 C 137.030 209.297,135.939 211.298,134.684 213.821 M156.992 214.100 L 153.000 218.200 157.100 214.208 C 159.355 212.012,161.200 210.167,161.200 210.108 C 161.200 209.818,160.701 210.292,156.992 214.100 M173.188 213.100 L 170.600 215.800 173.300 213.212 C 174.785 211.788,176.000 210.573,176.000 210.512 C 176.000 210.217,175.593 210.592,173.188 213.100 M163.988 221.900 L 161.400 224.600 164.100 222.012 C 166.608 219.607,166.983 219.200,166.688 219.200 C 166.627 219.200,165.412 220.415,163.988 221.900 M146.592 224.900 L 142.600 229.000 146.700 225.008 C 148.955 222.812,150.800 220.967,150.800 220.908 C 150.800 220.618,150.301 221.092,146.592 224.900 M154.987 230.500 L 152.600 233.000 155.100 230.613 C 156.475 229.299,157.600 228.174,157.600 228.113 C 157.600 227.817,157.205 228.178,154.987 230.500 M135.992 235.900 L 132.200 239.800 136.100 236.008 C 138.245 233.922,140.000 232.167,140.000 232.108 C 140.000 231.818,139.514 232.278,135.992 235.900 M146.187 238.900 L 143.800 241.400 146.300 239.013 C 148.622 236.795,148.983 236.400,148.687 236.400 C 148.626 236.400,147.501 237.525,146.187 238.900 M125.392 246.900 L 121.400 251.000 125.500 247.008 C 127.755 244.812,129.600 242.967,129.600 242.908 C 129.600 242.618,129.101 243.092,125.392 246.900 M137.188 247.500 L 134.600 250.200 137.300 247.612 C 138.785 246.188,140.000 244.973,140.000 244.912 C 140.000 244.617,139.593 244.992,137.188 247.500 M117.078 249.420 C 115.609 252.414,115.745 252.769,117.246 249.860 C 117.910 248.573,118.386 247.453,118.304 247.371 C 118.223 247.289,117.671 248.211,117.078 249.420 M100.388 251.012 C 99.188 252.251,98.984 252.337,98.738 251.712 C 98.499 251.108,98.452 251.137,98.428 251.900 C 98.389 253.167,98.812 253.031,100.600 251.200 C 101.459 250.320,102.071 249.600,101.960 249.600 C 101.848 249.600,101.141 250.236,100.388 251.012 M128.587 255.700 L 126.200 258.200 128.700 255.813 C 131.022 253.595,131.383 253.200,131.087 253.200 C 131.026 253.200,129.901 254.325,128.587 255.700 M119.787 264.100 L 117.400 266.600 119.900 264.213 C 122.222 261.995,122.583 261.600,122.287 261.600 C 122.226 261.600,121.101 262.725,119.787 264.100 M110.788 272.700 L 108.200 275.400 110.900 272.812 C 113.408 270.407,113.783 270.000,113.488 270.000 C 113.427 270.000,112.212 271.215,110.788 272.700 M101.787 281.300 L 99.400 283.800 101.900 281.413 C 103.275 280.099,104.400 278.974,104.400 278.913 C 104.400 278.617,104.005 278.978,101.787 281.300 M309.709 286.800 C 309.709 287.790,309.787 288.195,309.882 287.700 C 309.978 287.205,309.978 286.395,309.882 285.900 C 309.787 285.405,309.709 285.810,309.709 286.800 M93.637 288.962 C 92.676 289.941,92.003 290.963,92.122 291.262 C 92.291 291.684,92.344 291.674,92.368 291.215 C 92.386 290.893,93.157 289.858,94.083 288.915 C 95.009 287.972,95.677 287.200,95.567 287.200 C 95.457 287.200,94.588 287.993,93.637 288.962 " stroke="none" fill="#977126" fill-rule="evenodd"></path><path id="path5" d="M219.375 168.500 L 218.200 169.800 219.500 168.625 C 220.215 167.979,220.800 167.394,220.800 167.325 C 220.800 167.016,220.470 167.288,219.375 168.500 M195.389 174.500 L 192.600 177.400 195.500 174.611 C 198.194 172.020,198.583 171.600,198.289 171.600 C 198.228 171.600,196.923 172.905,195.389 174.500 M184.589 185.700 L 181.800 188.600 184.700 185.811 C 187.394 183.220,187.783 182.800,187.489 182.800 C 187.428 182.800,186.123 184.105,184.589 185.700 M174.189 196.500 L 171.400 199.400 174.300 196.611 C 175.895 195.077,177.200 193.772,177.200 193.711 C 177.200 193.417,176.780 193.806,174.189 196.500 M163.789 207.300 L 161.000 210.200 163.900 207.411 C 166.594 204.820,166.983 204.400,166.689 204.400 C 166.628 204.400,165.323 205.705,163.789 207.300 M153.389 218.100 L 150.600 221.000 153.500 218.211 C 156.194 215.620,156.583 215.200,156.289 215.200 C 156.228 215.200,154.923 216.505,153.389 218.100 M142.589 229.300 L 139.800 232.200 142.700 229.411 C 145.394 226.820,145.783 226.400,145.489 226.400 C 145.428 226.400,144.123 227.705,142.589 229.300 M132.189 240.100 L 129.400 243.000 132.300 240.211 C 134.994 237.620,135.383 237.200,135.089 237.200 C 135.028 237.200,133.723 238.505,132.189 240.100 M121.789 250.900 L 119.000 253.800 121.900 251.011 C 124.594 248.420,124.983 248.000,124.689 248.000 C 124.628 248.000,123.323 249.305,121.789 250.900 " stroke="none" fill="#87551c" fill-rule="evenodd"></path><path id="path6" d="M126.520 51.600 C 126.520 52.810,126.595 53.305,126.687 52.700 C 126.778 52.095,126.778 51.105,126.687 50.500 C 126.595 49.895,126.520 50.390,126.520 51.600 M136.000 56.000 C 136.449 56.880,136.906 57.600,137.016 57.600 C 137.126 57.600,136.849 56.880,136.400 56.000 C 135.951 55.120,135.494 54.400,135.384 54.400 C 135.274 54.400,135.551 55.120,136.000 56.000 M140.400 64.400 C 140.849 65.280,141.306 66.000,141.416 66.000 C 141.526 66.000,141.249 65.280,140.800 64.400 C 140.351 63.520,139.894 62.800,139.784 62.800 C 139.674 62.800,139.951 63.520,140.400 64.400 M145.200 73.600 C 145.649 74.480,146.106 75.200,146.216 75.200 C 146.326 75.200,146.049 74.480,145.600 73.600 C 145.151 72.720,144.694 72.000,144.584 72.000 C 144.474 72.000,144.751 72.720,145.200 73.600 M150.400 83.600 C 150.849 84.480,151.306 85.200,151.416 85.200 C 151.526 85.200,151.249 84.480,150.800 83.600 C 150.351 82.720,149.894 82.000,149.784 82.000 C 149.674 82.000,149.951 82.720,150.400 83.600 M194.129 92.100 C 193.684 92.595,193.176 93.270,193.001 93.600 C 192.663 94.237,192.755 94.150,194.376 92.300 C 194.906 91.695,195.249 91.200,195.139 91.200 C 195.029 91.200,194.575 91.605,194.129 92.100 M202.932 93.349 C 203.629 94.536,204.267 95.446,204.349 95.371 C 204.544 95.194,202.497 91.707,202.027 91.417 C 201.827 91.293,202.234 92.163,202.932 93.349 M155.800 94.000 C 156.357 95.100,156.903 96.000,157.013 96.000 C 157.123 96.000,156.757 95.100,156.200 94.000 C 155.643 92.900,155.097 92.000,154.987 92.000 C 154.877 92.000,155.243 92.900,155.800 94.000 M160.600 103.200 C 161.157 104.300,161.703 105.200,161.813 105.200 C 161.923 105.200,161.557 104.300,161.000 103.200 C 160.443 102.100,159.897 101.200,159.787 101.200 C 159.677 101.200,160.043 102.100,160.600 103.200 M165.200 112.000 C 165.649 112.880,166.106 113.600,166.216 113.600 C 166.326 113.600,166.049 112.880,165.600 112.000 C 165.151 111.120,164.694 110.400,164.584 110.400 C 164.474 110.400,164.751 111.120,165.200 112.000 M270.585 114.500 L 268.600 116.600 270.700 114.615 C 272.651 112.771,272.983 112.400,272.685 112.400 C 272.622 112.400,271.677 113.345,270.585 114.500 M182.065 117.817 C 181.395 119.288,181.523 119.602,182.247 118.265 C 182.586 117.640,182.788 117.054,182.696 116.963 C 182.605 116.871,182.321 117.256,182.065 117.817 M266.378 119.100 L 265.000 120.600 266.500 119.222 C 267.896 117.938,268.184 117.600,267.878 117.600 C 267.812 117.600,267.137 118.275,266.378 119.100 M168.093 119.200 C 168.093 119.970,168.175 120.285,168.276 119.900 C 168.376 119.515,168.376 118.885,168.276 118.500 C 168.175 118.115,168.093 118.430,168.093 119.200 M262.575 123.300 L 261.400 124.600 262.700 123.425 C 263.415 122.779,264.000 122.194,264.000 122.125 C 264.000 121.816,263.670 122.088,262.575 123.300 M217.628 125.000 C 217.628 125.220,217.886 125.850,218.200 126.400 C 218.514 126.950,218.772 127.220,218.772 127.000 C 218.772 126.780,218.514 126.150,218.200 125.600 C 217.886 125.050,217.628 124.780,217.628 125.000 M259.375 126.900 L 258.200 128.200 259.500 127.025 C 260.215 126.379,260.800 125.794,260.800 125.725 C 260.800 125.416,260.470 125.688,259.375 126.900 M256.175 130.500 L 255.000 131.800 256.300 130.625 C 257.015 129.979,257.600 129.394,257.600 129.325 C 257.600 129.016,257.270 129.288,256.175 130.500 M220.028 130.200 C 220.028 130.420,220.286 131.050,220.600 131.600 C 220.914 132.150,221.172 132.420,221.172 132.200 C 221.172 131.980,220.914 131.350,220.600 130.800 C 220.286 130.250,220.028 129.980,220.028 130.200 M252.975 134.100 L 251.800 135.400 253.100 134.225 C 253.815 133.579,254.400 132.994,254.400 132.925 C 254.400 132.616,254.070 132.888,252.975 134.100 M159.800 135.600 C 159.459 136.260,159.269 136.800,159.379 136.800 C 159.489 136.800,159.859 136.260,160.200 135.600 C 160.541 134.940,160.731 134.400,160.621 134.400 C 160.511 134.400,160.141 134.940,159.800 135.600 M222.434 135.400 C 222.434 135.620,222.778 136.430,223.200 137.200 C 223.622 137.970,223.966 138.420,223.966 138.200 C 223.966 137.980,223.622 137.170,223.200 136.400 C 222.778 135.630,222.434 135.180,222.434 135.400 M249.775 137.700 L 248.600 139.000 249.900 137.825 C 250.615 137.179,251.200 136.594,251.200 136.525 C 251.200 136.216,250.870 136.488,249.775 137.700 M157.400 140.000 C 157.059 140.660,156.869 141.200,156.979 141.200 C 157.089 141.200,157.459 140.660,157.800 140.000 C 158.141 139.340,158.331 138.800,158.221 138.800 C 158.111 138.800,157.741 139.340,157.400 140.000 M245.978 141.900 L 244.600 143.400 246.100 142.022 C 247.496 140.738,247.784 140.400,247.478 140.400 C 247.412 140.400,246.737 141.075,245.978 141.900 M225.264 142.926 C 225.179 144.954,224.725 145.758,222.055 148.600 L 219.800 151.000 222.279 148.633 C 225.045 145.992,225.735 144.729,225.493 142.747 L 225.328 141.400 225.264 142.926 M155.000 144.400 C 154.659 145.060,154.469 145.600,154.579 145.600 C 154.689 145.600,155.059 145.060,155.400 144.400 C 155.741 143.740,155.931 143.200,155.821 143.200 C 155.711 143.200,155.341 143.740,155.000 144.400 M241.385 146.900 L 239.400 149.000 241.500 147.015 C 243.451 145.171,243.783 144.800,243.485 144.800 C 243.422 144.800,242.477 145.745,241.385 146.900 M151.600 150.800 C 151.151 151.680,150.874 152.400,150.984 152.400 C 151.094 152.400,151.551 151.680,152.000 150.800 C 152.449 149.920,152.726 149.200,152.616 149.200 C 152.506 149.200,152.049 149.920,151.600 150.800 M216.786 153.500 L 214.600 155.800 216.900 153.614 C 218.165 152.411,219.200 151.376,219.200 151.314 C 219.200 151.017,218.818 151.363,216.786 153.500 M232.394 156.300 L 227.400 161.400 232.500 156.406 C 237.237 151.767,237.781 151.200,237.494 151.200 C 237.436 151.200,235.141 153.495,232.394 156.300 M210.788 159.100 L 208.200 161.800 210.900 159.212 C 212.385 157.788,213.600 156.573,213.600 156.512 C 213.600 156.217,213.193 156.592,210.788 159.100 M146.800 160.000 C 146.134 161.320,145.678 162.400,145.788 162.400 C 145.898 162.400,146.534 161.320,147.200 160.000 C 147.866 158.680,148.322 157.600,148.212 157.600 C 148.102 157.600,147.466 158.680,146.800 160.000 M203.789 165.700 L 201.000 168.600 203.900 165.811 C 205.495 164.277,206.800 162.972,206.800 162.911 C 206.800 162.617,206.380 163.006,203.789 165.700 M219.393 168.900 L 215.000 173.400 219.500 169.007 C 223.680 164.926,224.182 164.400,223.893 164.400 C 223.834 164.400,221.809 166.425,219.393 168.900 M191.192 178.300 L 187.400 182.200 191.300 178.408 C 194.922 174.886,195.382 174.400,195.092 174.400 C 195.033 174.400,193.278 176.155,191.192 178.300 M207.593 180.300 L 203.400 184.600 207.700 180.407 C 210.065 178.101,212.000 176.166,212.000 176.107 C 212.000 175.818,211.487 176.306,207.593 180.300 M180.792 189.100 L 177.000 193.000 180.900 189.208 C 184.522 185.686,184.982 185.200,184.692 185.200 C 184.633 185.200,182.878 186.955,180.792 189.100 M196.792 190.700 L 193.000 194.600 196.900 190.808 C 200.522 187.286,200.982 186.800,200.692 186.800 C 200.633 186.800,198.878 188.555,196.792 190.700 M170.392 199.900 L 166.600 203.800 170.500 200.008 C 174.122 196.486,174.582 196.000,174.292 196.000 C 174.233 196.000,172.478 197.755,170.392 199.900 M186.592 200.500 L 183.000 204.200 186.700 200.608 C 190.136 197.272,190.582 196.800,190.292 196.800 C 190.232 196.800,188.567 198.465,186.592 200.500 M176.791 209.900 L 173.400 213.400 176.900 210.009 C 180.151 206.859,180.582 206.400,180.291 206.400 C 180.231 206.400,178.656 207.975,176.791 209.900 M159.592 211.100 L 155.800 215.000 159.700 211.208 C 163.322 207.686,163.782 207.200,163.492 207.200 C 163.433 207.200,161.678 208.955,159.592 211.100 M167.391 218.900 L 164.200 222.200 167.500 219.009 C 170.565 216.046,170.982 215.600,170.691 215.600 C 170.630 215.600,169.145 217.085,167.391 218.900 M117.000 219.200 C 116.224 220.740,115.680 222.000,115.790 222.000 C 115.900 222.000,116.624 220.740,117.400 219.200 C 118.176 217.660,118.720 216.400,118.610 216.400 C 118.500 216.400,117.776 217.660,117.000 219.200 M149.192 221.900 L 145.400 225.800 149.300 222.008 C 151.445 219.922,153.200 218.167,153.200 218.108 C 153.200 217.818,152.714 218.278,149.192 221.900 M158.191 227.700 L 155.000 231.000 158.300 227.809 C 160.115 226.055,161.600 224.570,161.600 224.509 C 161.600 224.218,161.154 224.635,158.191 227.700 M111.200 230.400 C 110.751 231.280,110.474 232.000,110.584 232.000 C 110.694 232.000,111.151 231.280,111.600 230.400 C 112.049 229.520,112.326 228.800,112.216 228.800 C 112.106 228.800,111.649 229.520,111.200 230.400 M138.792 232.700 L 135.000 236.600 138.900 232.808 C 141.045 230.722,142.800 228.967,142.800 228.908 C 142.800 228.618,142.314 229.078,138.792 232.700 M149.391 236.100 L 146.200 239.400 149.500 236.209 C 151.315 234.455,152.800 232.970,152.800 232.909 C 152.800 232.618,152.354 233.035,149.391 236.100 M107.800 236.800 C 107.459 237.460,107.269 238.000,107.379 238.000 C 107.489 238.000,107.859 237.460,108.200 236.800 C 108.541 236.140,108.731 235.600,108.621 235.600 C 108.511 235.600,108.141 236.140,107.800 236.800 M128.392 243.500 L 124.600 247.400 128.500 243.608 C 130.645 241.522,132.400 239.767,132.400 239.708 C 132.400 239.418,131.914 239.878,128.392 243.500 M105.000 242.000 C 104.659 242.660,104.469 243.200,104.579 243.200 C 104.689 243.200,105.059 242.660,105.400 242.000 C 105.741 241.340,105.931 240.800,105.821 240.800 C 105.711 240.800,105.341 241.340,105.000 242.000 M140.591 244.500 L 137.400 247.800 140.700 244.609 C 143.765 241.646,144.182 241.200,143.891 241.200 C 143.830 241.200,142.345 242.685,140.591 244.500 M100.029 245.829 C 99.754 247.057,99.606 248.139,99.700 248.233 C 99.794 248.328,100.097 247.400,100.371 246.171 C 100.646 244.943,100.794 243.861,100.700 243.767 C 100.606 243.672,100.303 244.600,100.029 245.829 M103.418 244.900 C 103.331 245.175,103.057 246.063,102.808 246.874 C 102.559 247.684,101.642 249.124,100.771 250.074 L 99.187 251.800 99.385 250.200 C 99.540 248.949,99.506 248.818,99.231 249.600 C 99.038 250.150,98.862 251.039,98.840 251.575 L 98.800 252.550 100.037 251.375 C 102.131 249.385,104.798 244.400,103.768 244.400 C 103.662 244.400,103.504 244.625,103.418 244.900 M131.600 253.000 C 129.961 254.650,128.710 256.000,128.820 256.000 C 128.930 256.000,130.361 254.650,132.000 253.000 C 133.639 251.350,134.890 250.000,134.780 250.000 C 134.670 250.000,133.239 251.350,131.600 253.000 M119.781 252.500 L 118.200 254.200 119.900 252.619 C 121.481 251.148,121.784 250.800,121.481 250.800 C 121.416 250.800,120.651 251.565,119.781 252.500 M122.991 261.300 L 119.800 264.600 123.100 261.409 C 126.165 258.446,126.582 258.000,126.291 258.000 C 126.230 258.000,124.745 259.485,122.991 261.300 M114.191 269.700 L 111.000 273.000 114.300 269.809 C 117.365 266.846,117.782 266.400,117.491 266.400 C 117.430 266.400,115.945 267.885,114.191 269.700 M104.991 278.500 L 101.800 281.800 105.100 278.609 C 106.915 276.855,108.400 275.370,108.400 275.309 C 108.400 275.018,107.954 275.435,104.991 278.500 M95.991 287.100 L 92.600 290.600 96.100 287.209 C 99.351 284.059,99.782 283.600,99.491 283.600 C 99.431 283.600,97.856 285.175,95.991 287.100 M247.100 327.429 C 245.605 328.240,245.696 328.578,247.200 327.800 C 247.860 327.459,248.400 327.094,248.400 326.990 C 248.400 326.732,248.357 326.747,247.100 327.429 M151.200 328.179 C 151.200 328.289,151.740 328.659,152.400 329.000 C 153.060 329.341,153.600 329.531,153.600 329.421 C 153.600 329.311,153.060 328.941,152.400 328.600 C 151.740 328.259,151.200 328.069,151.200 328.179 M237.500 332.427 C 236.675 332.863,236.000 333.308,236.000 333.418 C 236.000 333.527,236.720 333.249,237.600 332.800 C 238.480 332.351,239.200 331.897,239.200 331.792 C 239.200 331.530,239.197 331.531,237.500 332.427 M159.600 332.579 C 159.600 332.689,160.140 333.059,160.800 333.400 C 161.460 333.741,162.000 333.931,162.000 333.821 C 162.000 333.711,161.460 333.341,160.800 333.000 C 160.140 332.659,159.600 332.469,159.600 332.579 M169.600 337.779 C 169.600 337.889,170.140 338.259,170.800 338.600 C 171.460 338.941,172.000 339.131,172.000 339.021 C 172.000 338.911,171.460 338.541,170.800 338.200 C 170.140 337.859,169.600 337.669,169.600 337.779 M220.700 341.025 C 219.215 341.787,218.000 342.501,218.000 342.611 C 218.000 342.720,219.260 342.176,220.800 341.400 C 222.340 340.624,223.600 339.902,223.600 339.795 C 223.600 339.527,223.712 339.479,220.700 341.025 M180.400 343.384 C 180.400 343.494,181.120 343.951,182.000 344.400 C 182.880 344.849,183.600 345.126,183.600 345.016 C 183.600 344.906,182.880 344.449,182.000 344.000 C 181.120 343.551,180.400 343.274,180.400 343.384 " stroke="none" fill="#c99a33" fill-rule="evenodd"></path><path id="path7" d="M129.886 46.775 C 130.813 46.926,131.902 47.309,132.305 47.625 C 132.709 47.941,132.615 47.795,132.097 47.300 C 131.438 46.670,130.712 46.415,129.678 46.450 L 128.200 46.500 129.886 46.775 M126.829 47.854 C 126.373 48.434,126.018 49.379,126.041 49.954 C 126.078 50.891,126.114 50.863,126.394 49.684 C 126.565 48.960,127.025 48.015,127.415 47.584 C 127.805 47.153,128.019 46.800,127.891 46.800 C 127.763 46.800,127.285 47.274,126.829 47.854 M134.000 50.542 C 134.000 50.977,137.186 57.200,137.409 57.200 C 137.588 57.200,134.528 50.840,134.154 50.433 C 134.069 50.342,134.000 50.391,134.000 50.542 M125.693 54.400 C 125.693 55.170,125.775 55.485,125.876 55.100 C 125.976 54.715,125.976 54.085,125.876 53.700 C 125.775 53.315,125.693 53.630,125.693 54.400 M140.600 63.600 C 141.376 65.140,142.100 66.400,142.210 66.400 C 142.320 66.400,141.776 65.140,141.000 63.600 C 140.224 62.060,139.500 60.800,139.390 60.800 C 139.280 60.800,139.824 62.060,140.600 63.600 M124.493 63.200 C 124.493 63.970,124.575 64.285,124.676 63.900 C 124.776 63.515,124.776 62.885,124.676 62.500 C 124.575 62.115,124.493 62.430,124.493 63.200 M124.093 66.000 C 124.093 66.770,124.175 67.085,124.276 66.700 C 124.376 66.315,124.376 65.685,124.276 65.300 C 124.175 64.915,124.093 65.230,124.093 66.000 M123.693 68.800 C 123.693 69.570,123.775 69.885,123.876 69.500 C 123.976 69.115,123.976 68.485,123.876 68.100 C 123.775 67.715,123.693 68.030,123.693 68.800 M145.200 72.400 C 146.085 74.160,146.899 75.600,147.009 75.600 C 147.119 75.600,146.485 74.160,145.600 72.400 C 144.715 70.640,143.901 69.200,143.791 69.200 C 143.681 69.200,144.315 70.640,145.200 72.400 M123.293 71.600 C 123.293 72.370,123.375 72.685,123.476 72.300 C 123.576 71.915,123.576 71.285,123.476 70.900 C 123.375 70.515,123.293 70.830,123.293 71.600 M150.400 82.400 C 151.285 84.160,152.099 85.600,152.209 85.600 C 152.319 85.600,151.685 84.160,150.800 82.400 C 149.915 80.640,149.101 79.200,148.991 79.200 C 148.881 79.200,149.515 80.640,150.400 82.400 M155.600 92.400 C 156.485 94.160,157.299 95.600,157.409 95.600 C 157.519 95.600,156.885 94.160,156.000 92.400 C 155.115 90.640,154.301 89.200,154.191 89.200 C 154.081 89.200,154.715 90.640,155.600 92.400 M197.905 89.883 C 198.402 89.979,199.122 89.975,199.505 89.875 C 199.887 89.775,199.480 89.696,198.600 89.701 C 197.720 89.705,197.407 89.787,197.905 89.883 M201.400 90.791 C 202.060 91.223,203.183 92.617,203.895 93.888 C 204.608 95.160,205.191 96.020,205.191 95.800 C 205.195 94.302,201.718 89.993,200.514 90.003 C 200.341 90.004,200.740 90.359,201.400 90.791 M120.493 91.600 C 120.493 92.370,120.575 92.685,120.676 92.300 C 120.776 91.915,120.776 91.285,120.676 90.900 C 120.575 90.515,120.493 90.830,120.493 91.600 M193.729 91.700 C 193.284 92.195,192.776 92.870,192.601 93.200 C 192.263 93.837,192.355 93.750,193.976 91.900 C 194.506 91.295,194.849 90.800,194.739 90.800 C 194.629 90.800,194.175 91.205,193.729 91.700 M120.093 94.400 C 120.093 95.170,120.175 95.485,120.276 95.100 C 120.376 94.715,120.376 94.085,120.276 93.700 C 120.175 93.315,120.093 93.630,120.093 94.400 M190.465 97.417 C 189.795 98.888,189.923 99.202,190.647 97.865 C 190.986 97.240,191.188 96.654,191.096 96.563 C 191.005 96.471,190.721 96.856,190.465 97.417 M206.028 98.200 C 206.028 98.420,206.286 99.050,206.600 99.600 C 206.914 100.150,207.172 100.420,207.172 100.200 C 207.172 99.980,206.914 99.350,206.600 98.800 C 206.286 98.250,206.028 97.980,206.028 98.200 M160.600 102.000 C 161.376 103.540,162.100 104.800,162.210 104.800 C 162.320 104.800,161.776 103.540,161.000 102.000 C 160.224 100.460,159.500 99.200,159.390 99.200 C 159.280 99.200,159.824 100.460,160.600 102.000 M188.865 101.017 C 188.195 102.488,188.323 102.802,189.047 101.465 C 189.386 100.840,189.588 100.254,189.496 100.163 C 189.405 100.071,189.121 100.456,188.865 101.017 M118.893 103.200 C 118.893 103.970,118.975 104.285,119.076 103.900 C 119.176 103.515,119.176 102.885,119.076 102.500 C 118.975 102.115,118.893 102.430,118.893 103.200 M208.028 102.600 C 208.028 102.820,208.286 103.450,208.600 104.000 C 208.914 104.550,209.172 104.820,209.172 104.600 C 209.172 104.380,208.914 103.750,208.600 103.200 C 208.286 102.650,208.028 102.380,208.028 102.600 M187.265 104.617 C 186.595 106.088,186.723 106.402,187.447 105.065 C 187.786 104.440,187.988 103.854,187.896 103.763 C 187.805 103.671,187.521 104.056,187.265 104.617 M118.493 106.000 C 118.493 106.770,118.575 107.085,118.676 106.700 C 118.776 106.315,118.776 105.685,118.676 105.300 C 118.575 104.915,118.493 105.230,118.493 106.000 M210.028 107.000 C 210.028 107.220,210.286 107.850,210.600 108.400 C 210.914 108.950,211.172 109.220,211.172 109.000 C 211.172 108.780,210.914 108.150,210.600 107.600 C 210.286 107.050,210.028 106.780,210.028 107.000 M185.665 108.217 C 184.995 109.688,185.123 110.002,185.847 108.665 C 186.186 108.040,186.388 107.454,186.296 107.363 C 186.205 107.271,185.921 107.656,185.665 108.217 M165.400 111.200 C 166.176 112.740,166.900 114.000,167.010 114.000 C 167.120 114.000,166.576 112.740,165.800 111.200 C 165.024 109.660,164.300 108.400,164.190 108.400 C 164.080 108.400,164.624 109.660,165.400 111.200 M184.465 111.017 C 183.795 112.488,183.923 112.802,184.647 111.465 C 184.986 110.840,185.188 110.254,185.096 110.163 C 185.005 110.071,184.721 110.456,184.465 111.017 M117.693 112.000 C 117.693 112.770,117.775 113.085,117.876 112.700 C 117.976 112.315,117.976 111.685,117.876 111.300 C 117.775 110.915,117.693 111.230,117.693 112.000 M275.105 111.083 C 275.602 111.179,276.322 111.175,276.705 111.075 C 277.087 110.975,276.680 110.896,275.800 110.901 C 274.920 110.905,274.607 110.987,275.105 111.083 M212.028 111.400 C 212.028 111.620,212.286 112.250,212.600 112.800 C 212.914 113.350,213.172 113.620,213.172 113.400 C 213.172 113.180,212.914 112.550,212.600 112.000 C 212.286 111.450,212.028 111.180,212.028 111.400 M270.653 113.708 C 269.304 115.087,262.421 122.692,255.359 130.608 C 234.451 154.041,231.987 156.466,133.900 250.131 C 94.214 288.028,91.023 291.196,91.963 291.777 C 92.162 291.900,92.242 291.684,92.141 291.296 C 92.005 290.778,98.390 284.451,116.262 267.396 C 234.980 154.098,243.629 145.507,269.949 114.739 C 270.690 113.872,271.947 112.721,272.742 112.181 C 273.536 111.642,273.943 111.200,273.646 111.200 C 273.348 111.200,272.002 112.328,270.653 113.708 M278.200 111.666 C 278.640 111.908,279.458 112.488,280.019 112.954 C 280.579 113.419,280.446 113.215,279.724 112.500 C 279.002 111.785,278.184 111.205,277.906 111.212 C 277.628 111.219,277.760 111.423,278.200 111.666 M117.293 114.800 C 117.293 115.570,117.375 115.885,117.476 115.500 C 117.576 115.115,117.576 114.485,117.476 114.100 C 117.375 113.715,117.293 114.030,117.293 114.800 M182.865 114.617 C 182.195 116.088,182.323 116.402,183.047 115.065 C 183.386 114.440,183.588 113.854,183.496 113.763 C 183.405 113.671,183.121 114.056,182.865 114.617 M214.028 115.800 C 214.028 116.020,214.286 116.650,214.600 117.200 C 214.914 117.750,215.172 118.020,215.172 117.800 C 215.172 117.580,214.914 116.950,214.600 116.400 C 214.286 115.850,214.028 115.580,214.028 115.800 M181.665 117.417 C 180.995 118.888,181.123 119.202,181.847 117.865 C 182.186 117.240,182.388 116.654,182.296 116.563 C 182.205 116.471,181.921 116.856,181.665 117.417 M168.520 119.200 C 168.520 120.410,168.595 120.905,168.687 120.300 C 168.778 119.695,168.778 118.705,168.687 118.100 C 168.595 117.495,168.520 117.990,168.520 119.200 M116.493 120.800 C 116.493 121.570,116.575 121.885,116.676 121.500 C 116.776 121.115,116.776 120.485,116.676 120.100 C 116.575 119.715,116.493 120.030,116.493 120.800 M179.872 121.419 C 178.932 123.389,179.064 123.724,180.047 121.862 C 180.493 121.016,180.787 120.254,180.701 120.167 C 180.614 120.081,180.241 120.644,179.872 121.419 M216.028 120.200 C 216.028 120.420,216.286 121.050,216.600 121.600 C 216.914 122.150,217.172 122.420,217.172 122.200 C 217.172 121.980,216.914 121.350,216.600 120.800 C 216.286 120.250,216.028 119.980,216.028 120.200 M167.281 123.409 C 166.802 124.394,166.494 125.200,166.597 125.200 C 166.868 125.200,168.484 121.951,168.303 121.770 C 168.219 121.686,167.759 122.424,167.281 123.409 M218.034 124.600 C 218.034 124.820,218.378 125.630,218.800 126.400 C 219.222 127.170,219.566 127.620,219.566 127.400 C 219.566 127.180,219.222 126.370,218.800 125.600 C 218.378 124.830,218.034 124.380,218.034 124.600 M115.693 126.800 C 115.693 127.570,115.775 127.885,115.876 127.500 C 115.976 127.115,115.976 126.485,115.876 126.100 C 115.775 125.715,115.693 126.030,115.693 126.800 M165.400 126.800 C 165.059 127.460,164.869 128.000,164.979 128.000 C 165.089 128.000,165.459 127.460,165.800 126.800 C 166.141 126.140,166.331 125.600,166.221 125.600 C 166.111 125.600,165.741 126.140,165.400 126.800 M163.800 129.600 C 163.459 130.260,163.269 130.800,163.379 130.800 C 163.489 130.800,163.859 130.260,164.200 129.600 C 164.541 128.940,164.731 128.400,164.621 128.400 C 164.511 128.400,164.141 128.940,163.800 129.600 M115.293 130.000 C 115.293 130.770,115.375 131.085,115.476 130.700 C 115.576 130.315,115.576 129.685,115.476 129.300 C 115.375 128.915,115.293 129.230,115.293 130.000 M220.434 129.800 C 220.434 130.020,220.778 130.830,221.200 131.600 C 221.622 132.370,221.966 132.820,221.966 132.600 C 221.966 132.380,221.622 131.570,221.200 130.800 C 220.778 130.030,220.434 129.580,220.434 129.800 M162.200 132.400 C 161.859 133.060,161.669 133.600,161.779 133.600 C 161.889 133.600,162.259 133.060,162.600 132.400 C 162.941 131.740,163.131 131.200,163.021 131.200 C 162.911 131.200,162.541 131.740,162.200 132.400 M114.893 132.800 C 114.893 133.570,114.975 133.885,115.076 133.500 C 115.176 133.115,115.176 132.485,115.076 132.100 C 114.975 131.715,114.893 132.030,114.893 132.800 M168.886 143.822 C 166.199 149.202,164.010 153.738,164.022 153.902 C 164.033 154.066,166.294 149.725,169.045 144.257 C 171.796 138.788,173.985 134.252,173.910 134.176 C 173.834 134.101,171.574 138.441,168.886 143.822 M114.493 136.000 C 114.493 136.770,114.575 137.085,114.676 136.700 C 114.776 136.315,114.776 135.685,114.676 135.300 C 114.575 134.915,114.493 135.230,114.493 136.000 M160.000 136.400 C 159.551 137.280,159.274 138.000,159.384 138.000 C 159.494 138.000,159.951 137.280,160.400 136.400 C 160.849 135.520,161.126 134.800,161.016 134.800 C 160.906 134.800,160.449 135.520,160.000 136.400 M222.836 135.000 C 222.836 135.220,223.270 136.210,223.800 137.200 C 224.330 138.190,224.764 138.820,224.764 138.600 C 224.764 138.380,224.330 137.390,223.800 136.400 C 223.270 135.410,222.836 134.780,222.836 135.000 M158.000 140.000 C 157.551 140.880,157.274 141.600,157.384 141.600 C 157.494 141.600,157.951 140.880,158.400 140.000 C 158.849 139.120,159.126 138.400,159.016 138.400 C 158.906 138.400,158.449 139.120,158.000 140.000 M113.693 142.000 C 113.693 142.770,113.775 143.085,113.876 142.700 C 113.976 142.315,113.976 141.685,113.876 141.300 C 113.775 140.915,113.693 141.230,113.693 142.000 M155.400 144.800 C 154.843 145.900,154.477 146.800,154.587 146.800 C 154.697 146.800,155.243 145.900,155.800 144.800 C 156.357 143.700,156.723 142.800,156.613 142.800 C 156.503 142.800,155.957 143.700,155.400 144.800 M113.293 145.200 C 113.293 145.970,113.375 146.285,113.476 145.900 C 113.576 145.515,113.576 144.885,113.476 144.500 C 113.375 144.115,113.293 144.430,113.293 145.200 M225.259 145.389 C 224.918 146.332,222.624 148.741,217.882 153.137 C 214.097 156.647,210.464 160.121,209.808 160.859 C 209.152 161.596,210.052 160.838,211.808 159.174 C 213.564 157.509,217.274 154.042,220.054 151.467 C 224.453 147.394,226.542 144.809,225.931 144.197 C 225.833 144.100,225.531 144.636,225.259 145.389 M151.800 151.600 C 151.024 153.140,150.480 154.400,150.590 154.400 C 150.700 154.400,151.424 153.140,152.200 151.600 C 152.976 150.060,153.520 148.800,153.410 148.800 C 153.300 148.800,152.576 150.060,151.800 151.600 M112.493 151.200 C 112.493 151.970,112.575 152.285,112.676 151.900 C 112.776 151.515,112.776 150.885,112.676 150.500 C 112.575 150.115,112.493 150.430,112.493 151.200 M112.093 154.400 C 112.093 155.170,112.175 155.485,112.276 155.100 C 112.376 154.715,112.376 154.085,112.276 153.700 C 112.175 153.315,112.093 153.630,112.093 154.400 M146.200 162.400 C 144.986 164.820,144.083 166.800,144.193 166.800 C 144.303 166.800,145.386 164.820,146.600 162.400 C 147.814 159.980,148.717 158.000,148.607 158.000 C 148.497 158.000,147.414 159.980,146.200 162.400 M111.293 160.400 C 111.293 161.170,111.375 161.485,111.476 161.100 C 111.576 160.715,111.576 160.085,111.476 159.700 C 111.375 159.315,111.293 159.630,111.293 160.400 M203.200 166.890 C 200.352 169.652,199.578 170.518,201.400 168.902 C 204.568 166.093,208.742 161.981,208.385 162.020 C 208.283 162.032,205.950 164.223,203.200 166.890 M110.893 163.600 C 110.893 164.370,110.975 164.685,111.076 164.300 C 111.176 163.915,111.176 163.285,111.076 162.900 C 110.975 162.515,110.893 162.830,110.893 163.600 M110.093 169.600 C 110.093 170.370,110.175 170.685,110.276 170.300 C 110.376 169.915,110.376 169.285,110.276 168.900 C 110.175 168.515,110.093 168.830,110.093 169.600 M109.693 172.800 C 109.693 173.570,109.775 173.885,109.876 173.500 C 109.976 173.115,109.976 172.485,109.876 172.100 C 109.775 171.715,109.693 172.030,109.693 172.800 M150.286 181.422 C 147.709 186.582,145.610 190.938,145.621 191.102 C 145.633 191.266,147.804 187.105,150.445 181.857 C 153.086 176.608,155.185 172.252,155.110 172.176 C 155.034 172.101,152.864 176.261,150.286 181.422 M182.400 188.200 C 173.785 197.110,166.826 204.400,166.936 204.400 C 167.046 204.400,174.185 197.110,182.800 188.200 C 191.415 179.290,198.374 172.000,198.264 172.000 C 198.154 172.000,191.015 179.290,182.400 188.200 M109.293 176.000 C 109.293 176.770,109.375 177.085,109.476 176.700 C 109.576 176.315,109.576 175.685,109.476 175.300 C 109.375 174.915,109.293 175.230,109.293 176.000 M108.493 182.000 C 108.493 182.770,108.575 183.085,108.676 182.700 C 108.776 182.315,108.776 181.685,108.676 181.300 C 108.575 180.915,108.493 181.230,108.493 182.000 M108.093 185.200 C 108.093 185.970,108.175 186.285,108.276 185.900 C 108.376 185.515,108.376 184.885,108.276 184.500 C 108.175 184.115,108.093 184.430,108.093 185.200 M107.693 188.400 C 107.693 189.170,107.775 189.485,107.876 189.100 C 107.976 188.715,107.976 188.085,107.876 187.700 C 107.775 187.315,107.693 187.630,107.693 188.400 M107.293 191.200 C 107.293 191.970,107.375 192.285,107.476 191.900 C 107.576 191.515,107.576 190.885,107.476 190.500 C 107.375 190.115,107.293 190.430,107.293 191.200 M106.893 194.400 C 106.893 195.170,106.975 195.485,107.076 195.100 C 107.176 194.715,107.176 194.085,107.076 193.700 C 106.975 193.315,106.893 193.630,106.893 194.400 M106.493 197.600 C 106.493 198.370,106.575 198.685,106.676 198.300 C 106.776 197.915,106.776 197.285,106.676 196.900 C 106.575 196.515,106.493 196.830,106.493 197.600 M106.093 200.800 C 106.093 201.570,106.175 201.885,106.276 201.500 C 106.376 201.115,106.376 200.485,106.276 200.100 C 106.175 199.715,106.093 200.030,106.093 200.800 M105.693 203.600 C 105.693 204.370,105.775 204.685,105.876 204.300 C 105.976 203.915,105.976 203.285,105.876 202.900 C 105.775 202.515,105.693 202.830,105.693 203.600 M161.394 210.100 L 156.200 215.400 161.500 210.206 C 164.415 207.349,166.800 204.964,166.800 204.906 C 166.800 204.619,166.219 205.177,161.394 210.100 M105.293 206.800 C 105.293 207.570,105.375 207.885,105.476 207.500 C 105.576 207.115,105.576 206.485,105.476 206.100 C 105.375 205.715,105.293 206.030,105.293 206.800 M104.893 210.000 C 104.893 210.770,104.975 211.085,105.076 210.700 C 105.176 210.315,105.176 209.685,105.076 209.300 C 104.975 208.915,104.893 209.230,104.893 210.000 M131.686 219.022 C 128.999 224.402,126.810 228.938,126.822 229.102 C 126.833 229.266,129.094 224.925,131.845 219.457 C 134.596 213.988,136.785 209.452,136.710 209.376 C 136.634 209.301,134.374 213.641,131.686 219.022 M104.093 216.000 C 104.093 216.770,104.175 217.085,104.276 216.700 C 104.376 216.315,104.376 215.685,104.276 215.300 C 104.175 214.915,104.093 215.230,104.093 216.000 M140.400 231.800 C 131.785 240.710,124.826 248.000,124.936 248.000 C 125.046 248.000,132.185 240.710,140.800 231.800 C 149.415 222.890,156.374 215.600,156.264 215.600 C 156.154 215.600,149.015 222.890,140.400 231.800 M117.000 220.400 C 115.786 222.820,114.883 224.800,114.993 224.800 C 115.103 224.800,116.186 222.820,117.400 220.400 C 118.614 217.980,119.517 216.000,119.407 216.000 C 119.297 216.000,118.214 217.980,117.000 220.400 M103.693 219.200 C 103.693 219.970,103.775 220.285,103.876 219.900 C 103.976 219.515,103.976 218.885,103.876 218.500 C 103.775 218.115,103.693 218.430,103.693 219.200 M103.293 222.400 C 103.293 223.170,103.375 223.485,103.476 223.100 C 103.576 222.715,103.576 222.085,103.476 221.700 C 103.375 221.315,103.293 221.630,103.293 222.400 M102.493 228.400 C 102.493 229.170,102.575 229.485,102.676 229.100 C 102.776 228.715,102.776 228.085,102.676 227.700 C 102.575 227.315,102.493 227.630,102.493 228.400 M111.600 230.800 C 110.934 232.120,110.478 233.200,110.588 233.200 C 110.698 233.200,111.334 232.120,112.000 230.800 C 112.666 229.480,113.122 228.400,113.012 228.400 C 112.902 228.400,112.266 229.480,111.600 230.800 M102.093 231.600 C 102.093 232.370,102.175 232.685,102.276 232.300 C 102.376 231.915,102.376 231.285,102.276 230.900 C 102.175 230.515,102.093 230.830,102.093 231.600 M101.693 234.800 C 101.693 235.570,101.775 235.885,101.876 235.500 C 101.976 235.115,101.976 234.485,101.876 234.100 C 101.775 233.715,101.693 234.030,101.693 234.800 M108.200 237.200 C 107.643 238.300,107.277 239.200,107.387 239.200 C 107.497 239.200,108.043 238.300,108.600 237.200 C 109.157 236.100,109.523 235.200,109.413 235.200 C 109.303 235.200,108.757 236.100,108.200 237.200 M100.622 240.222 C 100.472 241.025,100.428 241.762,100.526 241.860 C 100.624 241.957,100.827 241.381,100.978 240.578 C 101.128 239.775,101.172 239.038,101.074 238.940 C 100.976 238.843,100.773 239.419,100.622 240.222 M105.400 242.400 C 104.843 243.500,104.477 244.400,104.587 244.400 C 104.697 244.400,105.243 243.500,105.800 242.400 C 106.357 241.300,106.723 240.400,106.613 240.400 C 106.503 240.400,105.957 241.300,105.400 242.400 M99.822 243.822 C 99.672 244.625,99.628 245.362,99.726 245.460 C 99.824 245.557,100.027 244.981,100.178 244.178 C 100.328 243.375,100.372 242.638,100.274 242.540 C 100.176 242.443,99.973 243.019,99.822 243.822 M116.596 249.609 C 115.346 252.172,115.139 252.898,115.544 253.300 C 115.947 253.701,115.998 253.670,115.797 253.143 C 115.652 252.762,116.159 251.270,116.999 249.602 C 117.798 248.016,118.384 246.651,118.301 246.568 C 118.219 246.486,117.451 247.854,116.596 249.609 M100.800 250.890 L 98.600 253.329 98.347 252.165 L 98.095 251.000 98.047 252.300 C 98.021 253.015,98.153 253.600,98.339 253.600 C 98.707 253.600,103.200 249.006,103.200 248.630 C 103.200 248.249,103.083 248.359,100.800 250.890 M121.600 251.400 C 118.602 254.418,117.831 254.820,116.799 253.900 C 116.322 253.475,116.318 253.504,116.768 254.100 C 117.684 255.310,118.528 254.891,121.800 251.600 C 123.550 249.840,124.891 248.400,124.781 248.400 C 124.670 248.400,123.239 249.750,121.600 251.400 M310.093 286.800 C 310.093 287.570,310.175 287.885,310.276 287.500 C 310.376 287.115,310.376 286.485,310.276 286.100 C 310.175 285.715,310.093 286.030,310.093 286.800 M309.200 290.750 C 309.200 291.017,308.351 292.172,307.313 293.317 L 305.427 295.400 307.145 293.800 C 308.969 292.102,309.815 290.881,309.432 290.499 C 309.305 290.371,309.200 290.484,309.200 290.750 M93.843 294.727 C 94.259 295.457,94.948 296.357,95.374 296.727 C 95.824 297.118,95.666 296.731,94.996 295.800 C 93.393 293.574,92.950 293.161,93.843 294.727 M303.700 296.046 C 302.337 296.919,301.895 297.506,303.100 296.843 C 304.018 296.339,305.456 295.227,305.200 295.219 C 305.090 295.216,304.415 295.588,303.700 296.046 M97.174 297.924 C 97.709 298.359,98.699 299.019,99.374 299.391 L 100.600 300.067 99.626 299.276 C 99.091 298.841,98.101 298.181,97.426 297.809 L 96.200 297.133 97.174 297.924 M101.400 300.607 C 101.840 300.966,102.560 301.435,103.000 301.651 L 103.800 302.044 103.000 301.393 C 102.560 301.034,101.840 300.565,101.400 300.349 L 100.600 299.956 101.400 300.607 M286.700 306.229 C 285.205 307.040,285.296 307.378,286.800 306.600 C 287.460 306.259,288.000 305.894,288.000 305.790 C 288.000 305.532,287.957 305.547,286.700 306.229 M283.900 307.829 C 282.405 308.640,282.496 308.978,284.000 308.200 C 284.660 307.859,285.200 307.494,285.200 307.390 C 285.200 307.132,285.157 307.147,283.900 307.829 M114.200 308.281 C 114.420 308.508,115.500 309.197,116.600 309.813 C 117.700 310.428,118.420 310.746,118.200 310.519 C 117.980 310.292,116.900 309.603,115.800 308.987 C 114.700 308.372,113.980 308.054,114.200 308.281 M281.100 309.429 C 279.605 310.240,279.696 310.578,281.200 309.800 C 281.860 309.459,282.400 309.094,282.400 308.990 C 282.400 308.732,282.357 308.747,281.100 309.429 M278.300 311.029 C 276.805 311.840,276.896 312.178,278.400 311.400 C 279.060 311.059,279.600 310.694,279.600 310.590 C 279.600 310.332,279.557 310.347,278.300 311.029 M118.800 310.979 C 118.800 311.089,119.340 311.459,120.000 311.800 C 120.660 312.141,121.200 312.331,121.200 312.221 C 121.200 312.111,120.660 311.741,120.000 311.400 C 119.340 311.059,118.800 310.869,118.800 310.979 M275.100 312.827 C 274.275 313.263,273.600 313.708,273.600 313.818 C 273.600 313.927,274.320 313.649,275.200 313.200 C 276.080 312.751,276.800 312.297,276.800 312.192 C 276.800 311.930,276.797 311.931,275.100 312.827 M121.600 312.579 C 121.600 312.689,122.140 313.059,122.800 313.400 C 123.460 313.741,124.000 313.931,124.000 313.821 C 124.000 313.711,123.460 313.341,122.800 313.000 C 122.140 312.659,121.600 312.469,121.600 312.579 M124.400 314.179 C 124.400 314.289,124.940 314.659,125.600 315.000 C 126.260 315.341,126.800 315.531,126.800 315.421 C 126.800 315.311,126.260 314.941,125.600 314.600 C 124.940 314.259,124.400 314.069,124.400 314.179 M271.500 314.827 C 270.675 315.263,270.000 315.708,270.000 315.818 C 270.000 315.927,270.720 315.649,271.600 315.200 C 272.480 314.751,273.200 314.297,273.200 314.192 C 273.200 313.930,273.197 313.931,271.500 314.827 M128.000 316.179 C 128.000 316.289,128.540 316.659,129.200 317.000 C 129.860 317.341,130.400 317.531,130.400 317.421 C 130.400 317.311,129.860 316.941,129.200 316.600 C 128.540 316.259,128.000 316.069,128.000 316.179 M267.900 316.827 C 267.075 317.263,266.400 317.708,266.400 317.818 C 266.400 317.927,267.120 317.649,268.000 317.200 C 268.880 316.751,269.600 316.297,269.600 316.192 C 269.600 315.930,269.597 315.931,267.900 316.827 M131.600 318.179 C 131.600 318.289,132.140 318.659,132.800 319.000 C 133.460 319.341,134.000 319.531,134.000 319.421 C 134.000 319.311,133.460 318.941,132.800 318.600 C 132.140 318.259,131.600 318.069,131.600 318.179 M263.500 319.227 C 262.675 319.663,262.000 320.108,262.000 320.218 C 262.000 320.327,262.720 320.049,263.600 319.600 C 264.480 319.151,265.200 318.697,265.200 318.592 C 265.200 318.330,265.197 318.331,263.500 319.227 M135.200 320.184 C 135.200 320.294,135.920 320.751,136.800 321.200 C 137.680 321.649,138.400 321.926,138.400 321.816 C 138.400 321.706,137.680 321.249,136.800 320.800 C 135.920 320.351,135.200 320.074,135.200 320.184 M258.700 321.826 C 257.655 322.370,256.800 322.905,256.800 323.014 C 256.800 323.124,257.700 322.757,258.800 322.200 C 259.900 321.643,260.800 321.100,260.800 320.993 C 260.800 320.729,260.836 320.714,258.700 321.826 M139.600 322.587 C 139.600 322.697,140.500 323.243,141.600 323.800 C 142.700 324.357,143.600 324.723,143.600 324.613 C 143.600 324.503,142.700 323.957,141.600 323.400 C 140.500 322.843,139.600 322.477,139.600 322.587 M252.300 325.226 C 251.035 325.879,250.000 326.503,250.000 326.612 C 250.000 326.722,251.080 326.266,252.400 325.600 C 253.720 324.934,254.800 324.301,254.800 324.194 C 254.800 323.928,254.874 323.897,252.300 325.226 M145.600 325.787 C 145.600 325.897,146.500 326.443,147.600 327.000 C 148.700 327.557,149.600 327.923,149.600 327.813 C 149.600 327.703,148.700 327.157,147.600 326.600 C 146.500 326.043,145.600 325.677,145.600 325.787 M244.300 329.425 C 242.815 330.187,241.600 330.901,241.600 331.011 C 241.600 331.120,242.860 330.576,244.400 329.800 C 245.940 329.024,247.200 328.302,247.200 328.195 C 247.200 327.927,247.312 327.879,244.300 329.425 M152.400 329.388 C 152.400 329.498,153.480 330.134,154.800 330.800 C 156.120 331.466,157.200 331.922,157.200 331.812 C 157.200 331.702,156.120 331.066,154.800 330.400 C 153.480 329.734,152.400 329.278,152.400 329.388 M232.700 335.424 C 230.335 336.625,228.400 337.697,228.400 337.807 C 228.400 337.917,230.380 337.014,232.800 335.800 C 235.220 334.586,237.200 333.505,237.200 333.397 C 237.200 333.125,237.462 333.007,232.700 335.424 M160.800 333.791 C 160.800 333.901,162.240 334.715,164.000 335.600 C 165.760 336.485,167.200 337.119,167.200 337.009 C 167.200 336.899,165.760 336.085,164.000 335.200 C 162.240 334.315,160.800 333.681,160.800 333.791 M170.800 338.992 C 170.800 339.102,172.420 340.006,174.400 341.000 C 176.380 341.994,178.000 342.718,178.000 342.608 C 178.000 342.498,176.380 341.594,174.400 340.600 C 172.420 339.606,170.800 338.882,170.800 338.992 M211.100 346.423 C 206.755 348.613,203.200 350.494,203.200 350.604 C 203.200 350.714,206.800 349.002,211.200 346.800 C 215.600 344.598,219.200 342.707,219.200 342.598 C 219.200 342.323,219.798 342.041,211.100 346.423 M182.400 344.991 C 182.400 345.101,183.840 345.915,185.600 346.800 C 187.360 347.685,188.800 348.319,188.800 348.209 C 188.800 348.099,187.360 347.285,185.600 346.400 C 183.840 345.515,182.400 344.881,182.400 344.991 M191.600 349.798 C 191.600 350.067,195.649 352.084,195.829 351.905 C 195.911 351.823,194.993 351.273,193.789 350.682 C 192.585 350.092,191.600 349.694,191.600 349.798 M197.305 352.287 C 197.914 352.379,198.814 352.377,199.305 352.282 C 199.797 352.187,199.300 352.111,198.200 352.114 C 197.100 352.117,196.697 352.195,197.305 352.287 " stroke="none" fill="#6c541c" fill-rule="evenodd"></path><path id="path8" d="M278.200 112.468 C 278.640 112.712,279.279 113.112,279.620 113.356 C 279.960 113.600,279.815 113.395,279.297 112.900 C 278.779 112.405,278.140 112.005,277.878 112.012 C 277.615 112.019,277.760 112.224,278.200 112.468 M269.178 116.300 L 267.800 117.800 269.300 116.422 C 270.696 115.138,270.984 114.800,270.678 114.800 C 270.612 114.800,269.937 115.475,269.178 116.300 M265.381 120.500 L 263.800 122.200 265.500 120.619 C 267.081 119.148,267.384 118.800,267.081 118.800 C 267.016 118.800,266.251 119.565,265.381 120.500 M261.978 124.300 L 260.600 125.800 262.100 124.422 C 263.496 123.138,263.784 122.800,263.478 122.800 C 263.412 122.800,262.737 123.475,261.978 124.300 M258.778 127.900 L 257.400 129.400 258.900 128.022 C 260.296 126.738,260.584 126.400,260.278 126.400 C 260.212 126.400,259.537 127.075,258.778 127.900 M255.578 131.500 L 254.200 133.000 255.700 131.622 C 257.096 130.338,257.384 130.000,257.078 130.000 C 257.012 130.000,256.337 130.675,255.578 131.500 M252.378 135.100 L 251.000 136.600 252.500 135.222 C 253.896 133.938,254.184 133.600,253.878 133.600 C 253.812 133.600,253.137 134.275,252.378 135.100 M248.981 138.900 L 247.400 140.600 249.100 139.019 C 250.681 137.548,250.984 137.200,250.681 137.200 C 250.616 137.200,249.851 137.965,248.981 138.900 M245.200 143.000 C 244.228 143.990,243.523 144.800,243.633 144.800 C 243.743 144.800,244.628 143.990,245.600 143.000 C 246.572 142.010,247.277 141.200,247.167 141.200 C 247.057 141.200,246.172 142.010,245.200 143.000 M239.988 148.700 L 237.400 151.400 240.100 148.812 C 241.585 147.388,242.800 146.173,242.800 146.112 C 242.800 145.817,242.393 146.192,239.988 148.700 M232.581 156.500 L 231.000 158.200 232.700 156.619 C 234.281 155.148,234.584 154.800,234.281 154.800 C 234.216 154.800,233.451 155.565,232.581 156.500 M222.600 166.000 C 219.967 168.640,217.903 170.800,218.013 170.800 C 218.123 170.800,220.367 168.640,223.000 166.000 C 225.633 163.360,227.697 161.200,227.587 161.200 C 227.477 161.200,225.233 163.360,222.600 166.000 M210.593 177.700 L 206.200 182.200 210.700 177.807 C 213.175 175.391,215.200 173.366,215.200 173.307 C 215.200 173.018,214.674 173.520,210.593 177.700 M199.392 188.500 L 195.400 192.600 199.500 188.608 C 201.755 186.412,203.600 184.567,203.600 184.508 C 203.600 184.218,203.101 184.692,199.392 188.500 M189.192 198.300 L 185.400 202.200 189.300 198.408 C 192.922 194.886,193.382 194.400,193.092 194.400 C 193.033 194.400,191.278 196.155,189.192 198.300 M179.192 207.900 L 175.400 211.800 179.300 208.008 C 182.922 204.486,183.382 204.000,183.092 204.000 C 183.033 204.000,181.278 205.755,179.192 207.900 M169.792 216.900 L 166.200 220.600 169.900 217.008 C 173.336 213.672,173.782 213.200,173.492 213.200 C 173.432 213.200,171.767 214.865,169.792 216.900 M160.592 225.700 L 157.000 229.400 160.700 225.808 C 162.735 223.833,164.400 222.168,164.400 222.108 C 164.400 221.818,163.928 222.264,160.592 225.700 M151.591 234.300 L 148.200 237.800 151.700 234.409 C 154.951 231.259,155.382 230.800,155.091 230.800 C 155.031 230.800,153.456 232.375,151.591 234.300 M142.791 242.700 L 139.400 246.200 142.900 242.809 C 146.151 239.659,146.582 239.200,146.291 239.200 C 146.231 239.200,144.656 240.775,142.791 242.700 M133.991 251.100 L 130.600 254.600 134.100 251.209 C 137.351 248.059,137.782 247.600,137.491 247.600 C 137.431 247.600,135.856 249.175,133.991 251.100 M125.191 259.500 L 121.800 263.000 125.300 259.609 C 128.551 256.459,128.982 256.000,128.691 256.000 C 128.631 256.000,127.056 257.575,125.191 259.500 M116.391 267.900 L 113.000 271.400 116.500 268.009 C 119.751 264.859,120.182 264.400,119.891 264.400 C 119.831 264.400,118.256 265.975,116.391 267.900 M107.392 276.500 L 103.800 280.200 107.500 276.608 C 110.936 273.272,111.382 272.800,111.092 272.800 C 111.032 272.800,109.367 274.465,107.392 276.500 M98.391 285.100 L 95.000 288.600 98.500 285.209 C 100.425 283.344,102.000 281.769,102.000 281.709 C 102.000 281.418,101.541 281.849,98.391 285.100 M309.309 286.800 C 309.309 287.790,309.387 288.195,309.482 287.700 C 309.578 287.205,309.578 286.395,309.482 285.900 C 309.387 285.405,309.309 285.810,309.309 286.800 M131.600 317.379 C 131.600 317.489,132.140 317.859,132.800 318.200 C 133.460 318.541,134.000 318.731,134.000 318.621 C 134.000 318.511,133.460 318.141,132.800 317.800 C 132.140 317.459,131.600 317.269,131.600 317.379 M258.700 321.029 C 257.205 321.840,257.296 322.178,258.800 321.400 C 259.460 321.059,260.000 320.694,260.000 320.590 C 260.000 320.332,259.957 320.347,258.700 321.029 M140.400 322.179 C 140.400 322.289,140.940 322.659,141.600 323.000 C 142.260 323.341,142.800 323.531,142.800 323.421 C 142.800 323.311,142.260 322.941,141.600 322.600 C 140.940 322.259,140.400 322.069,140.400 322.179 M252.700 324.229 C 251.205 325.040,251.296 325.378,252.800 324.600 C 253.460 324.259,254.000 323.894,254.000 323.790 C 254.000 323.532,253.957 323.547,252.700 324.229 M146.400 325.379 C 146.400 325.489,146.940 325.859,147.600 326.200 C 148.260 326.541,148.800 326.731,148.800 326.621 C 148.800 326.511,148.260 326.141,147.600 325.800 C 146.940 325.459,146.400 325.269,146.400 325.379 M244.700 328.427 C 243.875 328.863,243.200 329.308,243.200 329.418 C 243.200 329.527,243.920 329.249,244.800 328.800 C 245.680 328.351,246.400 327.897,246.400 327.792 C 246.400 327.530,246.397 327.531,244.700 328.427 M153.200 328.979 C 153.200 329.089,153.740 329.459,154.400 329.800 C 155.060 330.141,155.600 330.331,155.600 330.221 C 155.600 330.111,155.060 329.741,154.400 329.400 C 153.740 329.059,153.200 328.869,153.200 328.979 M233.900 334.026 C 232.635 334.679,231.600 335.303,231.600 335.412 C 231.600 335.522,232.680 335.066,234.000 334.400 C 235.320 333.734,236.400 333.101,236.400 332.994 C 236.400 332.728,236.474 332.697,233.900 334.026 M161.600 333.384 C 161.600 333.494,162.320 333.951,163.200 334.400 C 164.080 334.849,164.800 335.126,164.800 335.016 C 164.800 334.906,164.080 334.449,163.200 334.000 C 162.320 333.551,161.600 333.274,161.600 333.384 M171.600 338.587 C 171.600 338.697,172.500 339.243,173.600 339.800 C 174.700 340.357,175.600 340.723,175.600 340.613 C 175.600 340.503,174.700 339.957,173.600 339.400 C 172.500 338.843,171.600 338.477,171.600 338.587 M214.300 344.024 C 212.155 345.115,210.400 346.098,210.400 346.208 C 210.400 346.317,212.200 345.504,214.400 344.400 C 216.600 343.296,218.400 342.304,218.400 342.196 C 218.400 341.925,218.625 341.825,214.300 344.024 M183.200 344.584 C 183.200 344.694,183.920 345.151,184.800 345.600 C 185.680 346.049,186.400 346.326,186.400 346.216 C 186.400 346.106,185.680 345.649,184.800 345.200 C 183.920 344.751,183.200 344.474,183.200 344.584 M192.400 349.397 C 192.400 349.668,195.649 351.284,195.830 351.103 C 195.914 351.019,195.176 350.559,194.191 350.081 C 193.206 349.602,192.400 349.294,192.400 349.397 " stroke="none" fill="#dcac3c" fill-rule="evenodd"></path></g></svg>