<svg id="svg" version="1.1" xmlns="http://www.w3.org/2000/svg" xmlns:xlink="http://www.w3.org/1999/xlink" width="400" height="400" viewBox="0, 0, 400,400"><g id="svgg"><path id="path0" d="M0.000 200.190 L 0.000 399.620 199.620 399.620 L 399.240 399.620 399.240 200.190 L 399.240 0.760 199.620 0.760 L 0.000 0.760 0.000 200.190 M317.533 182.092 C 333.978 184.947,345.798 192.889,355.204 207.403 C 356.420 209.280,357.414 211.076,357.413 211.396 C 357.412 212.014,329.675 230.055,328.327 230.315 C 327.725 230.431,327.091 229.734,325.285 226.971 C 313.891 209.539,288.308 210.859,286.475 228.973 C 285.367 239.918,290.336 244.472,315.019 255.129 C 354.024 271.972,366.549 285.099,368.425 311.103 C 370.864 344.924,348.023 367.177,309.316 368.690 C 284.353 369.666,262.091 361.309,247.854 345.618 C 242.778 340.024,236.781 330.863,237.490 329.784 C 237.979 329.039,267.244 312.167,268.047 312.167 C 268.438 312.167,269.311 313.072,270.158 314.354 C 279.367 328.298,289.887 334.358,304.943 334.394 C 320.923 334.431,330.619 326.974,329.946 315.164 C 329.378 305.200,324.372 301.273,297.529 289.737 C 261.214 274.130,248.608 259.159,248.543 231.559 C 248.461 197.172,278.856 175.378,317.533 182.092 M217.681 251.331 C 217.681 325.342,217.765 322.193,215.560 330.893 C 209.141 356.221,188.461 369.891,158.365 368.699 C 134.734 367.764,116.442 356.817,106.247 337.509 C 104.519 334.235,104.490 334.126,105.182 333.473 C 107.014 331.745,135.166 315.140,135.697 315.474 C 136.000 315.666,137.170 317.352,138.298 319.223 C 145.353 330.927,151.027 334.586,161.397 334.122 C 171.827 333.655,176.604 329.569,178.551 319.453 C 179.000 317.117,179.087 305.914,179.087 250.568 C 179.087 214.216,179.192 184.201,179.320 183.868 C 179.528 183.324,181.479 183.273,198.616 183.362 L 217.681 183.460 217.681 251.331 " stroke="none" fill="#f3db4c" fill-rule="evenodd"></path><path id="path1" d="M296.432 182.166 C 261.656 185.834,242.066 214.426,251.388 247.909 C 256.340 265.696,268.581 276.429,298.669 289.365 C 326.296 301.242,331.245 305.556,330.731 317.312 C 330.243 328.473,320.611 335.117,304.943 335.102 C 289.501 335.086,277.231 327.952,269.182 314.311 C 268.733 313.550,268.202 312.928,268.002 312.928 C 267.103 312.928,238.403 329.884,238.404 330.415 C 238.406 332.096,244.747 341.158,249.332 346.033 C 277.086 375.535,336.530 375.504,358.545 345.975 C 371.235 328.953,370.892 300.125,357.801 283.450 C 349.668 273.089,339.112 266.407,313.024 255.102 C 291.638 245.835,287.251 242.319,285.865 233.337 C 284.152 222.229,291.918 214.068,304.202 214.068 C 313.439 214.068,320.697 218.262,326.074 226.705 C 327.104 228.322,328.059 229.648,328.197 229.652 C 328.522 229.660,355.553 212.278,356.180 211.659 C 357.210 210.640,350.451 201.330,344.866 196.076 C 333.292 185.188,315.696 180.135,296.432 182.166 M180.029 184.502 C 179.932 184.765,179.804 215.266,179.745 252.281 C 179.644 316.058,179.602 319.701,178.947 321.863 C 176.150 331.099,170.634 334.955,160.190 334.974 C 150.361 334.993,144.372 330.969,137.775 319.915 C 136.598 317.943,135.529 316.263,135.398 316.183 C 134.963 315.914,105.895 333.767,105.770 334.380 C 105.489 335.760,111.567 345.085,115.813 349.786 C 127.648 362.890,147.306 369.609,168.251 367.708 C 195.016 365.279,211.159 351.237,215.742 326.398 C 217.039 319.369,217.146 312.870,217.032 248.099 L 216.920 184.221 198.564 184.122 C 184.079 184.044,180.170 184.124,180.029 184.502 " stroke="none" fill="#343434" fill-rule="evenodd"></path><path id="path2" d="M72.243 0.284 C 266.993 0.542,400.000 0.543,400.000 0.285 C 400.000 0.128,309.957 0.042,199.905 0.094 C 89.853 0.146,32.405 0.231,72.243 0.284 " stroke="none" fill="#fcfcfc" fill-rule="evenodd"></path><path id="path3" d="M189.449 183.555 C 194.415 183.615,202.543 183.615,207.510 183.555 C 212.476 183.495,208.413 183.446,198.479 183.446 C 188.546 183.446,184.482 183.495,189.449 183.555 M179.653 247.909 C 179.653 283.146,179.698 297.562,179.753 279.943 C 179.807 262.324,179.807 233.493,179.753 215.875 C 179.698 198.256,179.653 212.671,179.653 247.909 M346.198 196.958 C 347.650 198.422,348.924 199.620,349.029 199.620 C 349.134 199.620,348.031 198.422,346.578 196.958 C 345.125 195.494,343.851 194.297,343.747 194.297 C 343.642 194.297,344.745 195.494,346.198 196.958 M262.153 197.053 L 260.266 199.049 262.262 197.163 C 264.117 195.409,264.433 195.057,264.149 195.057 C 264.089 195.057,263.191 195.955,262.153 197.053 M320.913 221.103 C 321.622 221.835,322.288 222.433,322.393 222.433 C 322.497 222.433,322.002 221.835,321.293 221.103 C 320.583 220.371,319.917 219.772,319.813 219.772 C 319.708 219.772,320.203 220.371,320.913 221.103 M248.757 234.981 C 248.757 235.713,248.836 236.012,248.931 235.646 C 249.027 235.280,249.027 234.682,248.931 234.316 C 248.836 233.950,248.757 234.249,248.757 234.981 M289.734 241.564 C 289.734 241.629,290.290 242.185,290.970 242.800 L 292.205 243.916 291.089 242.681 C 290.048 241.529,289.734 241.270,289.734 241.564 M325.095 303.992 C 325.804 304.724,326.470 305.323,326.575 305.323 C 326.680 305.323,326.185 304.724,325.475 303.992 C 324.766 303.260,324.100 302.662,323.995 302.662 C 323.891 302.662,324.386 303.260,325.095 303.992 M368.200 315.779 C 368.201 317.871,368.265 318.678,368.342 317.573 C 368.419 316.468,368.418 314.757,368.340 313.771 C 368.262 312.784,368.199 313.688,368.200 315.779 M217.206 315.779 C 217.210 316.616,217.288 316.913,217.379 316.440 C 217.470 315.967,217.467 315.283,217.372 314.920 C 217.276 314.556,217.202 314.943,217.206 315.779 M325.455 328.042 L 324.144 329.468 325.570 328.157 C 326.897 326.938,327.171 326.616,326.881 326.616 C 326.817 326.616,326.175 327.258,325.455 328.042 M249.810 347.338 C 251.157 348.698,252.345 349.810,252.450 349.810 C 252.554 349.810,251.537 348.698,250.190 347.338 C 248.843 345.979,247.655 344.867,247.550 344.867 C 247.446 344.867,248.463 345.979,249.810 347.338 M116.920 351.711 C 117.950 352.757,118.878 353.612,118.983 353.612 C 119.087 353.612,118.330 352.757,117.300 351.711 C 116.270 350.665,115.342 349.810,115.238 349.810 C 115.133 349.810,115.890 350.665,116.920 351.711 M166.255 368.323 C 166.621 368.419,167.220 368.419,167.586 368.323 C 167.952 368.227,167.652 368.149,166.920 368.149 C 166.188 368.149,165.889 368.227,166.255 368.323 " stroke="none" fill="#b2a443" fill-rule="evenodd"></path><path id="path4" d="M199.525 0.665 L 399.240 0.761 399.240 200.190 L 399.240 399.619 199.525 399.715 L -0.190 399.811 199.708 399.905 L 399.605 400.000 399.811 399.144 C 399.925 398.674,399.971 308.802,399.914 199.430 L 399.810 0.570 199.810 0.570 L -0.190 0.569 199.525 0.665 " stroke="none" fill="#f4e47c" fill-rule="evenodd"></path><path id="path5" d="M302.757 181.646 C 303.541 181.728,304.824 181.728,305.608 181.646 C 306.393 181.564,305.751 181.497,304.183 181.497 C 302.614 181.497,301.972 181.564,302.757 181.646 M296.678 182.022 C 297.256 182.109,298.112 182.107,298.579 182.017 C 299.047 181.926,298.574 181.855,297.529 181.858 C 296.483 181.861,296.100 181.934,296.678 182.022 M309.986 182.022 C 310.564 182.109,311.420 182.107,311.887 182.017 C 312.355 181.926,311.882 181.855,310.837 181.858 C 309.791 181.861,309.408 181.934,309.986 182.022 M314.163 182.391 C 314.529 182.487,315.128 182.487,315.494 182.391 C 315.860 182.296,315.561 182.217,314.829 182.217 C 314.097 182.217,313.798 182.296,314.163 182.391 M179.848 183.935 C 179.848 184.092,188.232 184.221,198.479 184.221 C 208.726 184.221,217.110 184.092,217.110 183.935 C 217.110 183.779,208.726 183.650,198.479 183.650 C 188.232 183.650,179.848 183.779,179.848 183.935 M275.190 187.856 C 273.569 188.685,272.243 189.448,272.243 189.553 C 272.243 189.723,278.289 186.814,278.676 186.458 C 279.214 185.962,277.736 186.555,275.190 187.856 M331.210 186.836 C 331.598 187.190,335.361 188.966,335.361 188.796 C 335.361 188.582,331.730 186.692,331.318 186.692 C 331.172 186.692,331.123 186.757,331.210 186.836 M270.240 190.698 C 269.460 191.228,268.821 191.744,268.821 191.844 C 268.821 191.944,269.506 191.573,270.342 191.020 C 271.670 190.141,272.119 189.734,271.761 189.734 C 271.705 189.734,271.021 190.168,270.240 190.698 M341.255 192.828 C 344.356 195.396,348.399 199.495,350.661 202.366 C 353.272 205.682,353.924 206.241,352.020 203.532 C 350.420 201.256,342.821 193.551,341.065 192.424 C 339.824 191.627,339.836 191.654,341.255 192.828 M266.698 193.373 L 265.209 194.732 266.825 193.500 C 268.302 192.374,268.662 192.015,268.314 192.015 C 268.245 192.015,267.517 192.626,266.698 193.373 M262.293 197.243 C 259.922 199.706,256.641 203.891,255.814 205.505 C 255.213 206.679,255.951 205.786,257.993 202.870 C 259.011 201.416,261.030 198.978,262.480 197.452 C 263.929 195.926,265.036 194.677,264.940 194.677 C 264.843 194.677,263.652 195.832,262.293 197.243 M253.974 208.782 C 253.537 209.639,253.244 210.405,253.324 210.485 C 253.404 210.564,253.841 209.863,254.296 208.927 C 255.332 206.794,255.052 206.668,253.974 208.782 M355.672 209.527 C 356.593 211.176,356.608 211.293,355.981 211.985 C 355.336 212.698,355.340 212.698,356.165 212.013 C 357.071 211.261,356.872 210.438,355.328 208.555 C 354.985 208.137,355.140 208.574,355.672 209.527 M353.415 213.551 C 351.475 214.838,350.791 215.516,352.306 214.652 C 353.640 213.891,355.420 212.569,355.126 212.556 C 355.018 212.551,354.248 212.999,353.415 213.551 M300.475 214.331 C 300.841 214.426,301.440 214.426,301.806 214.331 C 302.172 214.235,301.873 214.157,301.141 214.157 C 300.409 214.157,300.109 214.235,300.475 214.331 M306.373 214.337 C 306.846 214.428,307.531 214.425,307.894 214.330 C 308.258 214.235,307.871 214.160,307.034 214.164 C 306.198 214.169,305.900 214.246,306.373 214.337 M348.092 216.973 C 346.152 218.260,345.468 218.939,346.983 218.074 C 348.317 217.313,350.096 215.991,349.803 215.978 C 349.695 215.973,348.925 216.421,348.092 216.973 M290.114 219.202 C 289.190 220.143,288.520 220.913,288.625 220.913 C 288.729 220.913,289.571 220.143,290.494 219.202 C 291.418 218.260,292.088 217.490,291.983 217.490 C 291.879 217.490,291.038 218.260,290.114 219.202 M321.464 221.293 C 324.556 224.699,325.040 225.157,323.672 223.384 C 323.026 222.548,321.760 221.179,320.859 220.342 C 319.687 219.254,319.859 219.525,321.464 221.293 M342.769 220.395 C 340.829 221.682,340.145 222.361,341.660 221.496 C 342.994 220.735,344.773 219.413,344.480 219.400 C 344.372 219.395,343.602 219.843,342.769 220.395 M337.446 223.818 C 335.505 225.104,334.822 225.783,336.337 224.918 C 337.671 224.157,339.450 222.835,339.157 222.822 C 339.048 222.817,338.278 223.265,337.446 223.818 M249.158 226.806 C 249.161 227.852,249.235 228.234,249.322 227.656 C 249.410 227.078,249.407 226.223,249.317 225.755 C 249.227 225.288,249.155 225.760,249.158 226.806 M332.122 227.240 C 330.182 228.526,329.499 229.205,331.014 228.340 C 332.347 227.580,334.127 226.257,333.834 226.244 C 333.725 226.240,332.955 226.687,332.122 227.240 M285.673 230.418 C 285.673 231.778,285.742 232.334,285.826 231.654 C 285.911 230.974,285.911 229.862,285.826 229.183 C 285.742 228.503,285.673 229.059,285.673 230.418 M249.163 236.122 C 249.163 237.272,249.235 237.742,249.322 237.167 C 249.409 236.592,249.409 235.651,249.322 235.076 C 249.235 234.501,249.163 234.971,249.163 236.122 M286.692 237.028 C 286.692 237.436,287.823 239.544,288.042 239.544 C 288.147 239.544,287.950 238.988,287.604 238.308 C 286.898 236.920,286.692 236.631,286.692 237.028 M290.478 242.681 C 291.411 243.674,292.223 244.487,292.284 244.487 C 292.570 244.487,292.268 244.145,290.589 242.570 L 288.783 240.875 290.478 242.681 M251.004 247.529 C 251.004 247.842,251.151 248.441,251.331 248.859 C 251.537 249.339,251.658 249.409,251.658 249.049 C 251.658 248.736,251.511 248.137,251.331 247.719 C 251.125 247.239,251.004 247.169,251.004 247.529 M297.338 247.717 C 297.338 247.970,304.229 251.411,304.397 251.243 C 304.472 251.168,302.914 250.303,300.936 249.320 C 298.957 248.338,297.338 247.616,297.338 247.717 M306.464 252.281 C 306.987 252.580,307.586 252.825,307.795 252.825 C 308.004 252.825,307.747 252.580,307.224 252.281 C 306.702 251.983,306.103 251.738,305.894 251.738 C 305.684 251.738,305.941 251.983,306.464 252.281 M317.871 257.224 C 318.394 257.523,318.992 257.768,319.202 257.768 C 319.411 257.768,319.154 257.523,318.631 257.224 C 318.108 256.925,317.510 256.681,317.300 256.681 C 317.091 256.681,317.348 256.925,317.871 257.224 M320.532 258.365 C 321.055 258.664,321.654 258.908,321.863 258.908 C 322.072 258.908,321.816 258.664,321.293 258.365 C 320.770 258.066,320.171 257.822,319.962 257.822 C 319.753 257.822,320.010 258.066,320.532 258.365 M324.715 260.266 C 325.656 260.770,326.597 261.182,326.806 261.182 C 327.015 261.182,326.416 260.770,325.475 260.266 C 324.534 259.762,323.593 259.350,323.384 259.350 C 323.175 259.350,323.774 259.762,324.715 260.266 M256.918 260.866 C 257.295 261.509,257.848 262.236,258.145 262.482 C 258.441 262.727,258.205 262.201,257.619 261.312 C 256.388 259.446,255.903 259.137,256.918 260.866 M259.644 264.449 C 260.281 265.285,261.683 266.911,262.758 268.061 L 264.714 270.152 262.680 267.726 C 259.581 264.027,258.140 262.472,259.644 264.449 M333.460 264.433 C 333.460 264.538,334.144 264.972,334.981 265.399 C 335.817 265.826,336.502 266.090,336.502 265.985 C 336.502 265.880,335.817 265.446,334.981 265.019 C 334.144 264.592,333.460 264.329,333.460 264.433 M336.882 266.330 C 336.882 266.435,337.395 266.786,338.023 267.110 C 338.650 267.435,339.163 267.615,339.163 267.510 C 339.163 267.405,338.650 267.054,338.023 266.730 C 337.395 266.406,336.882 266.226,336.882 266.330 M340.279 268.369 C 340.788 268.782,341.729 269.409,342.370 269.763 L 343.536 270.406 342.611 269.654 C 342.102 269.241,341.161 268.613,340.519 268.260 L 339.354 267.617 340.279 268.369 M266.160 271.293 C 266.869 272.025,267.535 272.624,267.640 272.624 C 267.744 272.624,267.249 272.025,266.540 271.293 C 265.831 270.561,265.165 269.962,265.060 269.962 C 264.955 269.962,265.450 270.561,266.160 271.293 M343.726 270.481 C 343.726 270.585,344.240 271.036,344.867 271.483 C 345.494 271.930,346.008 272.210,346.008 272.105 C 346.008 272.000,345.494 271.549,344.867 271.103 C 344.240 270.656,343.726 270.376,343.726 270.481 M269.962 274.283 C 269.962 274.387,270.475 274.838,271.103 275.285 C 271.730 275.732,272.243 276.012,272.243 275.907 C 272.243 275.803,271.730 275.352,271.103 274.905 C 270.475 274.458,269.962 274.178,269.962 274.283 M353.105 278.341 C 355.021 280.320,356.989 282.375,357.477 282.908 C 357.966 283.441,358.110 283.527,357.799 283.098 C 356.825 281.758,353.572 278.318,351.554 276.493 C 350.490 275.530,351.188 276.362,353.105 278.341 M277.947 279.638 C 277.947 279.743,278.460 280.094,279.087 280.418 C 279.715 280.743,280.228 280.923,280.228 280.818 C 280.228 280.713,279.715 280.362,279.087 280.038 C 278.460 279.714,277.947 279.534,277.947 279.638 M281.369 281.558 C 281.369 281.810,288.259 285.252,288.428 285.083 C 288.502 285.009,286.944 284.144,284.966 283.161 C 282.988 282.178,281.369 281.457,281.369 281.558 M360.072 286.668 C 360.920 288.015,361.722 289.212,361.855 289.330 C 362.382 289.797,360.310 286.334,359.450 285.312 C 358.945 284.712,359.225 285.322,360.072 286.668 M291.255 286.502 C 291.778 286.801,292.376 287.045,292.586 287.045 C 292.795 287.045,292.538 286.801,292.015 286.502 C 291.492 286.203,290.894 285.959,290.684 285.959 C 290.475 285.959,290.732 286.203,291.255 286.502 M293.916 287.643 C 294.439 287.941,295.038 288.186,295.247 288.186 C 295.456 288.186,295.200 287.941,294.677 287.643 C 294.154 287.344,293.555 287.099,293.346 287.099 C 293.137 287.099,293.394 287.344,293.916 287.643 M296.578 288.783 C 297.101 289.082,297.700 289.327,297.909 289.327 C 298.118 289.327,297.861 289.082,297.338 288.783 C 296.816 288.484,296.217 288.240,296.008 288.240 C 295.798 288.240,296.055 288.484,296.578 288.783 M299.240 289.924 C 299.762 290.223,300.361 290.467,300.570 290.467 C 300.779 290.467,300.523 290.223,300.000 289.924 C 299.477 289.625,298.878 289.381,298.669 289.381 C 298.460 289.381,298.717 289.625,299.240 289.924 M301.901 291.065 C 302.424 291.364,303.023 291.608,303.232 291.608 C 303.441 291.608,303.184 291.364,302.662 291.065 C 302.139 290.766,301.540 290.521,301.331 290.521 C 301.122 290.521,301.378 290.766,301.901 291.065 M308.365 293.916 C 309.097 294.317,309.867 294.645,310.076 294.645 C 310.285 294.645,309.857 294.317,309.125 293.916 C 308.394 293.516,307.624 293.188,307.414 293.188 C 307.205 293.188,307.633 293.516,308.365 293.916 M311.439 295.203 C 311.825 295.559,317.871 298.468,317.871 298.297 C 317.871 298.086,311.956 295.057,311.542 295.057 C 311.398 295.057,311.351 295.123,311.439 295.203 M365.453 298.099 C 365.453 298.413,365.600 299.011,365.779 299.430 C 365.985 299.909,366.106 299.979,366.106 299.620 C 366.106 299.306,365.959 298.707,365.779 298.289 C 365.573 297.810,365.453 297.739,365.453 298.099 M318.251 298.602 C 318.251 298.684,319.282 299.388,320.543 300.166 C 321.803 300.944,323.899 302.542,325.201 303.718 C 327.033 305.374,327.223 305.488,326.046 304.223 C 324.152 302.189,318.251 297.934,318.251 298.602 M328.461 307.963 C 329.009 308.991,329.515 309.775,329.584 309.706 C 329.766 309.524,328.214 306.556,327.806 306.304 C 327.618 306.188,327.913 306.934,328.461 307.963 M367.389 307.605 C 367.389 308.337,367.467 308.636,367.562 308.270 C 367.658 307.904,367.658 307.305,367.562 306.939 C 367.467 306.573,367.389 306.873,367.389 307.605 M367.835 315.589 C 367.835 319.040,367.893 320.452,367.963 318.726 C 368.034 317.001,368.034 314.178,367.963 312.452 C 367.893 310.727,367.835 312.139,367.835 315.589 M330.514 314.259 C 330.518 315.095,330.596 315.392,330.687 314.920 C 330.778 314.447,330.775 313.762,330.679 313.399 C 330.584 313.035,330.510 313.422,330.514 314.259 M265.304 313.906 C 263.883 314.677,263.969 314.998,265.399 314.259 C 266.027 313.934,266.540 313.588,266.540 313.488 C 266.540 313.244,266.499 313.257,265.304 313.906 M269.465 314.858 C 269.843 315.502,270.395 316.229,270.692 316.474 C 270.989 316.719,270.752 316.193,270.166 315.304 C 268.935 313.438,268.450 313.129,269.465 314.858 M179.571 315.970 C 179.571 316.911,179.645 317.296,179.736 316.825 C 179.827 316.355,179.827 315.585,179.736 315.114 C 179.645 314.644,179.571 315.029,179.571 315.970 M262.643 315.427 C 261.221 316.198,261.308 316.519,262.738 315.779 C 263.365 315.455,263.878 315.108,263.878 315.009 C 263.878 314.765,263.837 314.778,262.643 315.427 M216.852 317.490 C 216.852 318.850,216.921 319.406,217.005 318.726 C 217.089 318.047,217.089 316.934,217.005 316.255 C 216.921 315.575,216.852 316.131,216.852 317.490 M136.159 317.278 C 136.598 318.022,137.030 318.631,137.120 318.631 C 137.390 318.631,136.156 316.416,135.743 316.161 C 135.533 316.031,135.719 316.533,136.159 317.278 M271.797 318.061 C 274.552 322.199,281.131 328.301,285.076 330.375 C 286.724 331.242,285.911 330.513,283.721 329.162 C 280.224 327.004,276.817 323.800,272.306 318.430 C 271.555 317.536,271.347 317.386,271.797 318.061 M330.514 318.441 C 330.518 319.278,330.596 319.575,330.687 319.102 C 330.778 318.629,330.775 317.945,330.679 317.581 C 330.584 317.218,330.510 317.605,330.514 318.441 M258.080 318.088 C 256.658 318.859,256.745 319.181,258.175 318.441 C 258.802 318.117,259.316 317.770,259.316 317.671 C 259.316 317.426,259.275 317.440,258.080 318.088 M255.418 319.609 C 253.997 320.380,254.083 320.701,255.513 319.962 C 256.141 319.638,256.654 319.291,256.654 319.192 C 256.654 318.947,256.613 318.961,255.418 319.609 M126.426 320.963 C 125.380 321.610,124.354 322.316,124.144 322.531 C 123.724 322.964,126.344 321.473,127.789 320.457 C 129.307 319.390,128.459 319.705,126.426 320.963 M216.446 321.863 C 216.450 322.700,216.528 322.997,216.619 322.524 C 216.710 322.051,216.706 321.367,216.611 321.003 C 216.516 320.640,216.441 321.027,216.446 321.863 M138.634 321.293 C 139.114 322.320,142.121 326.453,142.795 327.012 C 143.157 327.313,142.617 326.446,141.594 325.087 C 140.571 323.727,139.426 322.189,139.051 321.669 C 138.675 321.148,138.488 320.979,138.634 321.293 M250.856 322.271 C 249.434 323.042,249.521 323.363,250.951 322.624 C 251.578 322.299,252.091 321.953,252.091 321.853 C 252.091 321.609,252.050 321.622,250.856 322.271 M248.194 323.792 C 246.772 324.563,246.859 324.884,248.289 324.144 C 248.916 323.820,249.430 323.473,249.430 323.374 C 249.430 323.130,249.389 323.143,248.194 323.792 M327.767 325.649 C 326.627 327.494,323.696 330.035,321.059 331.466 C 319.828 332.133,319.002 332.684,319.224 332.689 C 320.769 332.728,326.846 327.880,328.267 325.475 C 329.206 323.885,328.761 324.040,327.767 325.649 M243.631 326.453 C 242.210 327.224,242.296 327.546,243.726 326.806 C 244.354 326.482,244.867 326.135,244.867 326.036 C 244.867 325.791,244.826 325.805,243.631 326.453 M240.970 327.974 C 239.548 328.745,239.635 329.066,241.065 328.327 C 241.692 328.003,242.205 327.656,242.205 327.557 C 242.205 327.312,242.164 327.326,240.970 327.974 M174.525 329.601 C 173.584 330.598,172.386 331.717,171.863 332.086 C 170.940 332.738,170.945 332.739,172.053 332.108 C 173.495 331.287,174.770 330.140,175.728 328.802 C 176.791 327.320,176.488 327.521,174.525 329.601 M111.977 329.708 C 110.932 330.355,109.905 331.061,109.696 331.276 C 109.275 331.709,111.895 330.218,113.340 329.202 C 114.858 328.135,114.010 328.450,111.977 329.708 M238.688 329.308 C 237.876 329.781,237.833 330.783,238.582 331.771 C 239.087 332.439,239.098 332.392,238.691 331.280 C 238.294 330.197,238.330 329.983,238.987 329.486 C 239.844 328.838,239.671 328.736,238.688 329.308 M148.669 332.126 C 148.669 332.386,150.997 333.540,151.171 333.366 C 151.254 333.284,150.725 332.932,149.995 332.584 C 149.266 332.236,148.669 332.030,148.669 332.126 M106.168 333.292 C 105.703 333.617,105.337 334.173,105.353 334.527 C 105.378 335.048,105.422 335.062,105.589 334.601 C 105.702 334.287,106.159 333.735,106.605 333.373 C 107.616 332.553,107.306 332.495,106.168 333.292 M239.661 333.650 C 239.983 334.278,240.531 335.133,240.878 335.551 C 241.226 335.970,241.126 335.627,240.656 334.791 C 239.620 332.945,238.844 332.055,239.661 333.650 M156.754 334.874 C 157.332 334.961,158.188 334.959,158.655 334.868 C 159.123 334.778,158.650 334.707,157.605 334.710 C 156.559 334.712,156.176 334.786,156.754 334.874 M161.128 334.876 C 161.812 334.961,162.839 334.959,163.410 334.872 C 163.981 334.786,163.422 334.716,162.167 334.719 C 160.913 334.721,160.445 334.792,161.128 334.876 M298.194 334.863 C 298.560 334.958,299.159 334.958,299.525 334.863 C 299.891 334.767,299.591 334.689,298.859 334.689 C 298.127 334.689,297.828 334.767,298.194 334.863 M310.361 334.863 C 310.727 334.958,311.326 334.958,311.692 334.863 C 312.058 334.767,311.759 334.689,311.027 334.689 C 310.295 334.689,309.995 334.767,310.361 334.863 M303.151 335.262 C 304.361 335.338,306.243 335.337,307.333 335.261 C 308.424 335.184,307.433 335.122,305.133 335.123 C 302.833 335.124,301.941 335.187,303.151 335.262 M107.034 338.023 C 107.359 338.650,107.710 339.163,107.814 339.163 C 107.919 339.163,107.739 338.650,107.414 338.023 C 107.090 337.395,106.739 336.882,106.634 336.882 C 106.530 336.882,106.710 337.395,107.034 338.023 M362.626 339.364 C 362.064 340.509,361.686 341.445,361.785 341.445 C 362.041 341.445,363.959 337.596,363.788 337.425 C 363.710 337.347,363.187 338.220,362.626 339.364 M242.966 338.783 C 243.413 339.411,243.864 339.924,243.968 339.924 C 244.073 339.924,243.793 339.411,243.346 338.783 C 242.899 338.156,242.448 337.643,242.344 337.643 C 242.239 337.643,242.519 338.156,242.966 338.783 M211.849 339.370 C 211.212 340.768,211.333 341.066,212.022 339.795 C 212.344 339.202,212.536 338.645,212.449 338.558 C 212.362 338.471,212.092 338.836,211.849 339.370 M245.301 341.825 C 245.999 342.766,248.027 345.002,249.806 346.794 L 253.042 350.051 250.181 346.984 C 248.608 345.297,246.580 343.061,245.676 342.015 C 244.072 340.161,244.063 340.156,245.301 341.825 M209.460 344.202 C 209.211 344.672,208.759 345.485,208.456 346.008 C 207.927 346.920,207.931 346.927,208.544 346.198 C 209.302 345.296,210.366 343.346,210.099 343.346 C 209.997 343.346,209.709 343.731,209.460 344.202 M111.858 345.417 C 113.342 347.631,119.604 354.064,122.053 355.889 C 124.250 357.527,123.364 356.614,119.876 353.648 C 117.434 351.571,115.043 349.010,111.667 344.854 C 110.821 343.811,110.860 343.929,111.858 345.417 M358.509 346.103 C 358.038 346.782,356.105 348.964,354.214 350.951 L 350.777 354.563 354.088 351.347 C 357.008 348.511,360.082 344.867,359.555 344.867 C 359.452 344.867,358.981 345.423,358.509 346.103 M205.729 349.715 C 204.613 351.126,204.127 351.888,204.650 351.408 C 205.570 350.562,208.171 347.148,207.895 347.148 C 207.820 347.148,206.845 348.303,205.729 349.715 M255.894 352.299 C 255.894 352.521,260.381 355.830,261.398 356.358 C 261.821 356.578,262.082 356.665,261.977 356.552 C 261.554 356.094,255.894 352.137,255.894 352.299 M202.448 353.707 L 201.331 354.943 202.567 353.826 C 203.246 353.212,203.802 352.656,203.802 352.590 C 203.802 352.297,203.489 352.555,202.448 353.707 M349.049 355.560 C 347.724 356.721,347.724 356.723,348.943 355.912 C 349.616 355.464,350.268 354.935,350.391 354.735 C 350.758 354.142,350.454 354.329,349.049 355.560 M199.786 355.989 L 198.669 357.224 199.905 356.108 C 200.585 355.493,201.141 354.937,201.141 354.872 C 201.141 354.578,200.827 354.837,199.786 355.989 M264.259 357.965 C 264.259 358.070,264.772 358.421,265.399 358.745 C 266.027 359.070,266.540 359.250,266.540 359.145 C 266.540 359.040,266.027 358.689,265.399 358.365 C 264.772 358.041,264.259 357.861,264.259 357.965 M340.684 360.646 C 339.743 361.150,339.109 361.570,339.274 361.580 C 339.677 361.603,342.586 360.109,342.586 359.878 C 342.586 359.626,342.601 359.620,340.684 360.646 M269.962 361.027 C 270.485 361.325,271.084 361.570,271.293 361.570 C 271.502 361.570,271.245 361.325,270.722 361.027 C 270.200 360.728,269.601 360.483,269.392 360.483 C 269.183 360.483,269.439 360.728,269.962 361.027 M190.494 361.977 C 189.762 362.378,189.300 362.713,189.468 362.722 C 189.870 362.743,192.015 361.628,192.015 361.397 C 192.015 361.148,191.993 361.157,190.494 361.977 M183.270 364.829 C 182.538 365.111,182.196 365.347,182.510 365.353 C 182.823 365.360,183.593 365.130,184.221 364.843 C 185.689 364.170,185.006 364.160,183.270 364.829 M150.285 367.562 C 150.651 367.658,151.250 367.658,151.616 367.562 C 151.982 367.467,151.683 367.389,150.951 367.389 C 150.219 367.389,149.919 367.467,150.285 367.562 M171.198 367.562 C 171.564 367.658,172.163 367.658,172.529 367.562 C 172.894 367.467,172.595 367.389,171.863 367.389 C 171.131 367.389,170.832 367.467,171.198 367.562 M293.631 367.562 C 293.997 367.658,294.596 367.658,294.962 367.562 C 295.328 367.467,295.029 367.389,294.297 367.389 C 293.565 367.389,293.265 367.467,293.631 367.562 M316.445 367.562 C 316.811 367.658,317.410 367.658,317.776 367.562 C 318.142 367.467,317.842 367.389,317.110 367.389 C 316.378 367.389,316.079 367.467,316.445 367.562 M153.712 367.953 C 154.290 368.041,155.146 368.039,155.614 367.948 C 156.081 367.858,155.608 367.787,154.563 367.789 C 153.517 367.792,153.134 367.866,153.712 367.953 M167.015 367.953 C 167.590 368.040,168.531 368.040,169.106 367.953 C 169.682 367.866,169.211 367.795,168.061 367.795 C 166.911 367.795,166.440 367.866,167.015 367.953 M297.433 367.953 C 298.009 368.040,298.950 368.040,299.525 367.953 C 300.100 367.866,299.629 367.795,298.479 367.795 C 297.329 367.795,296.858 367.866,297.433 367.953 M312.262 367.953 C 312.837 368.040,313.779 368.040,314.354 367.953 C 314.929 367.866,314.458 367.795,313.308 367.795 C 312.158 367.795,311.687 367.866,312.262 367.953 M159.791 368.338 C 160.575 368.420,161.858 368.420,162.643 368.338 C 163.427 368.256,162.785 368.189,161.217 368.189 C 159.648 368.189,159.007 368.256,159.791 368.338 M304.478 368.340 C 305.372 368.420,306.741 368.419,307.520 368.337 C 308.298 368.256,307.567 368.190,305.894 368.191 C 304.221 368.193,303.583 368.259,304.478 368.340 " stroke="none" fill="#8c843c" fill-rule="evenodd"></path><path id="path6" d="M217.296 249.240 C 217.296 285.209,217.341 299.868,217.395 281.814 C 217.450 263.760,217.450 234.331,217.395 216.415 C 217.341 198.499,217.296 213.270,217.296 249.240 M303.142 214.341 C 303.720 214.429,304.576 214.426,305.043 214.336 C 305.511 214.246,305.038 214.174,303.992 214.177 C 302.947 214.180,302.564 214.254,303.142 214.341 M248.794 231.369 C 248.796 232.833,248.864 233.385,248.947 232.596 C 249.029 231.807,249.028 230.609,248.944 229.934 C 248.860 229.259,248.792 229.905,248.794 231.369 M179.564 313.118 C 179.568 313.954,179.646 314.252,179.737 313.779 C 179.828 313.306,179.824 312.621,179.729 312.258 C 179.634 311.894,179.559 312.281,179.564 313.118 M143.346 327.495 C 143.346 327.561,143.902 328.117,144.582 328.731 L 145.817 329.848 144.701 328.612 C 143.660 327.460,143.346 327.202,143.346 327.495 M354.168 351.426 L 352.281 353.422 354.278 351.535 C 356.132 349.782,356.448 349.430,356.164 349.430 C 356.104 349.430,355.206 350.328,354.168 351.426 M301.236 368.323 C 301.602 368.419,302.201 368.419,302.567 368.323 C 302.933 368.227,302.633 368.149,301.901 368.149 C 301.169 368.149,300.870 368.227,301.236 368.323 M309.221 368.323 C 309.587 368.419,310.185 368.419,310.551 368.323 C 310.917 368.227,310.618 368.149,309.886 368.149 C 309.154 368.149,308.855 368.227,309.221 368.323 " stroke="none" fill="#94843c" fill-rule="evenodd"></path><path id="path7" d="M301.426 181.271 C 302.942 181.343,305.423 181.343,306.939 181.271 C 308.455 181.199,307.215 181.140,304.183 181.140 C 301.150 181.140,299.910 181.199,301.426 181.271 M295.152 181.631 C 295.518 181.727,296.117 181.727,296.483 181.631 C 296.849 181.535,296.549 181.457,295.817 181.457 C 295.086 181.457,294.786 181.535,295.152 181.631 M312.262 181.631 C 312.628 181.727,313.227 181.727,313.593 181.631 C 313.959 181.535,313.660 181.457,312.928 181.457 C 312.196 181.457,311.896 181.535,312.262 181.631 M217.490 249.734 L 217.681 316.160 217.777 250.020 C 217.830 213.643,217.744 183.752,217.587 183.594 C 217.429 183.437,217.386 213.200,217.490 249.734 M179.273 250.000 C 179.273 286.388,179.318 301.217,179.373 282.955 C 179.427 264.692,179.427 234.920,179.373 216.795 C 179.318 198.670,179.273 213.612,179.273 250.000 M331.559 186.502 C 332.082 186.801,332.681 187.045,332.890 187.045 C 333.099 187.045,332.842 186.801,332.319 186.502 C 331.797 186.203,331.198 185.959,330.989 185.959 C 330.779 185.959,331.036 186.203,331.559 186.502 M333.460 187.243 C 333.460 187.347,333.973 187.698,334.601 188.023 C 335.228 188.347,335.741 188.527,335.741 188.423 C 335.741 188.318,335.228 187.967,334.601 187.643 C 333.973 187.318,333.460 187.138,333.460 187.243 M343.726 194.021 C 343.726 194.078,345.052 195.404,346.673 196.968 L 349.620 199.810 346.778 196.863 C 344.138 194.126,343.726 193.743,343.726 194.021 M261.964 196.863 L 259.886 199.049 262.072 196.971 C 264.103 195.040,264.433 194.677,264.151 194.677 C 264.091 194.677,263.107 195.661,261.964 196.863 M256.362 203.707 C 255.378 205.129,255.058 205.703,255.250 205.703 C 255.339 205.703,255.865 205.019,256.419 204.183 C 257.544 202.482,257.495 202.071,256.362 203.707 M253.593 208.402 C 253.156 209.259,252.864 210.025,252.944 210.105 C 253.023 210.184,253.461 209.483,253.916 208.547 C 254.952 206.414,254.672 206.288,253.593 208.402 M302.577 214.728 C 303.471 214.808,304.840 214.807,305.618 214.725 C 306.397 214.643,305.665 214.578,303.992 214.579 C 302.319 214.580,301.682 214.647,302.577 214.728 M290.494 219.582 C 289.571 220.523,288.901 221.293,289.005 221.293 C 289.110 221.293,289.951 220.523,290.875 219.582 C 291.798 218.641,292.468 217.871,292.364 217.871 C 292.259 217.871,291.418 218.641,290.494 219.582 M320.722 221.293 C 321.752 222.338,322.681 223.194,322.785 223.194 C 322.890 223.194,322.133 222.338,321.103 221.293 C 320.073 220.247,319.145 219.392,319.040 219.392 C 318.935 219.392,319.693 220.247,320.722 221.293 M248.424 231.369 C 248.423 233.251,248.487 234.069,248.567 233.186 C 248.647 232.304,248.648 230.764,248.569 229.764 C 248.490 228.765,248.425 229.487,248.424 231.369 M290.859 242.300 C 292.434 243.979,292.776 244.281,292.776 243.996 C 292.776 243.934,291.963 243.122,290.970 242.189 L 289.163 240.494 290.859 242.300 M299.240 248.097 C 299.240 248.353,303.088 250.270,303.259 250.100 C 303.337 250.022,302.465 249.499,301.320 248.937 C 300.176 248.376,299.240 247.998,299.240 248.097 M324.335 259.506 C 324.857 259.805,325.456 260.049,325.665 260.049 C 325.875 260.049,325.618 259.805,325.095 259.506 C 324.572 259.207,323.973 258.962,323.764 258.962 C 323.555 258.962,323.812 259.207,324.335 259.506 M256.537 261.246 C 256.915 261.889,257.467 262.617,257.764 262.862 C 258.061 263.107,257.825 262.581,257.238 261.692 C 256.008 259.826,255.522 259.517,256.537 261.246 M334.601 264.429 C 334.601 264.534,335.114 264.885,335.741 265.209 C 336.369 265.534,336.882 265.713,336.882 265.609 C 336.882 265.504,336.369 265.153,335.741 264.829 C 335.114 264.504,334.601 264.325,334.601 264.429 M260.456 266.350 C 261.166 267.082,261.832 267.681,261.936 267.681 C 262.041 267.681,261.546 267.082,260.837 266.350 C 260.127 265.618,259.461 265.019,259.357 265.019 C 259.252 265.019,259.747 265.618,260.456 266.350 M265.779 271.673 C 266.489 272.405,267.155 273.004,267.259 273.004 C 267.364 273.004,266.869 272.405,266.160 271.673 C 265.450 270.941,264.784 270.342,264.680 270.342 C 264.575 270.342,265.070 270.941,265.779 271.673 M351.521 276.046 C 352.338 276.882,353.092 277.567,353.196 277.567 C 353.301 277.567,352.718 276.882,351.901 276.046 C 351.084 275.209,350.330 274.525,350.226 274.525 C 350.121 274.525,350.704 275.209,351.521 276.046 M356.274 280.798 C 356.983 281.530,357.649 282.129,357.754 282.129 C 357.858 282.129,357.363 281.530,356.654 280.798 C 355.945 280.067,355.279 279.468,355.174 279.468 C 355.069 279.468,355.564 280.067,356.274 280.798 M280.989 281.924 C 280.989 282.028,281.673 282.463,282.510 282.890 C 283.346 283.316,284.030 283.580,284.030 283.476 C 284.030 283.371,283.346 282.936,282.510 282.510 C 281.673 282.083,280.989 281.819,280.989 281.924 M286.692 284.981 C 287.633 285.485,288.574 285.897,288.783 285.897 C 288.992 285.897,288.394 285.485,287.452 284.981 C 286.511 284.477,285.570 284.065,285.361 284.065 C 285.152 284.065,285.751 284.477,286.692 284.981 M313.340 296.720 C 313.731 297.070,315.970 298.099,315.970 297.928 C 315.970 297.709,313.862 296.578,313.454 296.578 C 313.304 296.578,313.253 296.642,313.340 296.720 M319.772 300.118 C 319.772 300.207,320.499 300.759,321.388 301.345 C 322.277 301.931,322.803 302.168,322.558 301.871 C 322.086 301.300,319.772 299.844,319.772 300.118 M324.905 304.183 C 325.935 305.228,326.863 306.084,326.968 306.084 C 327.072 306.084,326.315 305.228,325.285 304.183 C 324.255 303.137,323.327 302.281,323.223 302.281 C 323.118 302.281,323.875 303.137,324.905 304.183 M328.401 308.931 C 328.749 309.660,329.101 310.189,329.184 310.107 C 329.358 309.933,328.203 307.605,327.943 307.605 C 327.847 307.605,328.054 308.201,328.401 308.931 M368.149 309.506 C 368.149 310.238,368.227 310.537,368.323 310.171 C 368.419 309.805,368.419 309.206,368.323 308.840 C 368.227 308.474,368.149 308.774,368.149 309.506 M330.156 316.540 C 330.158 317.795,330.229 318.262,330.314 317.579 C 330.398 316.895,330.396 315.869,330.310 315.297 C 330.223 314.726,330.154 315.285,330.156 316.540 M368.550 316.160 C 368.553 317.205,368.627 317.588,368.714 317.010 C 368.801 316.432,368.799 315.576,368.709 315.109 C 368.618 314.641,368.547 315.114,368.550 316.160 M217.198 319.772 C 217.198 320.504,217.277 320.803,217.372 320.437 C 217.468 320.071,217.468 319.472,217.372 319.106 C 217.277 318.740,217.198 319.040,217.198 319.772 M274.905 321.103 C 275.614 321.835,276.280 322.433,276.385 322.433 C 276.489 322.433,275.995 321.835,275.285 321.103 C 274.576 320.371,273.910 319.772,273.805 319.772 C 273.701 319.772,274.196 320.371,274.905 321.103 M327.718 324.786 C 327.474 325.244,326.490 326.484,325.533 327.543 L 323.792 329.468 325.500 327.855 C 327.060 326.383,328.841 323.954,328.362 323.954 C 328.253 323.954,327.963 324.329,327.718 324.786 M173.744 329.943 L 172.433 331.369 173.859 330.058 C 175.186 328.839,175.460 328.517,175.170 328.517 C 175.106 328.517,174.464 329.159,173.744 329.943 M237.996 329.223 C 237.120 329.932,237.392 331.885,238.459 332.544 C 238.644 332.659,238.499 332.128,238.135 331.366 C 237.478 329.988,237.480 329.974,238.414 329.256 C 238.931 328.859,239.244 328.530,239.111 328.526 C 238.977 328.521,238.475 328.835,237.996 329.223 M158.452 334.495 C 159.127 334.579,160.324 334.580,161.113 334.498 C 161.902 334.416,161.350 334.347,159.886 334.345 C 158.422 334.344,157.777 334.411,158.452 334.495 M299.715 334.483 C 300.081 334.578,300.680 334.578,301.046 334.483 C 301.412 334.387,301.112 334.309,300.380 334.309 C 299.648 334.309,299.349 334.387,299.715 334.483 M362.548 340.684 C 362.223 341.312,362.043 341.825,362.148 341.825 C 362.252 341.825,362.603 341.312,362.928 340.684 C 363.252 340.057,363.432 339.544,363.328 339.544 C 363.223 339.544,362.872 340.057,362.548 340.684 M247.148 344.971 C 247.148 345.029,248.474 346.355,250.095 347.918 L 253.042 350.760 250.200 347.814 C 247.560 345.077,247.148 344.693,247.148 344.971 M354.364 351.616 L 351.141 354.943 354.468 351.719 C 357.558 348.725,357.968 348.289,357.691 348.289 C 357.634 348.289,356.137 349.786,354.364 351.616 M116.540 351.711 C 117.782 352.966,118.883 353.992,118.988 353.992 C 119.092 353.992,118.162 352.966,116.920 351.711 C 115.678 350.456,114.577 349.430,114.472 349.430 C 114.368 349.430,115.298 350.456,116.540 351.711 M205.109 351.426 L 203.992 352.662 205.228 351.545 C 205.908 350.931,206.464 350.375,206.464 350.309 C 206.464 350.015,206.150 350.274,205.109 351.426 M258.811 355.163 C 259.283 355.735,261.597 357.190,261.597 356.916 C 261.597 356.828,260.870 356.275,259.981 355.689 C 259.092 355.103,258.566 354.867,258.811 355.163 M200.166 356.369 L 199.049 357.605 200.285 356.488 C 200.965 355.874,201.521 355.317,201.521 355.252 C 201.521 354.958,201.207 355.217,200.166 356.369 M340.684 361.217 C 339.534 361.824,338.727 362.330,338.891 362.339 C 339.295 362.364,342.966 360.490,342.966 360.260 C 342.966 360.006,343.019 359.984,340.684 361.217 M190.875 362.357 C 190.143 362.758,189.681 363.093,189.848 363.102 C 190.251 363.123,192.395 362.008,192.395 361.777 C 192.395 361.528,192.373 361.537,190.875 362.357 M152.186 368.323 C 152.552 368.419,153.151 368.419,153.517 368.323 C 153.883 368.227,153.584 368.149,152.852 368.149 C 152.120 368.149,151.820 368.227,152.186 368.323 M169.297 368.323 C 169.663 368.419,170.261 368.419,170.627 368.323 C 170.993 368.227,170.694 368.149,169.962 368.149 C 169.230 368.149,168.931 368.227,169.297 368.323 M295.913 368.323 C 296.279 368.419,296.877 368.419,297.243 368.323 C 297.609 368.227,297.310 368.149,296.578 368.149 C 295.846 368.149,295.547 368.227,295.913 368.323 M314.544 368.323 C 314.910 368.419,315.509 368.419,315.875 368.323 C 316.240 368.227,315.941 368.149,315.209 368.149 C 314.477 368.149,314.178 368.227,314.544 368.323 M158.668 368.724 C 160.298 368.795,162.864 368.795,164.371 368.723 C 165.878 368.651,164.544 368.593,161.407 368.593 C 158.270 368.594,157.037 368.653,158.668 368.724 M302.965 368.724 C 304.700 368.795,307.438 368.794,309.048 368.723 C 310.659 368.652,309.240 368.594,305.894 368.595 C 302.548 368.595,301.230 368.654,302.965 368.724 " stroke="none" fill="#c9b848" fill-rule="evenodd"></path><path id="path8" d="M286.020 230.418 C 286.020 231.150,286.098 231.450,286.194 231.084 C 286.289 230.718,286.289 230.119,286.194 229.753 C 286.098 229.387,286.020 229.686,286.020 230.418 M263.118 269.011 C 263.827 269.743,264.493 270.342,264.598 270.342 C 264.702 270.342,264.208 269.743,263.498 269.011 C 262.789 268.279,262.123 267.681,262.018 267.681 C 261.914 267.681,262.408 268.279,263.118 269.011 M276.996 323.574 C 277.813 324.411,278.567 325.095,278.671 325.095 C 278.776 325.095,278.193 324.411,277.376 323.574 C 276.560 322.738,275.806 322.053,275.701 322.053 C 275.597 322.053,276.179 322.738,276.996 323.574 M303.699 334.875 C 304.374 334.959,305.571 334.961,306.360 334.878 C 307.149 334.796,306.597 334.727,305.133 334.726 C 303.669 334.724,303.024 334.791,303.699 334.875 M202.641 353.897 L 201.331 355.323 202.757 354.013 C 204.084 352.793,204.357 352.471,204.067 352.471 C 204.003 352.471,203.362 353.113,202.641 353.897 " stroke="none" fill="#bcb444" fill-rule="evenodd"></path></g></svg>