<svg id="svg" version="1.1" xmlns="http://www.w3.org/2000/svg" xmlns:xlink="http://www.w3.org/1999/xlink" width="400" height="390.00000000000006" viewBox="0, 0, 400,390.00000000000006"><g id="svgg"><path id="path0" d="M114.927 99.912 C 111.922 100.069,105.568 100.219,100.806 100.245 C 96.044 100.271,91.698 100.464,91.147 100.673 L 90.146 101.054 90.146 187.815 C 90.146 254.775,90.253 274.682,90.615 275.044 C 91.200 275.629,124.348 275.712,125.268 275.130 C 125.776 274.809,125.879 271.144,126.049 247.335 L 126.244 219.910 139.317 219.903 C 156.458 219.895,162.297 219.245,174.196 216.020 C 193.925 210.673,209.641 194.865,213.788 176.195 C 214.027 175.122,214.413 173.375,214.648 172.314 C 215.872 166.769,215.893 150.899,214.681 146.882 C 214.494 146.263,214.119 144.790,213.848 143.610 C 211.893 135.102,207.826 127.262,201.752 120.293 C 200.209 118.522,198.832 117.071,198.693 117.069 C 198.553 117.067,197.732 116.388,196.867 115.561 C 191.637 110.558,179.309 104.443,170.146 102.306 C 166.207 101.387,162.337 100.684,158.829 100.251 C 154.526 99.719,123.232 99.477,114.927 99.912 M156.293 132.801 C 169.143 135.795,175.520 141.133,178.994 151.805 C 180.172 155.424,179.924 165.474,178.556 169.550 C 175.269 179.345,168.284 184.557,154.146 187.764 C 149.603 188.794,127.689 189.363,126.623 188.479 C 125.662 187.681,125.768 132.892,126.732 132.306 C 127.895 131.599,152.932 132.018,156.293 132.801 M278.049 141.105 C 267.777 142.515,263.428 143.697,257.063 146.808 C 232.665 158.730,226.667 189.908,245.254 208.195 C 250.985 213.834,260.367 219.428,271.220 223.677 C 273.902 224.727,276.449 225.738,276.878 225.924 C 277.307 226.109,278.624 226.647,279.805 227.120 C 292.029 232.013,296.781 237.225,294.123 242.826 C 292.844 245.521,290.782 246.934,286.244 248.225 C 283.621 248.972,267.893 249.000,264.000 248.265 C 253.043 246.197,247.664 244.461,239.351 240.310 C 233.641 237.458,234.146 236.087,234.146 254.445 L 234.146 270.086 235.077 270.945 C 236.073 271.866,242.234 274.423,245.819 275.404 C 250.416 276.662,256.900 277.778,263.415 278.432 C 272.870 279.382,285.010 279.110,291.512 277.803 C 297.441 276.611,301.252 275.573,302.922 274.697 C 303.294 274.502,303.781 274.341,304.003 274.341 C 305.845 274.341,314.863 268.823,318.462 265.493 C 331.039 253.856,334.290 232.827,325.734 218.457 C 322.301 212.690,316.896 207.856,308.683 203.206 C 303.704 200.387,289.303 193.951,287.975 193.951 C 287.620 193.951,281.398 191.084,276.707 188.758 C 266.115 183.506,266.015 173.851,276.525 171.058 C 279.718 170.209,291.153 170.115,295.659 170.900 C 307.412 172.949,311.588 174.094,317.837 176.980 C 323.824 179.746,323.512 180.529,323.512 162.740 L 323.512 147.946 322.634 146.981 C 321.520 145.757,315.644 143.746,310.439 142.807 C 302.972 141.460,283.077 140.415,278.049 141.105 " stroke="none" fill="#33abfb" fill-rule="evenodd"></path><path id="path1" d="M58.146 0.442 C 56.537 0.629,54.915 0.958,54.542 1.172 C 54.169 1.386,53.335 1.561,52.688 1.561 C 52.041 1.561,51.512 1.717,51.512 1.907 C 51.512 2.097,50.722 2.371,49.756 2.516 C 48.790 2.661,48.000 2.921,48.000 3.095 C 48.000 3.268,47.372 3.512,46.605 3.636 C 44.988 3.899,42.927 4.748,42.927 5.151 C 42.927 5.303,42.268 5.549,41.463 5.697 C 40.659 5.845,39.912 6.077,39.805 6.213 C 39.698 6.349,38.820 6.802,37.854 7.219 C 36.888 7.636,35.957 8.202,35.785 8.477 C 35.614 8.751,35.131 8.976,34.712 8.976 C 34.294 8.976,33.951 9.131,33.951 9.320 C 33.951 9.510,33.644 9.768,33.268 9.894 C 32.297 10.221,31.078 11.039,30.712 11.610 C 30.541 11.878,30.226 12.098,30.012 12.098 C 29.799 12.098,29.151 12.537,28.572 13.073 C 27.994 13.610,27.373 14.049,27.193 14.049 C 27.014 14.049,26.371 14.532,25.766 15.122 C 25.160 15.712,24.109 16.634,23.431 17.171 C 21.824 18.441,18.410 21.860,17.171 23.441 C 16.634 24.125,15.712 25.195,15.122 25.819 C 14.532 26.443,14.049 27.081,14.049 27.237 C 14.049 27.393,13.610 27.994,13.073 28.572 C 12.537 29.151,12.098 29.813,12.098 30.044 C 12.098 30.275,11.834 30.565,11.512 30.688 C 11.190 30.812,10.927 31.226,10.927 31.610 C 10.927 31.993,10.663 32.408,10.341 32.531 C 10.020 32.655,9.756 33.025,9.756 33.354 C 9.756 33.682,9.580 33.951,9.366 33.951 C 9.151 33.951,8.976 34.207,8.976 34.519 C 8.976 34.832,8.532 35.741,7.990 36.540 C 7.448 37.338,6.902 38.400,6.777 38.898 C 6.652 39.397,6.415 39.805,6.251 39.805 C 6.088 39.805,5.841 40.507,5.704 41.366 C 5.567 42.224,5.324 42.927,5.164 42.927 C 4.749 42.927,3.902 44.966,3.636 46.605 C 3.512 47.372,3.268 48.000,3.095 48.000 C 2.921 48.000,2.661 48.790,2.516 49.756 C 2.371 50.722,2.097 51.512,1.907 51.512 C 1.717 51.512,1.561 52.092,1.561 52.800 C 1.561 53.508,1.400 54.255,1.203 54.459 C -0.655 56.383,-0.655 333.860,1.203 335.785 C 1.400 335.989,1.561 336.736,1.561 337.444 C 1.561 338.152,1.717 338.732,1.907 338.732 C 2.097 338.732,2.371 339.522,2.516 340.488 C 2.661 341.454,2.921 342.244,3.095 342.244 C 3.268 342.244,3.512 342.872,3.636 343.639 C 3.902 345.278,4.749 347.317,5.164 347.317 C 5.324 347.317,5.567 348.020,5.704 348.878 C 5.841 349.737,6.088 350.439,6.251 350.439 C 6.415 350.439,6.652 350.847,6.777 351.346 C 6.902 351.844,7.448 352.906,7.990 353.704 C 8.532 354.503,8.976 355.412,8.976 355.725 C 8.976 356.037,9.151 356.293,9.366 356.293 C 9.580 356.293,9.756 356.562,9.756 356.890 C 9.756 357.219,10.020 357.589,10.341 357.713 C 10.663 357.836,10.927 358.251,10.927 358.634 C 10.927 359.017,11.190 359.432,11.512 359.556 C 11.834 359.679,12.098 359.969,12.098 360.200 C 12.098 360.431,12.537 361.093,13.073 361.672 C 13.610 362.250,14.049 362.851,14.049 363.007 C 14.049 363.163,14.532 363.801,15.122 364.425 C 15.712 365.049,16.634 366.119,17.171 366.803 C 18.410 368.384,21.824 371.803,23.431 373.073 C 24.109 373.610,25.160 374.532,25.766 375.122 C 26.371 375.712,27.014 376.195,27.193 376.195 C 27.373 376.195,27.994 376.634,28.572 377.171 C 29.151 377.707,29.799 378.146,30.012 378.146 C 30.226 378.146,30.541 378.366,30.712 378.634 C 31.078 379.205,32.297 380.023,33.268 380.350 C 33.644 380.476,33.951 380.734,33.951 380.924 C 33.951 381.113,34.294 381.268,34.712 381.268 C 35.131 381.268,35.614 381.493,35.785 381.767 C 35.957 382.042,36.888 382.608,37.854 383.025 C 38.820 383.442,39.698 383.895,39.805 384.031 C 39.912 384.166,40.659 384.399,41.463 384.547 C 42.268 384.695,42.927 384.941,42.927 385.093 C 42.927 385.496,44.988 386.345,46.605 386.607 C 47.372 386.732,48.000 386.976,48.000 387.149 C 48.000 387.322,48.790 387.583,49.756 387.728 C 50.722 387.873,51.512 388.147,51.512 388.337 C 51.512 388.527,52.092 388.683,52.800 388.683 C 53.508 388.683,54.255 388.844,54.459 389.041 C 56.385 390.901,343.615 390.901,345.541 389.041 C 345.745 388.844,346.492 388.683,347.200 388.683 C 347.908 388.683,348.488 388.527,348.488 388.337 C 348.488 388.147,349.278 387.873,350.244 387.728 C 351.210 387.583,352.000 387.322,352.000 387.149 C 352.000 386.976,352.628 386.732,353.395 386.607 C 355.012 386.345,357.073 385.496,357.073 385.093 C 357.073 384.941,357.732 384.695,358.537 384.547 C 359.341 384.399,360.088 384.166,360.195 384.031 C 360.302 383.895,361.180 383.442,362.146 383.025 C 363.112 382.608,364.043 382.042,364.215 381.767 C 364.386 381.493,364.869 381.268,365.288 381.268 C 365.706 381.268,366.049 381.113,366.049 380.924 C 366.049 380.734,366.356 380.476,366.732 380.350 C 367.703 380.023,368.922 379.205,369.288 378.634 C 369.459 378.366,369.774 378.146,369.988 378.146 C 370.201 378.146,370.849 377.707,371.428 377.171 C 372.006 376.634,372.627 376.195,372.807 376.195 C 372.986 376.195,373.629 375.712,374.234 375.122 C 374.840 374.532,375.891 373.610,376.569 373.073 C 378.176 371.803,381.590 368.384,382.829 366.803 C 383.366 366.119,384.288 365.049,384.878 364.425 C 385.468 363.801,385.951 363.163,385.951 363.007 C 385.951 362.851,386.355 362.287,386.849 361.752 C 387.343 361.218,387.865 360.473,388.008 360.098 C 388.151 359.722,388.449 359.415,388.671 359.415 C 388.892 359.415,389.073 359.082,389.073 358.676 C 389.073 358.270,389.337 357.836,389.659 357.713 C 389.980 357.589,390.244 357.219,390.244 356.890 C 390.244 356.562,390.420 356.293,390.634 356.293 C 390.849 356.293,391.024 356.037,391.024 355.725 C 391.024 355.412,391.468 354.503,392.010 353.704 C 392.552 352.906,393.098 351.844,393.223 351.346 C 393.348 350.847,393.585 350.439,393.749 350.439 C 393.912 350.439,394.159 349.737,394.296 348.878 C 394.433 348.020,394.676 347.317,394.836 347.317 C 395.251 347.317,396.098 345.278,396.364 343.639 C 396.488 342.872,396.732 342.244,396.905 342.244 C 397.079 342.244,397.339 341.454,397.484 340.488 C 397.629 339.522,397.903 338.732,398.093 338.732 C 398.283 338.732,398.439 338.152,398.439 337.444 C 398.439 336.736,398.600 335.989,398.797 335.785 C 400.655 333.860,400.655 56.383,398.797 54.459 C 398.600 54.255,398.439 53.508,398.439 52.800 C 398.439 52.092,398.283 51.512,398.093 51.512 C 397.903 51.512,397.629 50.722,397.484 49.756 C 397.339 48.790,397.079 48.000,396.905 48.000 C 396.732 48.000,396.488 47.372,396.364 46.605 C 396.098 44.966,395.251 42.927,394.836 42.927 C 394.676 42.927,394.433 42.224,394.296 41.366 C 394.159 40.507,393.912 39.805,393.749 39.805 C 393.585 39.805,393.348 39.397,393.223 38.898 C 393.098 38.400,392.552 37.338,392.010 36.540 C 391.468 35.741,391.024 34.832,391.024 34.519 C 391.024 34.207,390.849 33.951,390.634 33.951 C 390.420 33.951,390.244 33.682,390.244 33.354 C 390.244 33.025,389.980 32.655,389.659 32.531 C 389.337 32.408,389.073 31.974,389.073 31.568 C 389.073 31.162,388.892 30.829,388.671 30.829 C 388.449 30.829,388.151 30.522,388.008 30.146 C 387.865 29.771,387.343 29.026,386.849 28.492 C 386.355 27.957,385.951 27.393,385.951 27.237 C 385.951 27.081,385.468 26.443,384.878 25.819 C 384.288 25.195,383.366 24.125,382.829 23.441 C 381.590 21.860,378.176 18.441,376.569 17.171 C 375.891 16.634,374.840 15.712,374.234 15.122 C 373.629 14.532,372.986 14.049,372.807 14.049 C 372.627 14.049,372.006 13.610,371.428 13.073 C 370.849 12.537,370.201 12.098,369.988 12.098 C 369.774 12.098,369.459 11.878,369.288 11.610 C 368.922 11.039,367.703 10.221,366.732 9.894 C 366.356 9.768,366.049 9.510,366.049 9.320 C 366.049 9.131,365.706 8.976,365.288 8.976 C 364.869 8.976,364.386 8.751,364.215 8.477 C 364.043 8.202,363.112 7.636,362.146 7.219 C 361.180 6.802,360.302 6.349,360.195 6.213 C 360.088 6.077,359.341 5.845,358.537 5.697 C 357.732 5.549,357.073 5.303,357.073 5.151 C 357.073 4.748,355.012 3.899,353.395 3.636 C 352.628 3.512,352.000 3.268,352.000 3.095 C 352.000 2.921,351.210 2.661,350.244 2.516 C 349.278 2.371,348.488 2.097,348.488 1.907 C 348.488 1.717,347.908 1.561,347.200 1.561 C 346.492 1.561,345.745 1.400,345.541 1.203 C 344.379 0.080,334.267 0.001,198.859 0.050 C 123.077 0.078,59.756 0.254,58.146 0.442 M152.585 99.149 C 160.814 99.740,167.489 100.694,169.068 101.505 C 169.441 101.697,170.096 101.854,170.525 101.854 C 171.392 101.854,177.846 103.909,179.766 104.797 C 180.443 105.110,181.176 105.366,181.397 105.366 C 182.075 105.366,189.320 109.244,191.849 110.961 C 197.381 114.717,202.855 120.007,205.854 124.494 C 206.927 126.101,207.893 127.502,208.000 127.610 C 208.174 127.784,209.170 129.529,210.005 131.122 C 211.563 134.094,213.854 140.253,213.854 141.469 C 213.854 141.917,214.002 142.450,214.184 142.654 C 215.211 143.808,216.765 156.356,216.454 160.988 C 215.943 168.608,214.865 176.181,214.181 176.956 C 214.001 177.160,213.854 177.620,213.854 177.978 C 213.854 179.263,211.567 185.507,210.005 188.488 C 209.307 189.821,208.176 191.808,207.902 192.183 C 207.741 192.404,206.803 193.705,205.817 195.074 C 204.202 197.319,203.216 198.502,200.780 201.121 C 199.740 202.240,194.326 206.872,193.196 207.610 C 192.703 207.932,191.922 208.483,191.460 208.835 C 189.746 210.141,184.039 213.168,181.570 214.080 C 180.546 214.459,179.532 214.898,179.317 215.057 C 179.102 215.215,178.266 215.468,177.459 215.619 C 176.652 215.770,175.895 216.049,175.778 216.239 C 175.660 216.430,175.058 216.585,174.439 216.585 C 173.820 216.585,173.216 216.745,173.096 216.939 C 172.976 217.134,171.962 217.419,170.844 217.572 C 169.726 217.726,168.541 217.993,168.211 218.166 C 165.374 219.649,146.822 221.023,134.732 220.644 L 126.439 220.385 126.439 247.675 C 126.439 268.381,126.326 275.079,125.971 275.434 C 125.297 276.108,90.898 276.108,90.224 275.434 C 89.525 274.735,89.545 100.947,90.244 100.389 C 91.417 99.454,142.629 98.435,152.585 99.149 M126.829 160.340 L 126.829 188.018 132.022 188.296 C 139.864 188.716,155.537 187.573,156.663 186.500 C 156.867 186.305,157.394 186.141,157.834 186.134 C 158.575 186.122,161.005 185.335,163.635 184.256 C 164.239 184.008,164.834 183.805,164.958 183.805 C 165.941 183.805,172.100 179.015,173.860 176.881 C 175.730 174.615,176.338 173.602,177.554 170.732 C 179.638 165.813,179.652 154.352,177.580 149.659 C 175.656 145.302,174.805 143.988,172.285 141.482 C 168.948 138.163,169.020 138.216,165.854 136.690 C 158.985 133.379,156.248 132.962,140.390 132.801 L 126.829 132.663 126.829 160.340 M300.683 140.894 C 301.971 141.096,304.517 141.427,306.341 141.630 C 311.835 142.240,319.861 144.212,320.956 145.220 C 321.160 145.407,321.616 145.561,321.969 145.561 C 322.322 145.561,322.945 145.931,323.354 146.382 C 324.376 147.511,324.525 177.702,323.512 178.359 C 322.452 179.047,321.124 179.228,320.263 178.804 C 319.796 178.574,318.361 177.922,317.073 177.354 C 315.785 176.787,314.205 176.091,313.561 175.807 C 312.469 175.327,311.466 175.018,305.978 173.474 C 304.812 173.146,303.449 172.878,302.948 172.878 C 302.448 172.878,301.733 172.713,301.361 172.512 C 298.065 170.733,273.951 170.762,273.951 172.545 C 273.951 172.728,273.715 172.878,273.427 172.878 C 271.055 172.878,268.791 177.851,269.672 181.123 C 270.598 184.562,284.532 193.561,288.931 193.561 C 289.252 193.561,289.609 193.714,289.725 193.901 C 289.840 194.088,290.439 194.341,291.055 194.465 C 291.672 194.588,293.212 195.148,294.478 195.708 C 295.744 196.269,297.132 196.876,297.561 197.058 C 304.528 200.009,314.805 205.882,318.211 208.860 C 322.051 212.218,327.024 218.253,327.024 219.556 C 327.024 219.818,327.167 220.091,327.342 220.163 C 327.768 220.337,329.719 225.665,330.248 228.098 C 330.802 230.651,330.794 243.127,330.236 245.764 C 327.920 256.703,319.860 267.251,310.038 272.195 C 309.186 272.624,308.429 273.107,308.358 273.268 C 308.286 273.429,308.049 273.561,307.831 273.561 C 307.613 273.561,306.838 273.824,306.108 274.146 C 305.378 274.468,304.183 274.995,303.453 275.317 C 302.723 275.639,301.792 275.902,301.385 275.902 C 300.977 275.902,300.477 276.054,300.273 276.238 C 300.069 276.423,298.585 276.878,296.976 277.250 C 295.366 277.622,293.434 278.090,292.683 278.290 C 288.511 279.401,271.417 280.179,266.927 279.463 C 265.532 279.240,262.634 278.886,260.488 278.677 C 258.341 278.467,255.707 278.135,254.634 277.939 C 250.073 277.105,247.561 276.567,246.829 276.267 C 246.400 276.092,245.434 275.830,244.683 275.685 C 243.932 275.540,243.141 275.303,242.927 275.157 C 242.712 275.012,241.571 274.560,240.390 274.153 C 239.210 273.746,237.805 273.184,237.268 272.904 C 236.732 272.624,236.089 272.394,235.840 272.393 C 235.590 272.391,234.932 271.850,234.376 271.190 L 233.366 269.989 233.366 254.579 C 233.366 236.655,233.393 236.524,236.683 238.293 C 240.928 240.575,246.446 243.054,249.171 243.902 C 250.029 244.170,251.002 244.521,251.332 244.683 C 251.662 244.844,252.709 245.108,253.659 245.268 C 254.608 245.429,255.655 245.694,255.985 245.858 C 257.262 246.493,263.892 247.662,269.463 248.234 C 273.889 248.689,284.835 248.394,285.425 247.804 C 285.639 247.590,286.196 247.415,286.663 247.415 C 287.129 247.415,288.279 247.064,289.219 246.634 C 296.445 243.333,295.674 235.627,287.711 231.576 C 286.904 231.165,286.185 230.698,286.114 230.537 C 286.042 230.376,285.813 230.244,285.605 230.244 C 285.396 230.244,284.401 229.869,283.393 229.411 C 282.385 228.953,280.650 228.163,279.537 227.655 C 278.424 227.147,277.360 226.732,277.171 226.732 C 276.983 226.732,276.093 226.376,275.193 225.941 C 274.293 225.506,273.031 225.045,272.388 224.917 C 271.745 224.788,271.220 224.529,271.220 224.341 C 271.220 224.154,270.946 224.000,270.613 224.000 C 268.945 224.000,252.888 215.784,252.881 214.927 C 252.879 214.766,252.695 214.634,252.471 214.634 C 249.631 214.634,238.983 202.773,236.706 197.073 C 236.320 196.107,235.848 194.966,235.658 194.537 C 233.450 189.558,233.471 172.818,235.688 169.951 C 235.854 169.737,236.115 169.034,236.267 168.390 C 237.080 164.952,241.191 158.489,245.073 154.546 C 248.950 150.609,258.819 144.390,261.191 144.390 C 261.470 144.390,261.864 144.242,262.068 144.061 C 262.399 143.768,263.323 143.474,268.488 142.017 C 274.277 140.383,293.210 139.723,300.683 140.894 " stroke="none" fill="#041c34" fill-rule="evenodd"></path><path id="path2" d="M125.574 99.410 C 126.708 99.489,128.464 99.488,129.476 99.408 C 130.489 99.328,129.561 99.263,127.415 99.264 C 125.268 99.265,124.440 99.331,125.574 99.410 M149.756 99.397 C 150.239 99.490,151.029 99.490,151.512 99.397 C 151.995 99.304,151.600 99.228,150.634 99.228 C 149.668 99.228,149.273 99.304,149.756 99.397 M108.780 99.788 C 109.263 99.881,110.054 99.881,110.537 99.788 C 111.020 99.695,110.624 99.618,109.659 99.618 C 108.693 99.618,108.298 99.695,108.780 99.788 M92.000 100.185 C 92.698 100.271,93.839 100.271,94.537 100.185 C 95.234 100.098,94.663 100.027,93.268 100.027 C 91.873 100.027,91.302 100.098,92.000 100.185 M278.931 140.764 C 279.417 140.857,280.119 140.854,280.492 140.756 C 280.865 140.658,280.468 140.582,279.610 140.586 C 278.751 140.591,278.446 140.670,278.931 140.764 M294.347 140.768 C 294.940 140.858,295.818 140.855,296.298 140.763 C 296.778 140.670,296.293 140.596,295.220 140.599 C 294.146 140.602,293.754 140.678,294.347 140.768 M215.903 162.927 C 215.908 163.785,215.988 164.091,216.081 163.605 C 216.174 163.120,216.171 162.417,216.073 162.044 C 215.975 161.671,215.899 162.068,215.903 162.927 M179.212 163.512 C 179.212 164.263,179.293 164.571,179.391 164.195 C 179.489 163.820,179.489 163.205,179.391 162.829 C 179.293 162.454,179.212 162.761,179.212 163.512 M286.732 170.819 C 287.429 170.905,288.571 170.905,289.268 170.819 C 289.966 170.732,289.395 170.661,288.000 170.661 C 286.605 170.661,286.034 170.732,286.732 170.819 M133.971 188.779 C 136.075 188.849,139.412 188.849,141.386 188.778 C 143.360 188.708,141.639 188.650,137.561 188.650 C 133.483 188.651,131.868 188.709,133.971 188.779 M134.541 220.374 C 135.027 220.467,135.729 220.463,136.102 220.366 C 136.475 220.268,136.078 220.192,135.220 220.196 C 134.361 220.200,134.056 220.280,134.541 220.374 M144.284 220.379 C 144.977 220.465,146.206 220.467,147.016 220.382 C 147.825 220.298,147.259 220.227,145.756 220.226 C 144.254 220.224,143.591 220.293,144.284 220.379 M330.681 236.878 C 330.681 239.132,330.745 240.054,330.824 238.927 C 330.903 237.800,330.903 235.956,330.824 234.829 C 330.745 233.702,330.681 234.624,330.681 236.878 M272.300 248.868 C 273.001 248.955,274.055 248.953,274.641 248.864 C 275.228 248.775,274.654 248.704,273.366 248.706 C 272.078 248.708,271.598 248.781,272.300 248.868 M277.951 248.865 C 278.541 248.954,279.507 248.954,280.098 248.865 C 280.688 248.775,280.205 248.702,279.024 248.702 C 277.844 248.702,277.361 248.775,277.951 248.865 " stroke="none" fill="#114e7d" fill-rule="evenodd"></path><path id="path3" d="M135.512 99.023 C 138.034 99.091,142.161 99.091,144.683 99.023 C 147.205 98.955,145.141 98.900,140.098 98.900 C 135.054 98.900,132.990 98.955,135.512 99.023 M112.313 99.413 C 114.525 99.483,118.037 99.483,120.118 99.413 C 122.200 99.343,120.390 99.286,116.098 99.286 C 111.805 99.286,110.102 99.344,112.313 99.413 M153.268 99.404 C 153.966 99.491,155.107 99.491,155.805 99.404 C 156.502 99.318,155.932 99.247,154.537 99.247 C 153.141 99.247,152.571 99.318,153.268 99.404 M104.488 99.794 C 105.185 99.881,106.327 99.881,107.024 99.794 C 107.722 99.708,107.151 99.637,105.756 99.637 C 104.361 99.637,103.790 99.708,104.488 99.794 M161.951 100.293 C 162.488 100.465,163.366 100.602,163.902 100.598 C 164.779 100.591,164.759 100.560,163.707 100.293 C 162.057 99.873,160.640 99.873,161.951 100.293 M129.659 132.572 C 130.249 132.662,131.215 132.662,131.805 132.572 C 132.395 132.483,131.912 132.410,130.732 132.410 C 129.551 132.410,129.068 132.483,129.659 132.572 M137.854 132.584 C 140.161 132.653,143.937 132.653,146.244 132.584 C 148.551 132.515,146.663 132.458,142.049 132.458 C 137.434 132.458,135.546 132.515,137.854 132.584 M126.624 160.390 C 126.624 175.737,126.672 182.015,126.732 174.341 C 126.791 166.668,126.791 154.112,126.732 146.439 C 126.672 138.766,126.624 145.044,126.624 160.390 M154.146 133.055 C 154.468 133.273,155.068 133.454,155.480 133.457 C 156.478 133.465,156.167 133.242,154.732 132.921 C 153.877 132.730,153.719 132.766,154.146 133.055 M172.098 141.073 C 172.826 141.824,173.509 142.439,173.617 142.439 C 173.724 142.439,173.216 141.824,172.488 141.073 C 171.760 140.322,171.076 139.707,170.969 139.707 C 170.862 139.707,171.369 140.322,172.098 141.073 M285.571 140.384 C 286.489 140.466,287.894 140.465,288.693 140.381 C 289.492 140.297,288.741 140.230,287.024 140.231 C 285.307 140.233,284.653 140.301,285.571 140.384 M275.317 140.888 C 274.796 141.119,275.120 141.157,276.293 141.002 C 277.259 140.874,278.122 140.706,278.211 140.629 C 278.550 140.335,276.062 140.558,275.317 140.888 M297.008 140.630 C 297.098 140.708,298.137 140.872,299.317 140.994 C 300.703 141.138,301.118 141.101,300.488 140.891 C 299.521 140.569,296.695 140.357,297.008 140.630 M268.488 142.067 C 268.060 142.356,268.218 142.392,269.073 142.201 C 270.508 141.880,270.820 141.657,269.821 141.665 C 269.410 141.668,268.810 141.849,268.488 142.067 M307.154 141.798 C 307.244 141.875,308.020 142.046,308.878 142.178 C 309.941 142.341,310.252 142.298,309.854 142.044 C 309.320 141.704,306.776 141.473,307.154 141.798 M312.585 142.811 C 312.907 143.029,313.507 143.210,313.919 143.214 C 314.917 143.222,314.606 142.998,313.171 142.677 C 312.316 142.486,312.158 142.522,312.585 142.811 M322.843 146.459 C 323.318 146.953,323.779 147.305,323.868 147.242 C 324.095 147.078,322.675 145.561,322.295 145.561 C 322.121 145.561,322.368 145.965,322.843 146.459 M215.102 147.317 C 215.102 147.746,215.243 148.537,215.415 149.073 C 215.662 149.846,215.727 149.886,215.727 149.268 C 215.727 148.839,215.586 148.049,215.415 147.512 C 215.167 146.740,215.102 146.699,215.102 147.317 M176.993 148.390 C 177.139 148.873,177.419 149.440,177.615 149.650 C 177.812 149.859,177.775 149.464,177.533 148.772 C 177.039 147.354,176.583 147.032,176.993 148.390 M324.078 163.122 C 324.078 170.741,324.131 173.859,324.195 170.049 C 324.258 166.239,324.258 160.005,324.195 156.195 C 324.131 152.385,324.078 155.502,324.078 163.122 M178.189 151.610 C 178.510 153.045,178.734 153.356,178.726 152.358 C 178.722 151.946,178.542 151.346,178.324 151.024 C 178.034 150.597,177.998 150.755,178.189 151.610 M216.343 159.220 C 216.343 161.688,216.406 162.698,216.484 161.463 C 216.561 160.229,216.561 158.210,216.484 156.976 C 216.406 155.741,216.343 156.751,216.343 159.220 M179.256 159.415 C 179.257 161.132,179.326 161.786,179.408 160.868 C 179.491 159.950,179.489 158.545,179.406 157.746 C 179.322 156.947,179.254 157.698,179.256 159.415 M178.387 167.480 C 178.362 167.838,178.240 168.453,178.117 168.846 C 177.904 169.524,177.916 169.525,178.338 168.866 C 178.584 168.483,178.705 167.869,178.608 167.500 C 178.449 166.896,178.428 166.894,178.387 167.480 M283.220 170.812 C 283.702 170.905,284.493 170.905,284.976 170.812 C 285.459 170.719,285.063 170.643,284.098 170.643 C 283.132 170.643,282.737 170.719,283.220 170.812 M294.931 171.593 C 295.417 171.686,296.119 171.683,296.492 171.585 C 296.865 171.488,296.468 171.411,295.610 171.415 C 294.751 171.420,294.446 171.500,294.931 171.593 M234.390 174.649 C 234.256 174.998,234.161 175.576,234.180 175.934 C 234.198 176.292,234.368 176.067,234.557 175.434 C 234.925 174.203,234.795 173.593,234.390 174.649 M173.928 176.881 C 172.181 179.147,172.162 179.195,173.656 177.561 C 175.089 175.994,176.219 174.434,175.916 174.442 C 175.855 174.444,174.960 175.542,173.928 176.881 M269.066 178.439 C 268.936 179.137,268.978 180.109,269.160 180.600 C 269.409 181.270,269.491 180.955,269.491 179.331 C 269.491 176.849,269.400 176.657,269.066 178.439 M320.257 178.829 C 320.491 179.211,322.012 179.195,322.627 178.805 C 322.904 178.629,322.466 178.507,321.593 178.518 C 320.760 178.528,320.158 178.668,320.257 178.829 M233.897 182.634 C 233.897 184.673,233.963 185.507,234.043 184.488 C 234.123 183.468,234.123 181.800,234.043 180.780 C 233.963 179.761,233.897 180.595,233.897 182.634 M150.634 187.702 C 150.236 187.956,150.547 187.999,151.610 187.836 C 153.539 187.540,153.867 187.315,152.358 187.323 C 151.732 187.326,150.956 187.497,150.634 187.702 M128.878 188.377 C 129.468 188.466,130.434 188.466,131.024 188.377 C 131.615 188.288,131.132 188.215,129.951 188.215 C 128.771 188.215,128.288 188.288,128.878 188.377 M143.707 188.377 C 144.298 188.466,145.263 188.466,145.854 188.377 C 146.444 188.288,145.961 188.215,144.780 188.215 C 143.600 188.215,143.117 188.288,143.707 188.377 M197.833 203.610 L 196.488 205.073 197.951 203.728 C 199.313 202.477,199.594 202.146,199.296 202.146 C 199.231 202.146,198.572 202.805,197.833 203.610 M194.537 206.293 C 193.835 206.890,193.691 207.127,194.178 206.885 C 194.894 206.530,196.235 205.245,195.853 205.282 C 195.773 205.290,195.180 205.745,194.537 206.293 M244.488 208.390 C 245.762 209.678,246.893 210.732,247.000 210.732 C 247.107 210.732,246.152 209.678,244.878 208.390 C 243.604 207.102,242.473 206.049,242.366 206.049 C 242.259 206.049,243.213 207.102,244.488 208.390 M160.585 219.317 C 159.534 219.585,159.514 219.616,160.390 219.622 C 160.927 219.626,161.805 219.489,162.341 219.317 C 163.653 218.897,162.236 218.897,160.585 219.317 M128.306 220.386 C 129.440 220.465,131.196 220.464,132.208 220.384 C 133.221 220.304,132.293 220.239,130.146 220.240 C 128.000 220.241,127.172 220.307,128.306 220.386 M149.756 220.383 C 150.668 220.465,152.161 220.465,153.073 220.383 C 153.985 220.301,153.239 220.234,151.415 220.234 C 149.590 220.234,148.844 220.301,149.756 220.383 M137.837 220.777 C 139.276 220.852,141.735 220.852,143.300 220.778 C 144.865 220.704,143.688 220.642,140.683 220.642 C 137.678 220.641,136.397 220.702,137.837 220.777 M330.422 231.045 C 330.544 231.999,330.708 232.854,330.785 232.943 C 331.104 233.309,330.887 230.395,330.557 229.874 C 330.326 229.508,330.278 229.922,330.422 231.045 M291.512 234.341 C 292.240 235.093,292.924 235.707,293.031 235.707 C 293.138 235.707,292.631 235.093,291.902 234.341 C 291.174 233.590,290.491 232.976,290.383 232.976 C 290.276 232.976,290.784 233.590,291.512 234.341 M233.544 254.439 C 233.544 263.132,233.595 266.688,233.658 262.341 C 233.721 257.995,233.721 250.883,233.658 246.537 C 233.595 242.190,233.544 245.746,233.544 254.439 M330.599 241.822 C 330.565 242.502,330.436 243.380,330.312 243.773 C 330.100 244.447,330.112 244.449,330.531 243.796 C 330.775 243.416,330.904 242.538,330.818 241.845 L 330.661 240.585 330.599 241.822 M258.146 246.634 C 258.576 246.819,259.278 246.964,259.707 246.958 C 260.335 246.949,260.296 246.885,259.512 246.634 C 258.178 246.207,257.152 246.207,258.146 246.634 M263.447 247.555 C 263.537 247.632,264.137 247.813,264.780 247.957 C 265.635 248.148,265.793 248.112,265.366 247.823 C 264.839 247.466,263.056 247.217,263.447 247.555 M319.199 265.268 L 317.854 266.732 319.317 265.387 C 320.122 264.647,320.780 263.989,320.780 263.923 C 320.780 263.625,320.450 263.906,319.199 265.268 M315.122 268.732 C 314.420 269.329,314.277 269.566,314.764 269.324 C 315.479 268.969,316.821 267.684,316.438 267.721 C 316.358 267.729,315.766 268.184,315.122 268.732 M234.622 271.427 C 235.206 272.042,235.754 272.465,235.839 272.370 C 235.925 272.274,235.447 271.771,234.778 271.253 L 233.561 270.311 234.622 271.427 M302.634 275.331 C 301.654 275.803,301.622 275.856,302.439 275.660 C 302.976 275.530,303.581 275.269,303.785 275.078 C 304.291 274.605,304.013 274.666,302.634 275.331 M295.220 277.463 C 294.728 277.675,294.655 277.799,295.024 277.799 C 295.346 277.799,295.961 277.648,296.390 277.463 C 296.882 277.252,296.954 277.128,296.585 277.128 C 296.263 277.128,295.649 277.279,295.220 277.463 M256.411 278.265 C 256.932 278.595,259.846 278.811,259.480 278.493 C 259.390 278.415,258.536 278.251,257.581 278.129 C 256.458 277.986,256.045 278.033,256.411 278.265 M291.122 278.244 C 289.772 278.528,289.769 278.532,290.927 278.577 C 291.571 278.602,292.361 278.452,292.683 278.244 C 293.333 277.824,293.117 277.824,291.122 278.244 M267.001 279.473 C 267.497 279.613,271.151 279.727,275.122 279.727 C 279.093 279.727,282.747 279.613,283.243 279.473 C 283.738 279.334,280.084 279.220,275.122 279.220 C 270.160 279.220,266.506 279.334,267.001 279.473 " stroke="none" fill="#0c3c60" fill-rule="evenodd"></path><path id="path4" d="M135.512 99.413 C 138.034 99.481,142.161 99.481,144.683 99.413 C 147.205 99.345,145.141 99.290,140.098 99.290 C 135.054 99.290,132.990 99.345,135.512 99.413 M113.479 99.802 C 114.829 99.878,116.936 99.877,118.162 99.800 C 119.387 99.723,118.283 99.660,115.707 99.661 C 113.132 99.662,112.129 99.725,113.479 99.802 M153.854 99.781 C 154.229 99.879,154.844 99.879,155.220 99.781 C 155.595 99.683,155.288 99.603,154.537 99.603 C 153.785 99.603,153.478 99.683,153.854 99.781 M99.435 100.194 C 101.647 100.263,105.159 100.263,107.240 100.193 C 109.322 100.123,107.512 100.066,103.220 100.066 C 98.927 100.067,97.224 100.124,99.435 100.194 M156.976 100.182 C 157.566 100.271,158.532 100.271,159.122 100.182 C 159.712 100.093,159.229 100.019,158.049 100.019 C 156.868 100.019,156.385 100.093,156.976 100.182 M164.293 101.073 C 164.829 101.245,165.707 101.382,166.244 101.378 C 167.120 101.372,167.100 101.341,166.049 101.073 C 164.398 100.653,162.981 100.653,164.293 101.073 M169.756 102.244 C 171.090 102.671,172.116 102.671,171.122 102.244 C 170.693 102.059,169.990 101.914,169.561 101.920 C 168.934 101.929,168.972 101.993,169.756 102.244 M89.948 187.902 C 89.948 235.122,89.993 254.381,90.049 230.700 C 90.104 207.020,90.104 168.386,90.049 144.847 C 89.993 121.308,89.948 140.683,89.948 187.902 M183.837 107.074 C 184.237 107.435,187.317 108.874,187.317 108.699 C 187.317 108.477,184.372 106.927,183.951 106.927 C 183.799 106.927,183.748 106.993,183.837 107.074 M190.244 110.641 C 190.673 110.991,191.376 111.449,191.805 111.660 L 192.585 112.043 191.805 111.408 C 191.376 111.058,190.673 110.600,190.244 110.389 L 189.463 110.006 190.244 110.641 M195.549 114.439 C 195.641 114.493,196.416 115.151,197.273 115.902 L 198.829 117.268 197.484 115.805 C 196.745 115.000,195.969 114.341,195.761 114.341 C 195.553 114.341,195.457 114.385,195.549 114.439 M200.918 119.339 C 202.067 120.670,203.209 121.882,203.455 122.031 C 203.701 122.180,202.962 121.212,201.813 119.881 C 200.665 118.549,199.523 117.338,199.277 117.189 C 199.031 117.040,199.769 118.007,200.918 119.339 M204.658 123.836 C 205.259 124.624,205.830 125.268,205.927 125.268 C 206.198 125.268,204.508 122.985,204.009 122.677 C 203.765 122.526,204.057 123.048,204.658 123.836 M126.732 132.324 C 125.862 132.831,125.652 187.545,126.517 188.410 C 126.775 188.667,127.784 188.850,128.761 188.817 L 130.537 188.755 128.585 188.524 L 126.634 188.293 126.534 160.496 L 126.434 132.699 127.400 132.457 C 127.931 132.323,134.298 132.276,141.549 132.351 C 148.799 132.426,153.854 132.371,152.780 132.229 C 149.541 131.800,127.493 131.880,126.732 132.324 M209.968 132.340 C 209.959 132.474,210.393 133.527,210.933 134.682 C 211.473 135.836,211.802 136.341,211.664 135.805 C 211.402 134.786,209.998 131.918,209.968 132.340 M157.854 133.463 C 158.283 133.648,158.898 133.799,159.220 133.799 C 159.588 133.799,159.516 133.675,159.024 133.463 C 158.595 133.279,157.980 133.128,157.659 133.128 C 157.290 133.128,157.362 133.252,157.854 133.463 M168.585 137.627 C 169.840 138.493,174.858 143.508,175.745 144.780 C 176.346 145.644,176.344 145.607,175.724 144.461 C 174.896 142.928,169.981 138.078,168.585 137.416 L 167.610 136.953 168.585 137.627 M213.311 141.463 C 213.632 142.898,213.856 143.210,213.848 142.211 C 213.844 141.800,213.663 141.200,213.446 140.878 C 213.156 140.451,213.120 140.608,213.311 141.463 M284.000 140.778 C 285.771 140.850,288.668 140.850,290.439 140.778 C 292.210 140.706,290.761 140.647,287.220 140.647 C 283.678 140.647,282.229 140.706,284.000 140.778 M277.171 141.147 C 277.546 141.245,278.161 141.245,278.537 141.147 C 278.912 141.049,278.605 140.969,277.854 140.969 C 277.102 140.969,276.795 141.049,277.171 141.147 M296.488 141.153 C 296.971 141.246,297.761 141.246,298.244 141.153 C 298.727 141.060,298.332 140.984,297.366 140.984 C 296.400 140.984,296.005 141.060,296.488 141.153 M272.195 141.659 C 271.151 141.924,271.130 141.956,272.000 141.956 C 272.537 141.956,273.502 141.822,274.146 141.659 C 275.191 141.393,275.212 141.361,274.341 141.361 C 273.805 141.361,272.839 141.495,272.195 141.659 M300.520 141.415 C 300.610 141.496,301.912 141.661,303.415 141.781 C 305.514 141.950,305.785 141.921,304.585 141.657 C 303.008 141.310,300.220 141.144,300.520 141.415 M309.106 142.580 C 309.195 142.657,310.059 142.825,311.024 142.953 C 312.197 143.108,312.521 143.070,312.000 142.839 C 311.255 142.509,308.767 142.286,309.106 142.580 M314.146 143.592 C 314.468 143.810,315.068 143.991,315.480 143.994 C 316.478 144.002,316.167 143.779,314.732 143.458 C 313.877 143.266,313.719 143.303,314.146 143.592 M214.310 145.366 C 214.304 145.795,214.450 146.498,214.634 146.927 C 215.061 147.921,215.061 146.895,214.634 145.561 C 214.383 144.777,214.319 144.738,214.310 145.366 M322.705 146.981 C 323.865 148.457,323.981 177.249,322.829 177.920 C 322.454 178.139,322.331 178.323,322.556 178.330 C 323.822 178.366,323.902 177.442,323.902 162.867 C 323.902 148.176,323.772 146.675,322.457 146.170 C 322.096 146.031,322.184 146.319,322.705 146.981 M251.993 149.282 C 251.192 149.827,250.537 150.356,250.537 150.459 C 250.537 150.561,251.239 150.180,252.098 149.612 C 253.461 148.710,253.921 148.293,253.554 148.293 C 253.497 148.293,252.794 148.738,251.993 149.282 M245.518 154.829 C 243.234 157.137,241.049 159.595,240.661 160.293 C 239.588 162.223,240.089 161.810,241.755 159.392 C 242.576 158.199,244.823 155.740,246.748 153.928 C 248.673 152.117,250.117 150.634,249.958 150.634 C 249.799 150.634,247.801 152.522,245.518 154.829 M215.699 156.098 C 215.810 158.995,215.967 161.439,216.048 161.528 C 216.288 161.794,216.122 156.510,215.798 153.561 C 215.596 151.732,215.564 152.571,215.699 156.098 M178.988 153.171 C 179.119 154.029,179.290 154.805,179.369 154.894 C 179.664 155.230,179.443 153.139,179.104 152.390 C 178.857 151.846,178.822 152.083,178.988 153.171 M179.649 159.610 C 179.649 161.434,179.716 162.180,179.798 161.268 C 179.880 160.356,179.880 158.863,179.798 157.951 C 179.716 157.039,179.649 157.785,179.649 159.610 M215.548 164.878 C 215.550 166.595,215.618 167.249,215.701 166.331 C 215.783 165.413,215.782 164.008,215.698 163.209 C 215.614 162.410,215.547 163.161,215.548 164.878 M178.979 166.199 C 178.829 167.140,178.788 167.991,178.889 168.092 C 179.151 168.354,179.624 165.605,179.422 164.997 C 179.329 164.718,179.130 165.259,178.979 166.199 M177.995 170.190 C 177.754 170.879,177.626 171.512,177.709 171.595 C 177.793 171.679,178.058 171.183,178.298 170.493 C 178.539 169.804,178.667 169.171,178.583 169.088 C 178.500 169.004,178.235 169.500,177.995 170.190 M283.024 170.433 C 284.044 170.514,285.712 170.514,286.732 170.433 C 287.751 170.353,286.917 170.287,284.878 170.287 C 282.839 170.287,282.005 170.353,283.024 170.433 M277.268 170.930 C 276.766 171.147,277.184 171.187,278.439 171.042 C 279.512 170.918,280.463 170.754,280.553 170.677 C 280.891 170.385,278.014 170.607,277.268 170.930 M290.374 170.678 C 290.463 170.755,291.854 170.910,293.463 171.022 C 295.115 171.136,295.965 171.091,295.415 170.919 C 294.447 170.617,290.062 170.407,290.374 170.678 M214.439 172.878 C 214.289 173.766,214.254 174.579,214.362 174.687 C 214.469 174.794,214.679 174.156,214.829 173.268 C 214.979 172.381,215.014 171.567,214.907 171.460 C 214.799 171.352,214.589 171.991,214.439 172.878 M274.049 171.719 C 272.698 172.263,273.009 172.502,274.439 172.019 C 275.137 171.784,275.780 171.530,275.870 171.454 C 276.187 171.186,274.913 171.372,274.049 171.719 M298.732 171.707 C 299.376 171.871,300.341 172.005,300.878 172.005 C 301.748 172.005,301.727 171.973,300.683 171.707 C 300.039 171.543,299.073 171.409,298.537 171.409 C 297.666 171.409,297.687 171.442,298.732 171.707 M235.122 172.878 C 234.974 173.553,234.934 174.186,235.033 174.285 C 235.133 174.385,235.326 173.905,235.463 173.220 C 235.789 171.593,235.473 171.278,235.122 172.878 M271.304 173.561 C 270.371 174.473,270.355 174.518,271.201 173.860 C 272.866 172.562,272.946 172.488,272.670 172.488 C 272.523 172.488,271.908 172.971,271.304 173.561 M304.780 172.878 C 306.115 173.305,307.141 173.305,306.146 172.878 C 305.717 172.694,305.015 172.548,304.585 172.554 C 303.958 172.563,303.996 172.627,304.780 172.878 M175.225 175.796 C 174.764 176.542,173.301 178.152,171.974 179.373 C 170.647 180.595,170.093 181.229,170.744 180.782 C 172.165 179.808,175.323 176.484,175.961 175.293 C 176.688 173.934,176.147 174.304,175.225 175.796 M311.805 174.763 C 312.127 174.962,312.829 175.243,313.366 175.386 C 314.044 175.567,314.163 175.537,313.756 175.285 C 313.434 175.086,312.732 174.806,312.195 174.663 C 311.517 174.481,311.398 174.512,311.805 174.763 M213.509 177.236 C 213.484 177.594,213.362 178.209,213.239 178.602 C 213.026 179.280,213.038 179.281,213.460 178.622 C 213.705 178.240,213.827 177.625,213.730 177.256 C 213.571 176.652,213.549 176.650,213.509 177.236 M234.295 182.439 C 234.296 185.015,234.359 186.018,234.436 184.668 C 234.512 183.318,234.511 181.210,234.434 179.985 C 234.357 178.759,234.295 179.863,234.295 182.439 M271.415 184.976 C 272.253 185.834,273.027 186.537,273.134 186.537 C 273.241 186.537,272.643 185.834,271.805 184.976 C 270.967 184.117,270.193 183.415,270.086 183.415 C 269.978 183.415,270.576 184.117,271.415 184.976 M162.537 185.184 C 161.556 185.657,161.524 185.710,162.341 185.513 C 162.878 185.384,163.484 185.122,163.688 184.932 C 164.194 184.459,163.916 184.520,162.537 185.184 M154.732 187.317 C 153.737 187.744,154.763 187.744,156.098 187.317 C 156.882 187.066,156.920 187.002,156.293 186.993 C 155.863 186.987,155.161 187.133,154.732 187.317 M148.976 188.373 C 149.459 188.466,150.249 188.466,150.732 188.373 C 151.215 188.280,150.820 188.204,149.854 188.204 C 148.888 188.204,148.493 188.280,148.976 188.373 M145.463 188.763 C 145.946 188.856,146.737 188.856,147.220 188.763 C 147.702 188.670,147.307 188.594,146.341 188.594 C 145.376 188.594,144.980 188.670,145.463 188.763 M234.993 190.634 C 234.987 191.063,235.133 191.766,235.317 192.195 C 235.744 193.190,235.744 192.164,235.317 190.829 C 235.066 190.045,235.002 190.007,234.993 190.634 M199.816 201.167 L 196.509 204.683 199.993 201.283 C 201.909 199.413,203.397 197.831,203.299 197.767 C 203.202 197.703,201.634 199.233,199.816 201.167 M300.878 199.220 C 301.844 199.737,302.810 200.160,303.024 200.160 C 303.239 200.160,302.624 199.737,301.659 199.220 C 300.693 198.702,299.727 198.279,299.512 198.279 C 299.298 198.279,299.912 198.702,300.878 199.220 M239.986 202.322 C 240.643 203.276,241.367 204.173,241.595 204.313 C 241.822 204.454,241.364 203.673,240.577 202.577 C 238.820 200.131,238.335 199.921,239.986 202.322 M310.049 203.910 C 310.478 204.259,311.180 204.717,311.610 204.928 L 312.390 205.311 311.610 204.676 C 311.180 204.326,310.478 203.868,310.049 203.657 L 309.268 203.274 310.049 203.910 M193.567 206.488 C 190.891 208.556,190.261 209.116,191.220 208.576 C 193.020 207.561,196.937 204.375,196.218 204.511 C 196.152 204.523,194.959 205.413,193.567 206.488 M243.310 206.512 C 244.095 207.519,245.735 209.163,246.954 210.166 L 249.171 211.989 247.220 210.157 C 246.146 209.149,244.507 207.505,243.576 206.504 L 241.883 204.683 243.310 206.512 M316.488 208.053 C 319.615 211.135,323.079 214.170,321.171 212.155 C 319.990 210.909,318.322 209.347,317.463 208.683 C 316.605 208.019,316.166 207.736,316.488 208.053 M252.683 214.446 C 253.112 214.796,253.815 215.254,254.244 215.465 L 255.024 215.848 254.244 215.212 C 253.815 214.863,253.112 214.405,252.683 214.194 L 251.902 213.811 252.683 214.446 M172.098 216.603 C 171.670 216.892,171.828 216.929,172.683 216.737 C 174.118 216.416,174.429 216.193,173.431 216.201 C 173.020 216.204,172.420 216.385,172.098 216.603 M168.976 217.366 C 168.191 217.617,168.153 217.681,168.780 217.690 C 169.210 217.696,169.912 217.550,170.341 217.366 C 171.336 216.939,170.310 216.939,168.976 217.366 M326.104 219.113 C 326.647 220.084,327.167 220.878,327.261 220.878 C 327.535 220.878,325.901 217.831,325.491 217.578 C 325.286 217.451,325.562 218.142,326.104 219.113 M163.122 218.537 C 161.810 218.957,163.227 218.957,164.878 218.537 C 165.930 218.269,165.950 218.238,165.073 218.231 C 164.537 218.227,163.659 218.365,163.122 218.537 M152.585 219.729 C 151.495 219.912,152.160 219.945,154.341 219.818 C 156.273 219.706,157.927 219.547,158.016 219.465 C 158.280 219.225,154.492 219.409,152.585 219.729 M126.228 220.195 C 126.126 220.463,126.089 232.712,126.146 247.415 L 126.249 274.146 126.344 247.141 L 126.439 220.135 128.878 219.996 L 131.317 219.858 128.866 219.783 C 127.205 219.732,126.354 219.865,126.228 220.195 M138.256 220.385 C 139.282 220.466,140.862 220.465,141.768 220.383 C 142.674 220.301,141.834 220.235,139.902 220.236 C 137.971 220.237,137.230 220.304,138.256 220.385 M267.707 222.634 C 268.244 222.941,268.859 223.192,269.073 223.192 C 269.288 223.192,269.024 222.941,268.488 222.634 C 267.951 222.327,267.337 222.076,267.122 222.076 C 266.907 222.076,267.171 222.327,267.707 222.634 M270.049 223.544 C 270.371 223.743,271.073 224.023,271.610 224.167 C 272.288 224.348,272.407 224.317,272.000 224.066 C 271.678 223.867,270.976 223.587,270.439 223.443 C 269.761 223.262,269.642 223.293,270.049 223.544 M274.732 225.301 C 274.732 225.402,275.298 225.682,275.991 225.924 C 276.684 226.165,277.079 226.202,276.869 226.006 C 276.425 225.590,274.732 225.032,274.732 225.301 M291.922 234.362 C 292.877 235.446,293.738 236.274,293.835 236.202 C 293.932 236.129,293.150 235.242,292.098 234.230 L 290.185 232.390 291.922 234.362 M294.281 238.277 C 294.868 240.522,295.056 240.792,294.799 239.024 C 294.675 238.166,294.418 237.303,294.227 237.106 C 294.037 236.910,294.061 237.437,294.281 238.277 M234.224 238.517 C 233.614 239.127,233.549 269.323,234.155 270.456 C 234.375 270.866,234.946 271.406,235.424 271.655 C 236.140 272.029,236.103 271.930,235.215 271.093 L 234.137 270.078 234.239 254.356 L 234.341 238.634 235.385 238.647 C 235.960 238.654,236.344 238.523,236.240 238.355 C 235.954 237.892,234.753 237.988,234.224 238.517 M238.439 239.802 C 238.439 240.066,241.609 241.643,241.785 241.467 C 241.867 241.385,241.148 240.936,240.187 240.469 C 239.225 240.002,238.439 239.702,238.439 239.802 M245.073 242.957 C 245.073 243.220,247.100 243.957,247.294 243.763 C 247.382 243.675,246.919 243.416,246.264 243.187 C 245.609 242.959,245.073 242.855,245.073 242.957 M292.711 244.392 C 292.190 245.034,291.224 245.888,290.565 246.290 C 289.905 246.692,289.531 247.022,289.732 247.023 C 290.333 247.025,292.435 245.452,293.209 244.420 C 294.251 243.032,293.834 243.009,292.711 244.392 M251.902 245.463 C 252.332 245.648,252.946 245.799,253.268 245.799 C 253.637 245.799,253.565 245.675,253.073 245.463 C 252.644 245.279,252.029 245.128,251.707 245.128 C 251.338 245.128,251.410 245.252,251.902 245.463 M254.829 246.226 C 255.151 246.444,255.751 246.625,256.163 246.628 C 257.161 246.636,256.850 246.413,255.415 246.092 C 254.560 245.901,254.402 245.937,254.829 246.226 M259.707 247.396 C 260.456 247.736,262.547 247.957,262.211 247.662 C 262.122 247.583,261.346 247.411,260.488 247.280 C 259.400 247.115,259.163 247.150,259.707 247.396 M266.732 248.603 C 267.805 248.770,269.298 248.899,270.049 248.889 C 271.154 248.875,271.042 248.813,269.463 248.567 C 268.390 248.400,266.898 248.272,266.146 248.281 C 265.041 248.296,265.153 248.357,266.732 248.603 M282.146 248.585 C 281.110 248.803,281.016 248.880,281.756 248.902 C 282.293 248.918,283.434 248.785,284.293 248.608 C 285.594 248.339,285.659 248.286,284.683 248.291 C 284.039 248.295,282.898 248.427,282.146 248.585 M319.145 264.790 C 318.138 265.750,317.443 266.537,317.600 266.537 C 317.757 266.537,318.662 265.746,319.610 264.780 C 321.832 262.517,321.520 262.523,319.145 264.790 M314.927 268.346 C 312.803 270.015,312.539 270.283,313.561 269.739 C 314.411 269.286,317.195 266.956,316.878 266.963 C 316.771 266.965,315.893 267.588,314.927 268.346 M237.268 272.585 C 237.805 272.892,238.420 273.143,238.634 273.143 C 238.849 273.143,238.585 272.892,238.049 272.585 C 237.512 272.279,236.898 272.028,236.683 272.028 C 236.468 272.028,236.732 272.279,237.268 272.585 M90.487 275.220 C 91.052 275.940,124.030 276.306,125.134 275.604 C 125.382 275.446,117.855 275.366,108.408 275.427 C 94.908 275.513,91.094 275.429,90.591 275.036 C 90.021 274.591,90.009 274.611,90.487 275.220 M245.268 275.512 C 245.698 275.697,246.312 275.848,246.634 275.848 C 247.003 275.848,246.931 275.724,246.439 275.512 C 246.010 275.328,245.395 275.177,245.073 275.177 C 244.704 275.177,244.776 275.301,245.268 275.512 M249.008 276.436 C 249.098 276.515,249.873 276.686,250.732 276.817 C 251.820 276.983,252.056 276.948,251.512 276.701 C 250.763 276.362,248.673 276.140,249.008 276.436 M296.780 276.683 C 296.289 276.894,296.216 277.018,296.585 277.018 C 296.907 277.018,297.522 276.867,297.951 276.683 C 298.443 276.472,298.515 276.348,298.146 276.348 C 297.824 276.348,297.210 276.498,296.780 276.683 M254.862 277.609 C 254.951 277.688,255.902 277.855,256.976 277.979 C 258.291 278.131,258.609 278.096,257.951 277.873 C 256.976 277.541,254.554 277.334,254.862 277.609 M291.317 277.872 C 290.773 278.118,291.010 278.153,292.098 277.988 C 292.956 277.857,293.732 277.686,293.821 277.607 C 294.156 277.311,292.066 277.532,291.317 277.872 M262.049 278.652 C 263.590 278.975,267.990 279.157,267.675 278.883 C 267.585 278.806,265.932 278.648,264.000 278.533 C 261.611 278.391,260.987 278.429,262.049 278.652 M284.878 278.634 L 282.732 278.897 284.488 278.938 C 285.454 278.961,286.946 278.834,287.805 278.657 C 289.776 278.249,288.125 278.236,284.878 278.634 M272.098 279.314 C 273.761 279.388,276.483 279.388,278.146 279.314 C 279.810 279.241,278.449 279.181,275.122 279.181 C 271.795 279.181,270.434 279.241,272.098 279.314 " stroke="none" fill="#146494" fill-rule="evenodd"></path></g></svg>