<svg id="svg" version="1.1" xmlns="http://www.w3.org/2000/svg" xmlns:xlink="http://www.w3.org/1999/xlink" width="400" height="347.82608695652175" viewBox="0, 0, 400,347.82608695652175"><g id="svgg"><path id="path0" d="M113.368 0.336 C 81.686 7.136,71.031 48.134,85.837 106.261 C 86.377 108.380,86.387 108.301,85.522 108.532 C 77.473 110.682,64.162 115.398,55.739 119.084 C 54.878 119.461,53.743 119.957,53.217 120.187 C 13.155 137.678,-4.146 165.311,8.718 191.261 C 15.972 205.894,32.222 218.597,57.826 229.648 C 64.484 232.522,75.186 236.276,84.652 239.059 C 85.537 239.319,86.261 239.581,86.261 239.640 C 86.261 239.699,85.826 241.585,85.294 243.830 C 80.627 263.534,78.425 284.288,79.582 297.652 C 82.030 325.910,92.433 341.949,111.652 347.092 L 114.000 347.721 121.607 347.783 C 128.701 347.842,129.356 347.822,131.320 347.483 C 139.249 346.114,149.424 342.312,157.718 337.619 C 158.615 337.111,159.370 336.696,159.396 336.696 C 159.435 336.696,160.508 336.057,165.043 333.333 C 166.232 332.619,172.638 328.268,174.522 326.895 C 180.051 322.865,185.673 318.298,191.113 313.416 C 191.822 312.781,192.565 312.118,192.766 311.943 C 193.666 311.158,194.708 310.193,197.259 307.777 L 199.997 305.185 203.004 308.027 C 204.658 309.591,206.322 311.146,206.701 311.484 C 207.081 311.823,207.864 312.527,208.443 313.050 C 209.717 314.201,211.520 315.774,212.348 316.455 C 212.683 316.730,213.230 317.200,213.565 317.499 C 213.900 317.798,214.839 318.578,215.652 319.232 C 216.465 319.886,217.219 320.503,217.327 320.602 C 218.096 321.306,221.077 323.614,224.000 325.767 C 225.196 326.647,226.638 327.710,227.204 328.129 C 229.045 329.487,235.155 333.479,237.652 334.952 C 238.991 335.743,240.543 336.663,241.101 336.996 C 242.702 337.955,248.932 341.050,251.130 341.978 C 252.230 342.443,253.365 342.928,253.652 343.055 C 257.346 344.697,264.702 346.840,269.130 347.564 C 272.270 348.077,285.443 347.865,287.739 347.264 C 307.161 342.181,318.181 325.732,320.338 298.604 C 321.525 283.681,319.517 264.185,314.691 243.768 C 314.152 241.488,313.739 239.594,313.773 239.560 C 313.807 239.526,314.929 239.174,316.265 238.778 C 320.065 237.651,320.593 237.488,323.739 236.470 C 330.245 234.366,338.692 231.231,342.360 229.560 C 342.773 229.372,343.152 229.217,343.201 229.217 C 343.251 229.217,344.057 228.859,344.993 228.421 C 345.930 227.984,347.087 227.460,347.565 227.257 C 360.185 221.905,375.418 211.582,382.783 203.390 C 384.458 201.527,386.274 199.329,386.957 198.341 C 389.770 194.265,391.265 191.660,392.493 188.696 C 401.157 167.772,391.085 146.326,364.870 129.878 C 364.343 129.548,363.404 128.959,362.783 128.569 C 355.691 124.118,343.089 118.210,332.435 114.343 C 327.533 112.563,317.337 109.260,314.478 108.524 C 313.580 108.294,313.578 108.577,314.508 104.783 C 319.472 84.538,321.672 63.001,320.270 48.392 C 317.930 24.000,309.253 9.185,293.304 2.347 C 292.060 1.814,290.122 1.191,288.052 0.659 L 285.826 0.087 277.652 0.087 C 268.681 0.087,269.190 0.041,264.174 1.301 C 256.852 3.140,246.607 7.436,240.327 11.301 C 239.857 11.590,239.439 11.826,239.397 11.826 C 238.906 11.826,227.055 19.618,224.783 21.435 C 224.687 21.512,223.709 22.250,222.609 23.075 C 221.509 23.901,220.370 24.779,220.077 25.027 C 219.785 25.275,219.286 25.674,218.967 25.913 C 218.649 26.152,218.249 26.465,218.078 26.609 C 217.514 27.083,217.145 27.386,215.652 28.595 C 214.839 29.254,213.710 30.192,213.142 30.679 C 210.778 32.708,209.264 34.030,208.609 34.635 C 208.226 34.988,207.717 35.446,207.478 35.652 C 206.573 36.431,203.503 39.281,201.858 40.870 C 200.917 41.778,200.082 42.522,200.003 42.522 C 199.924 42.522,199.084 41.778,198.138 40.870 C 185.624 28.856,172.494 18.716,160.348 11.682 C 157.374 9.960,156.652 9.576,152.957 7.754 C 146.074 4.361,139.805 2.115,133.130 0.653 L 130.696 0.119 122.783 0.066 C 115.611 0.018,114.729 0.044,113.368 0.336 M126.376 16.964 C 137.367 18.405,151.507 25.141,165.241 35.480 C 165.684 35.814,166.225 36.204,166.442 36.348 C 166.660 36.491,167.080 36.809,167.375 37.054 C 167.671 37.300,168.422 37.886,169.043 38.357 C 170.105 39.161,170.338 39.345,171.125 40.000 C 171.298 40.143,171.738 40.496,172.103 40.783 C 172.468 41.070,173.122 41.606,173.557 41.974 C 173.992 42.342,174.543 42.806,174.783 43.005 C 175.792 43.845,177.311 45.137,177.391 45.226 C 177.439 45.278,178.104 45.860,178.870 46.519 C 179.635 47.178,180.728 48.153,181.300 48.685 C 181.871 49.217,182.928 50.198,183.648 50.864 C 184.367 51.531,185.639 52.739,186.472 53.550 L 187.988 55.024 187.081 55.994 C 185.361 57.832,183.178 60.266,181.461 62.260 C 180.514 63.360,179.595 64.416,179.418 64.608 C 177.420 66.779,168.925 77.248,165.234 82.087 C 161.770 86.628,156.320 94.019,155.466 95.332 C 155.078 95.928,154.982 95.975,153.917 96.083 C 135.719 97.922,120.624 100.225,106.385 103.332 C 104.588 103.725,103.081 104.009,103.037 103.964 C 102.585 103.513,99.608 89.343,98.610 82.896 C 91.685 38.158,101.958 13.763,126.376 16.964 M281.979 16.973 C 298.757 19.621,306.215 40.183,302.598 73.826 C 301.669 82.472,298.981 97.070,297.115 103.609 C 296.978 104.089,297.219 104.099,294.425 103.491 C 279.805 100.312,263.041 97.707,247.947 96.271 C 244.582 95.950,245.383 96.542,242.185 92.013 C 240.282 89.319,232.070 78.461,231.652 78.087 C 231.598 78.039,230.696 76.904,229.647 75.565 C 227.806 73.215,223.042 67.436,221.757 65.993 C 221.412 65.607,220.739 64.828,220.261 64.263 C 218.989 62.761,216.831 60.275,216.712 60.174 C 216.655 60.126,215.983 59.383,215.218 58.522 C 214.453 57.661,213.788 56.915,213.740 56.865 C 213.692 56.814,213.277 56.377,212.819 55.894 L 211.985 55.016 213.427 53.616 C 214.221 52.846,215.104 52.005,215.391 51.746 C 215.678 51.487,216.343 50.871,216.870 50.375 C 218.958 48.409,222.071 45.660,225.739 42.543 C 227.159 41.336,232.595 37.081,234.827 35.429 C 237.597 33.380,237.882 33.179,240.706 31.289 C 253.636 22.636,264.263 18.110,274.696 16.813 C 276.184 16.628,280.374 16.720,281.979 16.973 M202.132 69.696 C 203.237 70.915,204.442 72.261,204.810 72.687 C 205.178 73.112,206.032 74.090,206.708 74.860 C 208.583 76.995,213.058 82.369,215.551 85.478 C 216.778 87.009,217.909 88.418,218.065 88.610 C 219.900 90.874,222.459 94.295,222.377 94.376 C 222.338 94.415,220.359 94.369,217.979 94.273 C 207.151 93.837,187.084 93.891,179.309 94.377 L 177.488 94.491 177.797 94.021 C 178.856 92.404,186.676 82.630,190.824 77.739 C 191.027 77.500,191.590 76.836,192.075 76.265 C 193.137 75.011,196.721 70.905,196.859 70.783 C 196.913 70.735,197.611 69.972,198.410 69.087 C 199.210 68.202,199.922 67.478,199.993 67.478 C 200.064 67.478,201.027 68.476,202.132 69.696 M213.826 111.305 C 220.576 111.517,225.993 111.770,230.696 112.094 C 232.704 112.232,234.598 112.345,234.903 112.346 C 235.437 112.348,235.582 112.533,238.657 117.174 C 249.812 134.005,259.195 150.226,268.042 167.969 L 271.018 173.938 267.953 180.056 C 264.879 186.193,261.799 192.035,258.218 198.522 C 256.296 202.004,255.968 202.578,252.740 208.087 C 249.759 213.173,249.186 214.137,248.344 215.478 C 247.893 216.196,246.800 217.957,245.915 219.391 C 244.116 222.308,244.007 222.481,242.342 225.043 C 236.489 234.055,235.474 235.478,234.901 235.480 C 234.597 235.481,233.291 235.557,232.000 235.650 C 212.258 237.072,189.342 237.032,166.227 235.536 L 164.540 235.427 162.035 231.670 C 159.890 228.454,158.816 226.819,156.429 223.130 C 156.212 222.796,155.235 221.230,154.258 219.652 C 153.281 218.074,152.305 216.509,152.090 216.174 C 151.429 215.146,149.205 211.414,146.751 207.217 C 141.028 197.429,136.916 189.832,131.808 179.606 L 128.962 173.908 132.389 167.084 C 135.292 161.306,137.711 156.712,141.294 150.174 C 143.914 145.393,149.759 135.388,152.521 130.957 C 153.028 130.143,153.842 128.834,154.330 128.047 C 160.070 118.793,164.471 112.348,165.052 112.348 C 165.330 112.348,167.261 112.234,169.344 112.094 C 182.398 111.220,200.746 110.894,213.826 111.305 M142.209 115.014 C 138.356 120.894,129.285 136.203,125.394 143.391 C 124.980 144.157,124.470 145.096,124.261 145.478 C 124.053 145.861,123.562 146.761,123.172 147.478 C 122.781 148.196,121.918 149.825,121.254 151.099 C 119.909 153.683,119.887 153.699,119.371 152.454 C 114.865 141.591,110.890 130.764,107.831 121.027 C 107.694 120.591,107.722 120.570,108.671 120.381 C 109.211 120.274,111.570 119.791,113.913 119.308 C 121.112 117.825,129.358 116.418,137.826 115.227 C 143.020 114.497,142.532 114.521,142.209 115.014 M261.391 115.133 C 268.307 116.025,279.725 117.946,286.174 119.301 C 287.035 119.482,288.757 119.842,290.000 120.101 C 291.243 120.360,292.281 120.587,292.305 120.605 C 292.669 120.880,285.165 141.393,280.736 152.233 C 280.103 153.780,280.140 153.795,278.960 151.529 C 277.696 149.101,276.370 146.620,275.306 144.696 C 274.856 143.883,274.112 142.513,273.652 141.652 C 273.192 140.791,272.671 139.879,272.494 139.625 C 272.318 139.371,272.174 139.122,272.174 139.070 C 272.174 138.906,267.625 131.029,265.731 127.913 C 265.557 127.626,265.244 127.078,265.035 126.696 C 264.827 126.313,264.402 125.609,264.090 125.130 C 263.779 124.652,262.952 123.322,262.252 122.174 C 261.552 121.026,260.670 119.578,260.291 118.957 C 259.912 118.335,259.197 117.200,258.703 116.435 C 258.208 115.670,257.742 114.941,257.667 114.815 C 257.562 114.638,257.662 114.609,258.113 114.686 C 258.434 114.740,259.909 114.941,261.391 115.133 M92.614 129.836 C 95.737 139.336,101.361 154.410,103.835 159.913 C 104.007 160.296,104.734 161.978,105.452 163.652 C 106.169 165.326,107.467 168.293,108.335 170.245 C 110.147 174.320,110.062 173.925,109.408 175.243 C 108.757 176.556,107.136 180.222,105.267 184.609 C 104.451 186.522,103.550 188.630,103.263 189.293 C 99.989 196.867,91.130 221.265,91.130 222.709 C 91.130 223.048,91.279 223.079,87.389 221.931 C 56.434 212.798,33.910 199.632,25.175 185.563 C 13.583 166.894,31.297 146.375,72.348 130.920 C 78.131 128.743,90.342 124.793,90.856 124.933 C 90.944 124.957,91.735 127.163,92.614 129.836 M312.761 125.925 C 329.641 131.017,342.866 136.644,354.696 143.771 C 357.520 145.473,362.917 149.338,364.806 151.012 C 365.080 151.255,365.500 151.622,365.739 151.827 C 374.930 159.729,379.361 168.588,378.162 176.664 C 376.259 189.477,360.996 202.913,336.435 213.395 C 335.287 213.884,334.113 214.391,333.826 214.520 C 328.891 216.743,309.428 223.268,309.036 222.831 C 308.969 222.756,308.157 220.387,307.232 217.565 C 304.540 209.360,299.814 196.441,298.165 192.783 C 298.036 192.496,297.502 191.204,296.979 189.913 C 296.456 188.622,295.628 186.631,295.137 185.488 C 294.132 183.147,294.105 183.087,292.886 180.384 C 292.399 179.304,292.000 178.390,292.000 178.353 C 292.000 178.286,291.057 176.197,290.422 174.858 C 290.006 173.981,290.006 173.845,290.422 172.968 C 291.046 171.652,292.000 169.540,292.000 169.476 C 292.000 169.441,292.301 168.762,292.670 167.967 C 293.038 167.172,293.870 165.270,294.518 163.739 C 295.166 162.209,295.882 160.543,296.109 160.038 C 296.336 159.533,296.522 159.079,296.522 159.029 C 296.522 158.979,296.687 158.576,296.888 158.134 C 297.357 157.105,300.902 148.116,302.051 145.043 C 302.534 143.752,303.323 141.627,303.806 140.320 C 304.930 137.273,308.870 125.449,308.870 125.120 C 308.870 124.757,308.927 124.769,312.761 125.925 M196.522 139.154 C 168.649 142.008,155.160 175.434,173.372 196.521 C 175.150 198.580,175.380 198.813,176.957 200.159 C 198.852 218.848,232.051 205.533,234.775 176.970 C 236.835 155.380,218.178 136.937,196.522 139.154 M121.443 197.087 C 125.549 204.962,132.915 217.888,137.472 225.217 C 138.216 226.413,139.181 227.978,139.617 228.696 C 140.053 229.413,140.860 230.703,141.411 231.562 C 141.962 232.421,142.398 233.138,142.380 233.155 C 142.257 233.277,131.998 231.784,126.000 230.772 C 119.827 229.730,108.897 227.591,107.883 227.225 C 107.522 227.095,111.676 214.919,115.183 205.826 C 116.994 201.132,117.685 199.374,117.990 198.696 C 118.118 198.409,118.552 197.353,118.953 196.350 C 119.700 194.482,119.801 194.261,119.908 194.261 C 119.942 194.261,120.633 195.533,121.443 197.087 M280.447 194.913 C 283.890 203.007,288.967 216.702,291.634 225.089 C 292.332 227.285,292.342 227.221,291.261 227.448 C 290.759 227.553,289.017 227.921,287.391 228.265 C 280.749 229.671,272.211 231.154,264.435 232.252 C 261.374 232.684,258.567 233.080,258.197 233.133 L 257.524 233.228 257.898 232.657 C 258.104 232.344,258.589 231.578,258.975 230.957 C 259.361 230.335,260.216 228.965,260.875 227.913 C 261.533 226.861,262.321 225.570,262.625 225.043 C 262.930 224.517,263.507 223.578,263.908 222.957 C 264.309 222.335,264.689 221.709,264.752 221.565 C 264.815 221.422,264.943 221.187,265.036 221.043 C 266.292 219.096,270.918 211.104,273.692 206.087 C 275.947 202.010,278.461 197.318,279.633 195.000 C 280.088 194.101,280.101 194.099,280.447 194.913 M105.655 244.335 C 118.617 247.254,136.403 250.017,152.256 251.572 C 153.783 251.722,155.041 251.860,155.051 251.879 C 155.141 252.050,156.062 253.362,156.784 254.348 C 157.274 255.017,158.330 256.465,159.131 257.565 C 164.214 264.548,168.849 270.519,174.588 277.478 C 178.859 282.657,184.650 289.314,187.078 291.835 L 188.007 292.800 186.047 294.705 C 182.251 298.394,175.814 304.072,171.826 307.250 C 171.683 307.365,170.939 307.958,170.174 308.568 C 168.263 310.094,163.728 313.485,161.826 314.811 C 146.433 325.544,132.804 331.133,122.035 331.130 C 111.929 331.127,105.227 326.291,100.703 315.739 C 94.654 301.630,95.278 275.112,102.334 246.435 C 102.557 245.526,102.790 244.567,102.852 244.304 C 102.989 243.716,102.906 243.715,105.655 244.335 M297.043 243.874 C 297.043 243.900,297.240 244.696,297.480 245.643 C 305.345 276.648,305.380 306.002,297.567 319.367 C 297.183 320.023,296.870 320.591,296.870 320.629 C 296.870 320.710,295.285 323.005,295.143 323.130 C 295.088 323.178,294.579 323.755,294.011 324.412 C 283.769 336.257,262.538 332.281,236.522 313.644 C 234.095 311.906,228.351 307.513,228.000 307.127 C 227.952 307.074,227.287 306.528,226.522 305.913 C 225.757 305.298,225.091 304.753,225.043 304.702 C 224.996 304.651,223.822 303.634,222.435 302.442 C 221.048 301.251,219.443 299.837,218.870 299.299 C 218.296 298.762,217.200 297.748,216.435 297.045 C 215.670 296.342,214.356 295.102,213.516 294.288 L 211.988 292.808 212.733 292.017 C 213.143 291.582,213.519 291.186,213.569 291.135 C 213.618 291.085,214.635 289.948,215.828 288.609 C 217.021 287.270,218.076 286.087,218.172 285.981 C 218.692 285.410,219.496 284.480,220.341 283.476 C 220.863 282.856,221.607 281.992,221.993 281.556 C 223.196 280.200,224.189 278.996,228.966 273.099 C 233.502 267.499,238.359 261.118,242.946 254.734 C 245.302 251.457,244.617 251.899,247.838 251.571 C 264.840 249.837,285.860 246.523,295.913 243.993 C 296.462 243.855,297.043 243.793,297.043 243.874 M190.377 253.762 C 199.494 253.961,215.714 253.791,220.936 253.442 C 221.999 253.372,222.460 253.397,222.414 253.525 C 222.317 253.798,212.877 265.794,212.530 266.087 C 212.473 266.135,211.648 267.113,210.696 268.261 C 207.446 272.179,200.223 280.348,200.008 280.348 C 199.873 280.348,199.408 279.857,196.869 277.032 C 193.938 273.772,191.479 270.905,187.331 265.913 C 185.603 263.833,180.507 257.431,179.565 256.157 C 179.374 255.898,178.846 255.208,178.391 254.624 C 177.334 253.264,177.295 253.322,179.174 253.447 C 180.059 253.505,185.100 253.647,190.377 253.762 " stroke="none" fill="#64dcfc" fill-rule="evenodd"></path><path id="path1" d="M380.000 141.620 C 380.000 141.650,380.254 141.904,380.565 142.185 L 381.130 142.696 380.620 142.130 C 380.144 141.604,380.000 141.485,380.000 141.620 " stroke="none" fill="#68dcfc" fill-rule="evenodd"></path><path id="path2" d="M380.000 141.620 C 380.000 141.650,380.254 141.904,380.565 142.185 L 381.130 142.696 380.620 142.130 C 380.144 141.604,380.000 141.485,380.000 141.620 " stroke="none" fill="#68dcfc" fill-rule="evenodd"></path><path id="path3" d="M380.000 141.620 C 380.000 141.650,380.254 141.904,380.565 142.185 L 381.130 142.696 380.620 142.130 C 380.144 141.604,380.000 141.485,380.000 141.620 " stroke="none" fill="#68dcfc" fill-rule="evenodd"></path><path id="path4" d="M380.000 141.620 C 380.000 141.650,380.254 141.904,380.565 142.185 L 381.130 142.696 380.620 142.130 C 380.144 141.604,380.000 141.485,380.000 141.620 " stroke="none" fill="#68dcfc" fill-rule="evenodd"></path></g></svg>